<mxfile host="app.diagrams.net" modified="2023-02-11T01:43:21.101Z" agent="5.0 (Windows)" etag="16qGRK1zLJCC9piLHsOV" version="20.8.19" type="github">
  <diagram name="第 1 页" id="vtoTjt_XKhjMSR5qGAR_">
    <mxGraphModel dx="1050" dy="-603" grid="1" gridSize="10" guides="0" tooltips="1" connect="0" arrows="0" fold="1" page="1" pageScale="1" pageWidth="827" pageHeight="1169" math="0" shadow="0">
      <root>
        <mxCell id="0" />
        <mxCell id="1" parent="0" />
        <mxCell id="bNAyXEdg1maSBF0XDLA2-3" value="" style="shape=image;verticalLabelPosition=bottom;labelBackgroundColor=default;verticalAlign=top;aspect=fixed;imageAspect=0;image=data:image/png,iVBORw0KGgoAAAANSUhEUgAACa8AAA2yCAYAAAAuQMB1AAAACXBIWXMAAC4jAAAuIwF4pT92AAGTV0lEQVR4nOzdd3gU9drG8XvTe0INPfTeexMVQSzHiopdsfeConQEQREVFUGxi733XlBAeif0mtACgUBCet33j5hhZ3uWZAO+3891nevktzszO7s7Defe57FYrVarAAAAAAAAAAAAAAAAAADwo4CqXgEAAAAAAAAAAAAAAAAAwP8/hNcAAAAAAAAAAAAAAAAAAH5HeA0AAAAAAAAAAAAAAAAA4HeE1wAAAAAAAAAAAAAAAAAAfkd4DQAAAAAAAAAAAAAAAADgd4TXAAAAAAAAAAAAAAAAAAB+R3gNAAAAAAAAAAAAAAAAAOB3hNcAAAAAAAAAAAAAAAAAAH5HeA0AAAAAAAAAAAAAAAAA4HeE1wAAAAAAAAAAAAAAAAAAfkd4DQAAAAAAAAAAAAAAAADgd4TXAAAAAAAAAAAAAAAAAAB+R3gNAAAAAAAAAAAAAAAAAOB3hNcAAAAAAAAAAAAAAAAAAH5HeA0AAAAAAAAAAAAAAAAA4HeE1wAAAAAAAAAAAAAAAAAAfkd4DQAAAAAAAAAAAAAAAADgd4TXAAAAAAAAAAAAAAAAAAB+R3gNAAAAAAAAAAAAAAAAAOB3hNcAAAAAAAAAAAAAAAAAAH5HeA0AAAAAAAAAAAAAAAAA4HeE1wAAAAAAAAAAAAAAAAAAfkd4DQAAAAAAAAAAAAAAAADgd4TXAAAAAAAAAAAAAAAAAAB+R3gNAAAAAAAAAAAAAAAAAOB3hNcAAAAAAAAAAAAAAAAAAH5HeA0AAAAAAAAAAAAAAAAA4HeE1wAAAAAAAAAAAAAAAAAAfkd4DQAAAAAAAAAAAAAAAADgd4TXAAAAAAAAAAAAAAAAAAB+R3gNAAAAAAAAAAAAAAAAAOB3hNcAAAAAAAAAAAAAAAAAAH5HeA0AAAAAAAAAAAAAAAAA4HeE1wAAAAAAAAAAAAAAAAAAfkd4DQAAAAAAAAAAAAAAAADgd4TXAAAAAAAAAAAAAAAAAAB+R3gNAAAAAAAAAAAAAAAAAOB3hNcAAAAAAAAAAAAAAAAAAH5HeA0AAAAAAAAAAAAAAAAA4HeE1wAAAAAAAAAAAAAAAAAAfkd4DQAAAAAAAAAAAAAAAADgd4TXAAAAAAAAAAAAAAAAAAB+R3gNAAAAAAAAAAAAAAAAAOB3hNcAAAAAAAAAAAAAAAAAAH5HeA0AAAAAAAAAAAAAAAAA4HeE1wAAAAAAAAAAAAAAAAAAfkd4DQAAAAAAAAAAAAAAAADgd4TXAAAAAAAAAAAAAAAAAAB+R3gNAAAAAAAAAAAAAAAAAOB3hNcAAAAAAAAAAAAAAAAAAH5HeA0AAAAAAAAAAAAAAAAA4HeE1wAAAAAAAAAAAAAAAAAAfkd4DQAAAAAAAAAAAAAAAADgd4TXAAAAAAAAAAAAAAAAAAB+R3gNAAAAAAAAAAAAAAAAAOB3hNcAAAAAAAAAAAAAAAAAAH5HeA0AAAAAAAAAAAAAAAAA4HeE1wAAAAAAAAAAAAAAAAAAfkd4DQAAAAAAAAAAAAAAAADgd4TXAAAAAAAAAAAAAAAAAAB+R3gNAAAAAAAAAAAAAAAAAOB3hNcAAAAAAAAAAAAAAAAAAH5HeA0AAAAAAAAAAAAAAAAA4HeE1wAAAAAAAAAAAAAAAAAAfkd4DQAAAAAAAAAAAAAAAADgd4TXAAAAAAAAAAAAAAAAAAB+R3gNAAAAAAAAAAAAAAAAAOB3hNcAAAAAAAAAAAAAAAAAAH5HeA0AAAAAAAAAAAAAAAAA4HeE1wAAAAAAAAAAAAAAAAAAfkd4DQAAAAAAAAAAAAAAAADgd4TXAAAAAAAAAAAAAAAAAAB+R3gNAAAAAAAAAAAAAAAAAOB3hNcAAAAAAAAAAAAAAAAAAH5HeA0AAAAAAAAAAAAAAAAA4HeE1wAAAAAAAAAAAAAAAAAAfkd4DQAAAAAAAAAAAAAAAADgd4TXAAAAAAAAAAAAAAAAAAB+R3gNAAAAAAAAAAAAAAAAAOB3hNcAAAAAAAAAAAAAAAAAAH5HeA0AAAAAAAAAAAAAAAAA4HeE1wAAAAAAAAAAAAAAAAAAfkd4DQAAAAAAAAAAAAAAAADgd4TXAAAAAAAAAAAAAAAAAAB+R3gNAAAAAAAAAAAAAAAAAOB3hNcAAAAAAAAAAAAAAAAAAH5HeA0AAAAAAAAAAAAAAAAA4HeE1wAAAAAAAAAAAAAAAAAAfkd4DQAAAAAAAAAAAAAAAADgd4TXAAAAAAAAAAAAAAAAAAB+R3gNAAAAAAAAAAAAAAAAAOB3hNcAAAAAAAAAAAAAAAAAAH5HeA0AAAAAAAAAAAAAAAAA4HeE1wAAAAAAAAAAAAAAAAAAfkd4DQAAAAAAAAAAAAAAAADgd4TXAAAAAAAAAAAAAAAAAAB+R3gNAAAAAAAAAAAAAAAAAOB3hNcAAAAAAAAAAAAAAAAAAH5HeA0AAAAAAAAAAAAAAAAA4HeE1wAAAAAAAAAAAAAAAAAAfkd4DQAAAAAAAAAAAAAAAADgd4TXAAAAAAAAAAAAAAAAAAB+R3gNAAAAAAAAAAAAAAAAAOB3hNcAAAAAAAAAAAAAAAAAAH5HeA0AAAAAAAAAAAAAAAAA4HeE1wAAAAAAAAAAAAAAAAAAfkd4DQAAAAAAAAAAAAAAAADgd4TXAAAAAAAAAAAAAAAAAAB+R3gNAAAAAAAAAAAAAAAAAOB3hNcAAAAAAAAAAAAAAAAAAH5HeA0AAAAAAAAAAAAAAAAA4HeE1wAAAAAAAAAAAAAAAAAAfkd4DQAAAAAAAAAAAAAAAADgd4TXAAAAAAAAAAAAAAAAAAB+R3gNAAAAAAAAAAAAAAAAAOB3hNcAAAAAAAAAAAAAAAAAAH5HeA0AAAAAAAAAAAAAAAAA4HeE1wAAAAAAAAAAAAAAAAAAfkd4DQAAAAAAAAAAAAAAAADgd4TXAAAAAAAAAAAAAAAAAAB+R3gNAAAAAAAAAAAAAAAAAOB3hNcAAAAAAAAAAAAAAAAAAH4XVNUrAFSl5StXKy8vX5IUFhaqnt27VvEanb42bd6qI2lHjXHPHl0VFhpahWv0/1defr6Wr1htjOPja6tVi2ZVuEb+YbVatXN3kg4eTJUk1apVU82aJCgoqPJPdTt3JWn/gRRj3LVLR0VFRpqm2X8gRTt3JRnjVi2bK752rUpft6r2/3V79Fbynn3at3+/SkqsqlWzhpo2SVBISEhVr9Zpb/HSFSoqKpLE+f1048212frEjUrPOG6MB/Tv47f1s1VUVKTFS1cY45o1qqttm1ZVsi44ISPjuNYlbjTG9evVVbOmjStk2VnZ2Vq9Zn2lLPt0YX89065NK9WoUb1Clp2WdlQbN281xgmNGiqhUYMKWTYAAAAAAAAA4NRlsVqt1qpeCaCqDL1muA4eKg261ImvrS8/fqeK1+j0NX7yNM37e6Ex/uKjt1W3TnwVrtH/XykHD+mKa28xxucPOUfjHh9RhWtU+dasS9T0GbO0Z+8+0+Nn9u+jpyaPq/TXf2n26/rsy2+N8buvv6wWzZuapvn0y281c/brxnjsYw/rgvMGVfq6VbX/j9ujN7Zu36lpz72kbdt3mh5v1aKZ3n5tZhWt1X/HkIuuUlZ2tiTO76cbb67N7nt4lNasSzTGi+b96Lf1s5WVla0hF19ljM/o11vTnhxfJeuCE9asTdR9I0YZ46uGXqIH772jQpa9fccu3XzH/ZWy7NOF/fXM05PHVViAdME/SzR6whRjfMtN1+rWm66rkGX/V2RlZyszM0uRkRGKiY6u6tUBAAAAAAAAgApB5TVUipdmv67Va09UJbju6it07jlnlWsZ6xI3asbMV41xj25ddN9dt5ZrGVarVfc9PMq4gS1JUyaOVsMG9cu1HHgWGkqloFNVYEBgVa9CpUrcuFkPjRxnVFmyVUI+G6eg3UnJuufBx5SXl+fwXHFJSRWsEQD8d4VSCRinsS1bt+vXP/7SusSN2r5jl0psrhPCwsLUrk0rnTWgn4YMPluRERFVuKYAAAAAAAAA4DvCa6gU9evVNVUh+nvBonKH1+YvXKwdO3cb48NH0nTvnbfIYrF4vYydu5O0dv0GYxwXF6v69euVaz1OVVarVdnZOZKk0LBQBfuhNSKqVnFxsXJzS8Mu4eFhCgz0LpQWERFematV5V6Y+aopuBYUFKQundorKChYtWv999ty4vTz0uw3TMG1AItFnTq1V0R4uF/a3J7OsnNyZC2xKig4iNbUgI8KCwuVn18gSYqMjCjXtXVVKioqMlrKRkSEKyAgwKv5goM5rqLq5ecXqLCwULLIobW8M0ePpevZF2ZpwT9LXE6Tl5enVWvWadWadXpr7od66L47NXjgmRW52gAAAAAAAADgF/yXfFSKfr176oWX5xjjVWvWqaSkxOubTJK0fOUa0zgj47i279illi2aeb2MFXbL6NOruwJc3KALCwvzermngi3btuu2ux+W9P+n/eD/d/MXLtb4ydMkSbNmTFOXzh2qeI2q3q7dydpq03YxIiJcb736oho1bFCFawVbNapX06wZ04xx9erVqnBtql7a0WNaserEuSkoKEivvjRdbdu0qsK1Oj0UFRXpf5dfp4KCAo/tZ599aqKKi0ur04SEBPtrFYHTwpvvfqAPPv5CkvTrd58pKspzkOZU8MPPv+nZF2ZLct6e2x8a1K9rOqfVqlXD7+vwX9apQzvT51unTu0qXJuKNWXa85o3/x9FRUbq1+8/czttSsoh3fPQY0o9fMTr5aenZ+iJKdO1OylZd9xy48muLgAAAAAAAAD4FeE1VIq6dePVOKGhkpL3SpKysrK1ecs2tWvb2qv5Uw8f0e6kZIfHV6xaU67wmn0Arm/vni6nDQo6vVorbtm6vapXAX62ecu2ql6FU86u3ebjxKUXXUBw7RQTEhJC0NLGrt1JpvF5gwcSXPPSzt3JKigo8Grajh3aVfLaAKevTZtPz+uJzafAtW94eDjntEoUGxvzn/18N3l5HV9QUKDHxk1yCK61b9taA88eoOZNGysmOlpZWdlK3rtXS5at1OKlK4x2onM/+FS1a9XUpRddUOHvAQAAAAAAAAAqC+E1VJq+vXoY4TVJWr5qjdfhteUrVht/B1gsKrFaSx9fuUbXXX2FV8soKCjQusQTLUMDAwPVs3sXr+Y9HXh7AwT/HRs3b63qVTjlpB4x39jr3LF9Fa0J4J2jR9NN444d2lbNipyGNm/hGAicrBKrVVu2VX0IzBebuA7CaSo9PUMHD6V6Ne1nX35n+nFGZESExo0aoQH9+zhM26VzB1160QXasXO3xkycqv0HUiRJs+a8rf59e6tmjeoV8wYAAAAAAAAAoJJ538MRKCf7Kmf2LTzdWbJ8pfH3kHMHGn+vS9yo/Hzvqq6s37DJNG3HDm0VFXl6tEXyxqlWNSMw4PSqXHe6KSkpMbXHRKlAu1bEkZERVbQmgHessprG0VFRVbQmp5/NW07PwA3+u06Xdpu29uzZp5yc3KpejXLLy8tTUtKeql4NSLL+W+EL3vP2R0clVqu+/OZ702OTJ4xyGlyz1bxZE02fOlFBQaW/TczNzdUXX3/vdh4AAAAAAAAAOJVQeQ2VpiwslpWdLUnasGmLcnJyFRER7na+kpISrVy91hhfeN5gJW7YrH37D6iwsFDrEjeoZ/euHl9/xSpzWK6fm5ahzhQWFmrt+g3asXO3srKyFRYWqpo1aqhb106qXatmuZZVZndSsnbsStLBQ6nKz8uXLKXBhYYN6qtN6xaqFhfndv6s7GzJKuXm5WnPnhNV7fLy85WVlW2MQ0NDFBwc7NM6OnvN1WvWKyl5j/LzCxQcEqz69eqqS6cOpl/ze/peXSkqKtKmLdu0a3eS0o4eU3FxsQIDAxUXG6umjRPUvl1rn9+L1WrVzl1J2rJtuw4fSVNhYaECAwNVq2YNNWvSWK1btVBgoG+hu4OHUrVzV5IOH0lTfkGBIsPDVbNmdTVpnKD42rV8Wqaz9c/OzpEkJe/Zq7y8POO5nNxc03ceFhZq3LDyJON4platWad9+/YrP79AkZERalC/nrp37ezz97h3335t2rxNBw+lqqCgQAGBAYqLjVWzpo3VtnVLhYSE+LRcZwoKClRQUChJDu85I+O46XMJCgpUWFiYy2VlZmYpceNm7d23X1nZ2SoqKlZoaIhq1ayhVi2bq1mTxrJYLBW27r4osVq1fftObd+xS4fT0lRQUKigoEBFR0UpoVFDtW/XWpERrkN7tp9HYGCAwsM9f8c5OblG+ympdP8OCHCfdy8qKlJeXr4xDg0LVXBQkEqsVuX8ux1LUlBwkMJCQ92uZ3BwsEJDT2wzJSUl2rh5q7bv2KWjR4/JEmBRRHi4WrdsoU6d2iugnN9RYVGRtmzdrv0HUpSbm6vIiAg1b9ZUTZskmKbLy89XUWFR6cAinwPQhUVFpcd8SUGB5m02PSPD9N4DAgKM/TA3N1fFxSe+h8jICK+2R9N8Ltbbdj9ytuy0tKNat2GT9h9IUV5unoKCghRfu5Z69ujqcyWXwsJCbd+xS/v2H1BRUbGioiLVonlT1a0T73KevLw8FRUVSzJXnywqLHK7r5edLyXJEmBxu4/YSk/PKD0m7D+gnJwclZSUKDQkVLVr1VTbNq2U0Mi7tsSetp0DKQe1fsMmHTp0WIWFhQoOLj239urRVdHR/gk0lp7HdisjI1OBgYFqUL+uWrZo5tM5t6SkRNu279Su3ck6kpam/PwCBQYGKjY2Wo0TGqlNq5Y+n1+qSlLyHq1L3KQjaWkqKS5RdHSUWrZopo7t23p9vnUn7egxbdhYen2bm5snq9Wq0NAQxdeurbZtWqlhg3oV8C5KFRcXKze39Bpi7foNpufKrtPLRERGuD2mFhYWasOmLdqdtEfH0tON67bq1eLUrEljtW3TqkI+H0mm88eGTVuMSsyS43VQeHiYy2s6+/NX2tFjWrM2UfsPpKiwsFARkRFKaNhA3bp2cnp+Mq1TSYkp/Gd/vnLl8JE07dy1W6mHjyg3L18RYWGqXr2amjZOUN26ro+BFSk3N1eJGzcrec8+Hc/MVHFxsYKDglWjRjW1aN5UrVq28Op8mp2T4/K5kpISbdi4WVu37zReIzYmRi2aN1WH9m0V7GHbsL+WCAkJ9voaMnnPPm3aslWpqUeUX5CvwMBAVYuLU9MmCRVyLZq8Z5+SkvcoOztHQcFBatyooZo3a+Ly+sj23L8+caPxuNVqNW270okg7Lp1G0ztQs88o6969+zm1fo1TmioPr26a+GipZKkhYuW6K7bbvL+DQIAAAAAAABAFSK8hkoTGBionj26at7fCyWV3jhbs269+vXp5Xa+jZu3Gv9BPzQ0RO3btVGPbl20b/8BSaWtQ70Jry23q/RmXwnOlRKrVZ98/rXe+/BTZWZmOZ2mb+8eGvXIA6rhxQ38goICff39z/r8y2+VcvCQy+kCLBb16d1Dt950nVq1bO50mqFXD3e4yShJz7/0ip5/6RVj/MC9d2jY0Es8rpun9X7jnQ/05TffO612Z7FYdEa/3nr4vjtV24ewVsbxTM394BP9+PPvTt9TmciICF1w3iANv+EaxcbGeLXsoqIiffntj/r08691KPWwy+ni4mJ16f/O17VXD/Uq2JCXn6/Pv/pOP/z0m7E9OlMnvrYGDRygKy+/5KTa9WRn52jIxVc5fe6xsZNM46cnj3NZlSE8vDTQkZmZpVmvvaWff/1TxcXFDtMFBwdr2BWX6LbhN3i8uSiV3nz79Y+/9P5Hnysp2XU1lIiIcJ03eKCG33itqleL87hcT97/+HO9Pfcjp8+NmTjVND6jX29Ne3K8w3Tbtu/U2+99pMVLVzj9LMrUrROva666TJddfKHH8FZFy8vP18effaWvv/tJaWlHXU4XHBSks886Q3cMv8HpDfCb77xfKSmlx55aNWvom8/ec/u6xcXFuuiK601hySkTR+vsM/u7ne/bH37WjJlzjPGcl59Th3ZtdOhQqq649hbj8fOHnKNxj49wmN92W79q6CV68N47VFJSos++/FYffPyFjqWnO33dxgmNNH7UCLVu1cLt+kml+8Bbcz/Uj7/87rTyUNMmCbrnjuHq06uHJGnik8/on8XLJHn32bny+x9/a+r0F5w+98zzL+uZ5182xs2bNdHcN2ZJkiY8+YwWL11hPPfrd595Velp5JhJWrMuUVJpaOrX7z9zmObTL77RnDfnOix7z959evWNd7Vw0VJZrVaH+QICAnTFZRfpnjtv8eo4IUn79h/Qex9+pr8XLHIaemjZopmuHTZUg84e4BDOe2Lqs8aNeFu/z5uv3+fNN8b2+7rt+bJOfG19+fE7btdxw6Ytenvuh1qxco0pIGOvcUJDXTtsqC4YMshtkPC5F2fr51//lGT+DhI3btbsOW8pceNmp/OFhYXp1puu1bXDhrpdX18VFhXpx59/05ff/GBqS1cmMiJC5w46W8NvvEY1qlfzuLzjmZn68JMv9P1Pvykj47jL6UJDQzTwzDN0683XuQ0rngq2bt+pGS+9og2btjh9PjY2Rjdff7WuuPzicgdnJWn12vV6572PtWZdotN9rEzzZk10/TVXavDAM8v9GvbWJ27SfSNGOX1u6DXDTeMvPnrb6XeUdvSY3nnvY/3y+zzl5rqu3BYdHaWLLzxPN1571UlXprM/f9i658HHTONZM6apS+cOTqeN+Pca7+ixdL38yhv6Y958p/t5WFiYrr/6Ct10/TCX5/ydu5J08x33G+Oy85UzhYWF+vq7n/TtDz8rKXmv02mk0vPLwDP768qhl1TK/rH/QIrefOcD/b1wsQoKXFewrlGjuq649H+6+srLfAp6/fTLH3r97fd0+Eia0+erxcXp1puv1aUXXeDy+Ll46QqNnjDFGN9y07W69abrXL6m1WrVj7/8ro8/+8rtZxwZEaH/nT9YN143THFxsV6+o38rmH3zg779/men/46rXi1O/7tgiK6/5gqHf0u4Ovdn5zhe3y+a96MkKXHjJtPj5d3/WzZvZpwzk5L3qrCoyOtzNQAAAAAAAABUJdqGolL17d3DNLYPlDmzbPkq4+/OHdsrOChIPbp1Nh7zpv1oenqGtu/YZYzr1a3jsVpKYGCgCouKNGbCFM2e85bL4JpUemPlrgdGKj09w+N63Hn/o5o5+3W3wTWpNDS3aMly3X7vCOOGd1XJzc3VvQ+P0keffumyTavVatWCf5bo5jsfMH3W3kjcuFnX3XyXPv3iG7fBNan0Bs/nX32n64bf7VXLnSNpR3XHfY9o5uzX3QbXpNLv590PPtFNt9/nNnwllVbNu3743Zrzxrtug2tSaTWbDz7+QtcNv0vLVqz2uM6VLTAwUKmHj+i2ex7WDz/95jKsVVhYqA8+/kITn3zG7Q11qfR7eXT0E3ry6ec9fnY5Obn66tsfdf3wu7RmbaLP76OifPrlt7r17oe0cNFSt8E1SUo5eEgzZs7R/SNGO1TJqEz79h/Qzbffpzff+cBtcE0qDaP89sdfuv7We7RoyTKH5/v2OnEcPnwkzQiyubJx81ZTcE2SEYRyZ9XqdcbfMdHRatemlcd53MnPL9CIxyfo5VffdBlck0qrI93/yGi3N62l0s/0ptvv0+dffeeyZd6u3cl6dPQTev3t0pCa7XmgKqpGeVstzBchdtWFrFarVq1Zp+F3PqgF/yxxeQwoCxROe/Ylj69htVr1/sef67rhd+vHX353Wa1n2/ademLKdD346FiP59XK8Pbcj3TnfY9o2YrVboNrUmkY4KnpL2rkmEnKy893O629b77/Wfc8+JjL4JpUWmlu9mtv670PPy3Xsr2xc1eSbrvrIT37wmynwTWp9Nj+9Xc/atgNt+vvBYs8Lu/6W+7RBx9/4Ta4JpXuzz//9qduuu2+U+I84MripSt0570jXAbXpNIKny/Nfl0TJk8zVaj0xGq16uVX39T9I0Zr9dr1Hs+zO3bu1hNTpmv85GkqLCry+nUqw6o163Td8Lv09Xc/ug2uSaXHzQ8/+UI33Havdu5K8s8KemHf/gO69a4H9duff7vcz/Py8vTmux+YAsW+2n8gRTffcb9emv26x/PT4SNp+vTLb3X9Lfd43O/K68+/Fuj6W+7Rb3/+7Ta4JpVW3Hztrfd0690Pmap/eeONt9/X1OkvuAyuSdKx9HQ99+Ireu7F2eVatitZ2dl6aOQ4Pf3sSx4/4+ycHOMzdrd/21qzLlHX/nvt7+rfcUePpeu9Dz/VNTfeoXU21dV81bdPTz05YZQeG3G/7rljuLp0ch7IdCU4xFw5Mz+vfOcpAAAAAAAAAKgq/AwXlapvrx4KsFiMm0T2rTydWbbiRHite9fOkqSunTsay9mxa7eOHkt3W8Fp5ep1ppuC/fp4rroWER6uV197WwsXLZXFYlGH9m3VqUM7VYuLVUFhobZu26H5CxcbNyoPpBzUK6+/ozGPPeR0eVarVaMnTtW27TuNx4KCgjSgX2+1atlC8fG1ZC0p0e7kvfrtj7908FCqpNKqR089+6ISEhqqbeuWpmUOPucs5eXnaf/+FK3fcOKX+R3bt1X9+nWNcZOEhh7frzvTX5itTTbt2SwWi/r37aVePbqqRvXqOn48U3v27dcvv89TWtpRPTJ6orp17ujVsncnJeuRxyeYQgwx0dE65+wBatY0QbGxsTp+/LiSkvfqtz//Nm6IH0tP18OPjdPbc15S/Xp1nS47NzdXDz461iFM1b1rZ/Xo1kXVq8XpeGam1idu1KKlK1T0783glJRDun/EaL015yWnLWEzjmfqoZHjdMQmRFS9WpwGDTxTLZs3U2RkhI4fz9T2nbv094JFxnRZWdkaPeFJvT3nJTVOaOTV52MrKDhI5w85R5K0fccu7di523iuV4+uqm5TFSc+vrbL5RQWFmnUuMnat/+AQkJC1KdnN7Vo3kwRkRHKzMzUylVrTWGK+QsX6/d583XuOWc5XV5JSYnGTpyqFavWmh5v27ql+vbuqfjatZSTm6uNm7dqwT9LjCBUxvFMPTJ6gubMfE4tWzQr78dhaNGsqfG52O8LXTt3VHz8iUqArVqYqxh+/d2Pmjn7ddNjjRMa6awz+qpu3XhFhIfrSNpRJW7YpAWLlhrbyNr1GzRy7CTNmvG0z61mvXX0WLruHzHadOM4LDRUZ5/Zv7S9cLVqyszM0v4DKfrzrwXGsSMvL09jJj6ll59/Sh07tDPm7dWjm7785gdjvDZxg9sWZbYhtDKrPYRNSqxWrbYJuPXq0fWkKtUVFhbphVlzjHNG82ZN1KNbF9WoXk1FRUVK3LhFi5cuN47zOTm5enHWHL347FSny8vJydXDj403BVrDwsJ0wZBz1K5ta4WHh+vAgRTN+3uhNm3ZprkffKrY2FjTccqbdquuNKhf19hmjx49Zgq12h+/69Q+sS8HBft2meYpFOzM1u07NGbCVOXl5SksLEx9e/dQ08YJioiM0KGDh7Rg8VJT8PGX3+fpgvMGqVuXTk6XZ7VaNX3GLH334y/GYzHR0RrQv48SEhpKVquS9+7T3/MXGeu7as063f/IaL3y4nSjdWa3Lp0UFRWp3Nw8U6ijfr266tihrTG239e99e4Hn+ituR+aHmvRvKkG9OujOvG1FRISoiNpaVqzLlGLl64wrgGWLFuhCZOn6ZkpEzy2ci0qLtba9Rv0/IuzVWK1KiY6Wv379VKjhg0UHBSkfftTNG/+QlMA7O25H2nQwDNVr24dn96XvU2bt+qhkeNM23TXzh3VuVN7RUVF6dixdK1ctVabt5aGxHNzczVu0tMaP+oRDRl8tsPysrKz9eiYJ0zh2qjISJ11Zj81bZygWjVrKD+/QFu2bdevf/xlBEGzc3I0ZuJUffjunAqpxFmRDh5K1YQnnzEFxWpUr6YhgweqZYtmCgwI0LH0dK1as14L/1miv+b/o1fcnHvtzX7tbX3y+demx9q2bql+fXspvnYtBQUF6fDhI1q1Zr2WrVhlHN/m/b1QQUFBmjjmUZ/fW/Xq1Yxj0Ko165VqcywcPPBM07Emwu5Yt2nLNo0c84TpxwxxcbEaPPBMNU5oqJiYGGVkZGjnrmT98dd847tOTT2sh0aO1duvzVStmjV8Wu+I8HBjvTdv2WYKKPXr00sxMSda7FZ3UykwNzdXI8dMUurhIwoPD1efnt3UrFkThYeHKyMjQ0uXr9LWbTuM6X/4+TedNaCvUYWzvPLzC/TIqAnau+/Ejx1iY6I18KwBatO6haKjopSZlaWdu5I0f+Fi03l84pTpevWl6Wp7kgFwSVq4aKmemDLdFNarE19b55w9QPXr1VV0dJSOHTumzVu366+//zECubt2J+vBR8fq7TkvenXuW7Vmnb74+ntJpcf5fn16qn69uoqIjFBa2lEt+GeJ9u7bb0z/zfc/q1XL5rr4wvN8fm/FxcUaOWaSqR2nJLVr21p9enVXfK1ays7J0aYt20zXosfS0/XQyHF6fdbzDq3Cbf2zeJnGPvGUcR0YEBCgPr26q22bVgoPD9fhw0e0aMly7dm7T1JpZcKHHxun56dNNgJntuf+fxYvM/aNoKAgDT7HeUW15k2bqHnTJj5/LikpB42/bduQAwAAAAAAAMCpjvAaKlVsbIzatmll/MI9ec8+paYedtlmMuN4prZs3W6Mu/0bXouOjlKrli2Mm6orV63RuYMcb6aWWb7SXO3KvgKcM7uT92jt+g2qVbOGJo9/3BT+KLN9xy498MgYHc/MlCT9/NufuvO2m5y21lq6fKXphkqd+Np68dmpatignsO0w2+4WlOnv6A/5i2QVBoOevOd9zXjmSdN0z360D2SStvy2AZ2LrpgiC44b5DH9+iNjZu26Lc//jLGoaEhembKBPXo1sVh2ltuvEYTp0zXP4uXmdq3uVJitWrSU8+Zbp7369NLE0Y/4rS11O233KDJTz1ntO3LysrWM8+/rJnPP+V0+bNfe8cUXKtVs4amPDFG7du2Nk139ZWX6VDqYU195gWtWlMa1Dl6LF3PvjBLzz71hMNyv/nuJ1NwbdDAARo98iGF2VUukqT7775NH336pV57q7RyU35+gV594109M2WCq4/FpbDQUKO94ltzPzSF12645iqX7bHsff/Tr0pPz1Dnju01cexIh4DebTdfr59//VNTnplhPPbhJ1+4DK999uW3puBaZESExo9+RGf0622a7orLLlJGxnG9OPt1Y5vKzy/Q5Kef19w3XvY5BDagfx+jRar9vnDl5Re7bJ+6/0CKXpplDq7de+ctuvqqyx1av1019BLtTkrWY2Mn68C/NwLXJ27U5199p6uvvMyn9fbWcy/ONgXX2rRqqacmj3UarLz9lhv08itvGOG0oqIiTZ3+oj5451WjTVS3Lh0VHBRkBDLWJW7U+eee4/L1V65ea/zdrGlj7dyVpN1JyUpPz3DZamvnzt2mKmW+3vAvs2jJMqUePqLIiAiNGzXC6Xe6cvVaPTr6CRUWFkqSVqxaq+Q9+5xW2fzgk8+N71EqDT7NfP4p1bELnlxz1eX68psfNGPmq3r1tbcVaXNcCg8L8/n9dOzQzjinrFmbaAqvVeTxu4wvrQynTn9R2Tk5GtC/j0Y9+qBiY6JNz9995y2a/NRzRitwSfri6+9dhtc++OQLU3Bt4Jn9NXrkQw430u+781aNm/S0sd3t2p2s6TNe1pMTR0sq3ael0iqItuG1jh3aOm0/Wx5bt+/UW+98YIwDLBY98tC9uvSi8x2mvfrKy7R56zY9NmaSjh5LlyQtWrJcv/w+z+3+JJUGUiY/9ZxKrFYNvfR/uu+uWx1a8t1564166LFxxjVQYVGRvvvhF911+80n9R6l0oqkI8dOMs69MdHRemrSWMdzyG036bc//9aT/66r1WrV08+9pNatWjjsV99+/7MpANWhXRtNf2qiYqLN2835Q87RLTddp0dHTTCqpx7PzNTHn32le+903g6yqsx5411TVbGunTtq2pTxDhUQh156kdZv2KSRY55wCKO5qua5Zl2iPv7sK2McFBSksY895PRa9tphQ7VmXaLGTJhqXG/+9sdfOuesM9S/by+f3ltCowbG/jJq/JOm7+7Rh+512d6zsKhIk596zhRcGzRwgEY98oDTUNPtt9ygiU9OM64Rjh5L1wsvz9FTk8b6tN6xsTHGettXMLt9+PVq0bypV8v5/KvvlJ6eod49u2ncqBGqFhdnev6OW27UZ19+q5dswu0fffqVz+eyH3/53RRc69enpyaOHem0muZ9d92qL7/5QTNnv64Sq1VFRUV6ec5bevWl6T69dpnjmZl6avqLpuDasKGX6J47b1GQkzaStw+/QY+NnWRca+7Zu09vvvuh7r/7No+v9c33P0uSzj/3HI144G6H4/xdt9+sV197Wx/Z7AOvvfWezhs80Kf2pFLpdartv7NioqM1YcwjTr+z9PQMPT/zVeP8lZubqyenPa+35rzk9Hy5fccujZv0tBFcq1+vrqY9Od4h7HbvnbfovQ8/M6q15ucXaNykp/XRu68pNibadO6/6fb7jOsk2+v7ilRYVKRFS5Yb49Ytm/u95T0AAAAAAAAA+Ir/molK17e3uerZcjfV11asXGPcZImOjjLdlOrR/UR4ylP7UdsKb+Hh4V61XElPz5BF0vSpE50G16TSaiw333iNMS4pKTGCVfbKgmhl7r/7NqfBNUkKCQnR4yMeMIUFVq1Z77K1XWX67sdfTeN77rjFaXBNKq1c9OSEUapXt47H9leStGDhYlOL0ebNmmjqpDEub5pGRkRoysTRamxTSW7VmnVO2/0cSj2sb3/42RhHRIRr5vNPOQTXysTXrqXnn5msXj26Go8tXrrCaWvSsoCbVFo5Y8zIh50G16TSG9I3XjdMl19yofHYkmUrq+S7LJOenqG6deL13NNPOA1ASaUBA9uQ546du7X/QIrDdHn5+Xr3g0+MscVi0fSnJjoE18rExsZo4phHTdU1diclO+wf/jD3g09NFXWuu/oKXTtsqMugT5PGCZr25HhTyO79jz+v1PZtO3bu1vyFi41xjRrV9cL0J11+b8FBQXr4/rtM2/G+/Qf0h02YNCwsTJ06tjfG69a7bmuVl59v7F+NGjbQwLPOMJ5z1zrUNvBmsVjUu2c3l9N6oyy8N3XSWJdhxO5dO5v2M0latHS5w3RFRUX66tsfTev31KSxDsG1MkMv/Z9uun6YCouKqqSFpa2iQt+2tQgf2o2mph5Wx/ZtNXnCKIfgmlS6rY18+F7TsW/ZilVOwzr79h/Q6/8GeCWpVYtmmjh2pNMKMNHRUXpq8lhTmGTe/H88tn2uCG+9+6Ep2HHnbTc7Da6VadOqpaY+Mcb02Lvvf+LV+e9Q6mGdN3igRjxwt9OwRnR0lEY/+qDpscXLVnhcrjdeeHmOaVueOHaky/DzueecpZuuv9oYFxYWmio3lvnjL/MxfPTIhxyCa2ViY6I1btQjpmPtwkVLyvUeKltmZpbmzf/HGMfGRGvqpDEuW/d2bN9Wox55wOG7z83Nczr9mzYhSUl6+P673P4Io0unDpow5hHTY2/bVQj0h19/n2eqmNWxfVtNHDPSZTWu2JhoTXtyvOJtfqQyf+Fij+3FK1t6eoaaNik9p9sH18pcNfQS0zXjmnWJyjie6dPrrV673vg7LDRUE0Y/6nJbCggI0JWXX6zrr73KeGx94kbTjyZ88dkX3xrhR6k0dPjAvXc4Da5J/14XT5tsWs+vvv3Rq8+gqKhIPbt31djHH3Z6nA+wWHTvXbcaFbWl0u/E1b+hPMnJydX7H39+YvkBAXr26Sdchg3j4mI1efzjpqD4tu07tcDmequM1WrV1OkvGMH4oKAgPTPFMbgmlV5P3HT9MA0eeKKKWnp6hn757U+f3tfJ+uSzr0zbjbtjDAAAAAAAAACcagivodLZVz1z1zp06YqVxt/dunQy3ejs0a2z8be7AFzynn2mqkU9unVWcHCwV+s6eNBZHtsZDuhrDuls2LTZ6XQJjRpo4Jn91bFDOzVsUN9jgC4iIlxn2IQ0ioqKtCsp2av1riglJSWmG8rh4eG66IIhbucJCQnRsCsudXjc2c38n379wzS+9abrjOpQrgQHB+u6YVeYHvvlt3lOl13Wzk2SrrnycjVq6FiBybTsoCCNfexhU5Dgx59/c5jO9uZf9erVFRrquUrE1VdepicnjtY7r83UT998XOVte2696TqPrZ/sA2gbnYQEFyxcbKqwNWTQ2epsE4xy5cH77jC1Dfv5tz/cTF3x8vML9KdNxaiwsDDdcM2VHudr1rSx6XNJT8/QCg/h2ZPxs90Nz6uvvMxon+iKxWLRzTZhE0n69fe/TOM+vbobf+/Zu89lKGvd+o1GpZGunTuoq81xy114zfZGfds2rRQbG+N2nZ2xrw5yRr/epuO+M2ed0dc0tq3cWSZx42bTNtu9a2c1b+a+JdcN11zp8XP3h7IWbuVW/sJrkqT777nd7TE5JjpaXbucaBGdn1+gXbsdz1PvfvCJ6Xh80/VXuwxMSKVB5Uv+Z24fV5n7mVTaOm6JTdixWlycrhp6scf5OnZoZwp+7dt/wNRm25XgoCDdd/etbqdp3qyJqS327t3Jvm8D/9q5K8lUsa5929Yew6VXXXGJaX+0v26zWq1q37a1BvTvo3ZtW6ttm1ZOKx7aSmjUQK1atjDGe/cdMNr4nQoWLV1uCmKeN3igyzBembMG9HP5owRbB1IOau36Dca4bp14XXyh+2srqbSCpe2POLZu36nkPfs8zleRfvzFfK6+/ZYbPFZyCgsL0zC7CqW/2J2TqsKdt97k8d8DZ/Q7cR1utVq1eYvnfdsZ2xbA0dFRioz0HCi+/JILNWnc43rr1Rf1y7efqmaN6j69tlS67j/aXHNbLBbdccuNHuerWaO6/nf+YGNcUFBgOn64c+etN3psoWx/jF26fJVXy7Y37++Fph+F/O/8c13+WKWMxWLRiPvvMoUX7f9dIpX+kMX2hzbnnH2GmjR23V5Ukq4ZNtQ0tg30+8u8+f+YQuMNG9Q7qbasAAAAAAAAAOBvhNdQ6Vo0b2oKraxYtdZU6aSM1Wo1VVTr3tXciqxDuzZGaCgt7ah2uwh22bcM7WdX+c0dV20SbcXHm1ue7t/vWJ1Kkm68bpienDhar740XZ+897pXYY4mCY1M44wM/1b92Z20x1RhoXvXTl4Ftc60C5BIUnZ2jmlcXFxsupkTGRHhdfurMwf0NQUZ16xb7zDNMrsbYBfa3Hxzp0aN6urf58Q2ssxu+5FkqtC0OynZYRtzpn69uhp4Zn+1bNFMUZHOK8v5S3BQkM4a4Pgd2atbJ9403n/goMM09lUPzx/ivl1embDQUA0ZfKICxNp1G0xtyCrbusQNpqBEvz49vQ4nDTyzv2m8Zq3j9ldRlthVWhriZdWMjh3amdoXr0vcaAoP9e7Z3TT9OptWq7ZW2oRUunTqqNatWhg3+1evdR5eKy4uNlVz62P3Wt6KsAtXnj/EcytN+4BqysFDDtOstvu+XFVysxUeHq5BZ59peqzg3yos/lRU5LwFoSe+HHMaNWygtq1bepyucaOGprH9Z15YWKgFC0+EoENDQ9Svj+fz8AXnDdLIh+/V05PH6fVZz5vC3JVh1er1pmuRgWf197p93cAzzzCN16zb4DBNaIi5OmfvXt1dVnyy1bBBfePvEqtVhw6dXAW6v2yqiUkyVVN0JSY6WqMffVATx47Ui89O1dOTzS0fLRaLHnnwHuO7emP2DBdLMrOvXFTWfvVUYBsuk6R+XlyfWCwWp9c/9uyvGc4ddJbXrfzOOct+W6u884+93NxcbbA5V9SqWUNdO3d0M8cJDutdiedNb0RFRXpVEbReXfN10D4X1/ie2P5b4fCRNP3510I3U5eqVbOGBg0coNatWpx0eDp5zz6Htr62wVh3zrb77lavXediyhMaNWyg1q1aeJyuZ/eupmq26ze4rgTrjv2PmP7n5TV/eHi4zh10ljFeuXqtEdgv8/uff5vG9tuyMy2bN9XD99+lSeMe16wZ0/Tw/Xd5tT4VoaSkRO+897EmTp5mnNOioiI1ZeIYr/4NBwAAAAAAAACnCsJr8Avb6msZGcdNv2gvs3N3ktJsWp3YtpaRSitwdepwosKTq9ahK1atNY1tKw65Y7FY1LG983ahtuxvOJ5sWx9b9i2FiotLXExZOZL3mit6tGzuvgpdmVo1a5gCis7sTt5jCit1aN/G65u3kRERamQTmNizd7+pdWNJSYlpm2rUsIGpZZUnLVs2N/5OSTnkUA2mnV01h4lPTvcqwHaqaNGimceqa5IUFGiujHT4yBGHaTbbVLYKDg72qiVvmVYtTnzOhUVFplZklW3rth2mcacObb2et23rVqbxzt1JFbFKDvLy8kxVdRrUr2cKpHnSxiZ4VFBQYGr72jihoSmEuW69Y9hGklbatMjt0rmDQkJCjGomu5OSnVZs27J1u7JzToRV7att+sqbin5xcbGm8dGjxxym2WN3XGvlobpmGdtW1ZKUf5IVsHzhz8pUXTp5/rwlORxLjtltE9u27zRtD61aNHdbda1M/Xp1delFFxjVvJy1Lq1Im7eaW0R7c/4vYx/yc3ZMCAkxV3jyZnuWpGr22/Qxx226PFbZhYbatmnlYkqzC84bpHPPOUs9unVWY7tgva/sq0/Zh9yr0p499seJ5i6mNGvTynPgc7NdRciO7b0//7Sx39Z2JXk978naun2nKeDZsYP3+0jNGtVNlcN2JSV71V63srRr08qr45D9NM6ug7zRoZ35O35mxkzN/8d/rXIdjm/luOZp1aKZ6Qcjzqpr2uvQro1Xyw4ODjZVaTyQcsghPOYN22u6iIhwr49rknnfzs8vUMrBVNPzq+2qzHqzbIvFoisuu0iDBg5Ql84dVK9uHa/X52QcSj2sex8epTff/cDYVxs1bKBXX3rWY4VZAAAAAAAAADjVeP6v+EAF6Nu7p7794RdjvGLlGocAgW3lrNq1apqqj5Tp0b2LERpavnKNQ7vKoqIiU5WdVi2aqYaXbXeqV6/mU2tH27Y1nqQdPaaUg4eUmnpYx9LTVVRcoqysE+3snLVp9Kd9dmGimjW9b1lUu3YtHT6S5vL5g3Y3h7ytAFGmTnwtJSXvkVQaVtu3b7/RxufgoVRTa7WoqEinAUlXjtu0d5JKK23Y3vS58LzBev/Dz4xAxvHMTD382Hj16NZZ5517jnr36OYQojmVNHKyL3nDvl2d1WrVnj17jXFsTLRXNzXL2G8f+/Yf8NvNtf0p5ipy9et5bvVWpnbtmrJYLMaNd18rsXhyIMVcwap+vfLd/IyvXds03rN3v+k42rtnd33z/U+SSiuz2TuemWnsN40aNjCCc507tjdahq5Zl6iz7SrR2d7orV4tzmPrZW9Ui4vzKbzk7Hh8wK6CYHx8bYdpnGnqoU2YPxT6WO3Nl3NZgl1FNVcio8xV3eyPE/b7R127SkanCvuKcfXre7+/2VdgtQ9IOuN1AMyu6155rjGcsQ2xSqrUUEVKyiEdOnxYh4+k6dixdBUXFysn98T621c3O5XYhqlDQkIUFeVd9UL7bcGZFIdju/fXP/bHdX+Gvg8eMl+3Nahfvuu2+Pjaxg88cnJydSTtqMcfOlQWT23kXcnL8y20PGjgAL3+9ntG4DsnJ1djJkxRpw7tdMF5g9S7Z/eTagvqif13V55tLiQkRNWqVzN+UORNq1pv2ueWqVmjhnHtWFxcrCNpR03hek8KCgq0b/8BYxwbG6MdO3d7PX+6XVXrvfv2G+ufl59v+iFVaGiIVxUzq8LCRUs15ZkZysrKllRaZfmaYUM1/Iarva4iCgAAAAAAAACnEsJr8Ivu3TorODjYuBG/fOVqXX/NFaZpltqE17rZtQwt08OmGtvadYkqLCpSsE2VhA2btijX5kZpXy9alZWxr3biLU/hgu07dumb73/W4qXLlXrYtwoO/pJrd5MuNtb7z6R6tTi3z2fahPQkKa4cy5akanbLt72hn24XPtu0eatuvuP+ci3fVmmlmxOhqurV4jRu1AiNnzzNVCFixaq1RqW/hg3qqU3rVurUoa26delcrht5lc3Td+OKfWjieGaWqQrLkbSjJ/U5+3N/sK/wU57PJDAwUJEREcrKLr1BeDwz08McvrGtViWVBmrLIzbWHPay3+d69+xmhNe2bd+p3NxcUxWtVavXGQG9rp1PVNTrZFMxyll4bZVNO+BePbvJYrFL3/igPBXnbNm2Si2Tk2uuXhbnRQtnqTQwa6sqqkTZB8O8ZVvV0jY85E6tWjV9ei179ttxbIx3n7e/ld3wL1Oec5J9mCE7O9v5hDZ8PQ4XF/vWOrZMvt153f5cerJWrFqrH37+VStWrjG1HT/d2O5r5Qmje7PdZNltH+UJw9hfm2Zmed7WKkpmpvkcUp5rQslxm8/Ozqmy8Jq3P2SxZ38881ZkRIQmjXtMj42dZKo6vC5xoxEer1snXu3atlLH9m3VtXNH4wcZFeFkjm9S6XZXFuIqLi5WXn6+wkJDXU9fjuOKfUvUzMyscoXXjtttlykph07qWtS2omyu3fnyVA2uffP9z3ruxdnGNVuzpo019YkxTn/4BQAAAAAAAACnC8Jr8Iuw0FB169LRCKit37DJdCMkLy9PiRs2GdPbtwwt07xZE8XGxigj47jy8vOVuGGTunbuaDy/0q5laN/e3ofXwsPCvJ7WG4VFRXpp1uv6+rsfK3S5lcm+Rd3JR1BOsA9+2Ffv8STAYm4xahtIsb/BerKcVdoY0L+PXp35rGbOfl2JGzc7PL933wHt3XdAv/3xlySpRfOmuu7qKzR44JkVum6+CAuvmG37eAUHE/zZQCzH7gZ0qJubsM5ERIQbAYTc3Mpp5WgfgAkNKd862h/D7G/CduvSSUFBQSoqKlJJSYk2bNqiHt1OtMZcudqmZWinE8fVDu3bGPOtXmtup1VYVKT1NsfufuU45rpj33LxZNgf17xpHSeVtjezrbhXFS3vfK28Vlx0IvDkLNDnTFBgoE+vZc8+4BBWwefWimIfSrFvaelJYGCgESyzD0g6ExZWvv25sgRUQLhUKm0BP/np57V0+coKWV5Vsw1rV9RndGLZ5m2tPJURg4PNx0L743plst9HonzYR2zl5vlv3e1VRSWq7l07643ZL2jmK29opU3Iu0zKwUNKOXhIf8xbIKm0OuM1V12mC88bfNIhcPvApLeVBMs4fHe5uW7Da+W5prI/v5c3IJhZwT8gKLA5zwYHmdctOPjU+08l6xI36nmb4FrTJgl65aXpioos33cMAAAAAAAAAKeaU++/yOI/q2/vHkZ4rbCwUOsTN6pn966SpHWJm1RoU9HKVXjNYrGoR7fOxo2eFavWmsJry/5tKSqV/lq+dasWXq+ft4EGe65CFlOnzdDv8+abHqtbN179+/RSsyaNFR9fS1FRUQoOClJ4eJgCAwP148+/6533P/ZpPSqCtyEHXwQGmsNnKmcQpMRqXjfb+3q2VYak0ooXJ9OqztVNvratW2rOy89pd1KylixbqeUr1yhx42aHcIxUWnHviSnT9dffCzVpwihThcDTRWSE+UZ1UJD5ZmZwcLASGvnWikuSqnlZAasiWOzCj1Zr+bb14krcN8rYb8fljfd5WseIiHB1bN/WaK28bv1GU3ht1Zq1xt9dbCqvhYWGqmWLZtq0eat2JyUrPT3DqEy0afNWo6pMYGCgaXkno7zhwjL2QY+TZRtYO9kKWL6wrdhTHrlOjkmeVNRN+li7/brIxwBeZbPf38qbTbTa7G/exEx83TZ93RfK1KxZ3SHIcrIKi4o0YtQEbdm63fR4yxbN1LN7FzVOaKRaNWsoKjKytHJlZIQsFotmzXlLfy9YVKHrcjqw39ZKSkqcHO+dsz9XVURlS28FOuwj5dtJrHbnJEuF/iTCP6KjojxP5Eazpo310nNTtXfffi1etlIrVq7R+sSNTgNbScl79PSzL+mPeQs0bcp4t2ExT+zDyOW9vrf/rj19dycTfrYPynlivw+EhISoUUPfK45F2PzAIzIyQsFBQca/SQsLi1zNVmVmzXnLqIJssVj0xNjHCK4BAAAAAAAA+E84/dIUOG317d1TM2bOMcbLVqw2wmvr/22hI0kJjRqoppv2Pj26djHCa8tXrtadt94oqbT61pYt24zpevfqVuHVM5xxVs1h5eq1puBagMWiB++7U5df+j+36xQdE+3yOX+IsAsrledml6cKQdFR5vdW3pvp1hLzjTTbG/rhdpXFWrdqoZnPP1Wu5ZdHk8YJatI4QdcOG6qSkhLt3JWktes3aME/S7RmXaLppt/8f5bozXfe1923D6+09fHE25vk9uwDnfaVvWpUr6a5b8zyeb38KSbGfAM6v6B8gRrb1nsnc0PZnZho8z7irAKgOwUF5qBTWKhjxas+vXsY4bW1iRuMx1NTD2vvvgOSpEYNGzi07ezauYM2bd4qydw61LaaTMf2bctd3aWihYY6Ho/tK14VFRV5FVa2D45VVsW9yuBNxbZQu3OXs+3FGxF2x4X69eqYxvkFvgXwKpv9/paTk6NYL8/BJVarqYXyyQbM3Ak5yUBm/Xp1lZS81xgXFBScdBWqr7790RRci4yI0IQxj6p/315u57M/V59KIiLCjepr5Qmq2rYSd8U+AJWbm+fQOtEV+/CM/X5bmaLt9pHsnPJVTisqNl9DOjs++0uoj9U8K6oiZcMG9TWsQX0NG3qJSqxWJSXt0dr1G7RoyTItX7HadDxZsWqNZs5+XY+N8L0Vpv02Z98G3hP7fcBT5cjynB/tz63lvaayr+ZZt07tCrsWtVgsqlevjpL37JMk0w+rTgUHD6Ua12KS1KdXdzVr2rjqVggAAAAAAAAAKpBviQbAB3XrxKtxQiNjvGLVGuPvdRtOhNdcVV0znu924vmt23Yo499WhqvXrjfd/Clv+zpfq445a//0y+/zTOOrrrhUV1x2kccwXVraUZ/WoaLYt4RKz8jwet7Uw0fcPl+tWqxpfPRoutfLlqSjx8zT266rfcWBiq4y405AQIBaNG+qKy+/WC/PeFpz35jlUPHv0y++9es62auobTsiItxU8SIrq+reU3lVi4szjcuzrxUWFpq+v+iYk6vE4kq1anGmcdrRY+Wa336fsg/sSVLvHt2Mvzdt3mrcmLVtGdrVpupamS6dTjy2Zt2J1qFrbNqI9u7ZvVzr646vle7Cwx2Px/ah3PSM414ta/+BFJ/WoSKVp72grUOp7o/HkmMoKjPLt/bL9kHA+vXqmgKzR46k+bTcylYtzv6c5P3+dsxuWq9Cmz52nY0oZ6tGew0bmCsSebNtePKr3TXOw/ff5TG4Jknp6d7te1XB9joiPd37a5/DXmzf9sd2++sZd+yntQ+UVSbHfaR816jHjpn3k8gqrA5V3sB6mYpqu24rwGJR0yYJuvySC/X8tMn6aO5r6tShnWma7378VUdO4t8Ejtuc79cTAQEBHts/px/3ft/OzDSfa7wNDZeJs6vuab+8k9Wo4YmKwseOHquSqquuJCXvMY3LfgQGAAAAAAAAAP8FhNfgV3179zD+3rkrSUePpauoqMj0K3JP4bU68bXVoH49SaVtbVatKQ1dLLdpGRoYGKiePcr3H/SdtfDxhrMKPtu37zKNL73ofK+WtWPnLs8TVaL69eqaxt7e5C4uLtaBlENup2nerKlpvP/AgXKtm22QxGKxqG6dE21B69c3hyWS9+wrd3uritKsaWPNfvEZ082vwsJCrbIJB/lbeSt4lbGv8BISEqI68bWNcVZ2drkDVlWlebMmpvHeffu9ntd+264b73tLWnfia9cyVePZt798+0jKwYOmcR0n69m0SYJq164lqbT6ybZtOyRJK2wqqHXp1NFhvvbt2hjh29X/Btby8vO1YdMWYxrb4/vJyvH5eOxYJcf2WCGVVi7xxvYdVXs8lpyH8TwpKCgo1/ZdxtdjZqRduCo4OFgtmp843ift2Ws/yynB/piwpxyfmX2wsV7dOi6mPMHXAPPJVn5q16aVaezLtmHLarWa9o2wsDANPudML+fbeVKvXZlsv8PCoiKvA85lFSvdad7Ublvbu8/r9TqQYt7W6tSp7WLKime7H0vevVdbtvtJSEiIatasUSHr5Qv7yqTesq84WxkaNqivl55/Sq1aNjces1qtWrp8pc/LdDi+7fV+v8/NzdWx9HRjbP9vA2dSUg56nKaMbeAzODi43NtFWFiYathU6D56LL1Cf0xhe8wssVq1b3/VB9nLNG/WVE9PHmf8r6wKLgAAAAAAAAD8FxBeg1/ZhxuWr1ytrdt2GC1kAiwWde3sGJyw16NbF9MyJGmZTXitU4d2iowoX7USX6tTOXsd+5vU3tz4SU/PMFU/qgr2FVo227RhdWfbjp3Ky3PfMig2JtoUfErcuMWrdluSdCw93XQTtEnjRqYqEMFBQWrTuqUxzsvLMwUi/S0sNFQ3X3+16bHyBpEqkrefs71gJ222OnZoaxqXhUdPdW3squGts2lV7MmGTZtN47ZtWrqY8uS1anHi5nXKwUNKTT3s1XwlVqs2bjqxzYeFhalJ40ZOp+1lE+xdu760dajt99jFSeW1qMhItWjRTJK0OylZ6ekZStyw2WhPWbt2LTVtkuDVunqjqMi3Sif2VRglqVFD83HNtt2hO0uWrTCNC7xoxVnRatnd1PemOtq6xE0+7fPZ2b4FBgOdhKs6tj9xnEjes8+rSlbp6Rm67OqbdeNt9+qeBx/T3A8+9Wl9vGV7zpDKeUywO7+0tQuIOVOR1V3Lo6NdRSfbyonuvDjrNV194+267e6H9dDIcUaYKzs7x/Re6sTX9qoN7/oNm06qklRla2h3nNjmZdCu7BjqTpvW5vOPN/OUSdxoPv/YhxErU726dUxVBRM3bPI65Lp33wGjMrIktW7Z3GP14crka3gt0IttuyIEBwXp1puuMz22r5xhQVutWjQ3VcpN3LDJ63ltQ+mS47FScmxDut7L5RcUFJjCmwkNG/jU2r5DuzamsW0L85PVob35OtfbY+boCVN0zU136vZ7R+jR0U9USsW2mjWqa0D/Psb/atqE+AAAAAAAAADgdEd4DX7VqUM7042wFSvXmG54tGzZ3Kv2Wz1sWocuX7FaB1IOKsWmOpI37avs2d+I8ZazSj8hdhWrvKl89d5Hn/l8o6OiQhVNmiSY2vesXZeo45mZbuYo9dMvf3i1fNvwYl5env5asMir+X77c77L5ZQZ0K+PafzdT796tWxJev3t9/T+R59p+45dDjdmV61Zpzfefl+Pj5us5196xetlNmxQzzSu6OBLcYn320pOrm/btrOqT2f272saf/+j95/z5199pzff+UAbNm3xOcjhq8YJjUzhycVLV5gqi7jz+59/m8Z9y9mSuDz69DK33vzxV+/2rSVLV5hCs716dHV5Q7iPTXvPdYmblJS8xwimNGrYQDWqV3M6X2ebEMyadYlas269Me7bq+JahkryGIZ1xVmQyrblqSTN+3uhx+UcSj3scHzyNfxwMuyDz/Ytw5z57sdffHotX88/EU6OEwPPOsM0/vm3Pz0uZ/Xa9UpNPaydu5K0LnGjrL722fRSuzatFGPTgvGv+f8o18tjpf0xwZs25b5fY5xceKZmjepq37a1Mf71j788ftdWq1X/LF6mvfsOaPPWbdq8ZZuq/XtcCA0LNU3rzb5qtVr1znsf+7D2/tO5Y3vT+K/5nq9PsrKzteCfJR6n69q5o0JDT1wX/j5vvtGy2Z0Sq1V/zFtgjC0WS6Wef5yxfb2jx9K1ZJl31cAczpt9Kn69y1Mt0tcKtJE+hEcTN27WW3M/1JgJU/Tk0897PZ9txV7p5K4bo6IiTQGvTVu2adfuZK/m/c2L45v9NdyOnbu1O8nz8petWG2at2sXzz9Ycsb+mv/7n37zet6PP/tKb839UJs2b1WJk22oY/u2pspuP3lxHZadk6Oly1dpz9592rR5q46kpTm9HgEAAAAAAAAAuEZ4DX4VEBCg3j27GeMVq9eawms9PLQMLdO1c0ejgsOh1MP68psfTM/70r7O1+pUYU5aCsXXrmkar/BQEeC3P/7SZ19+6/B4RsZxp9PbB+bSMzxXtfFGgMWiXj1OfD+FRUX68JMv3M6zOynZ65tGl9i1T3177kcewwJZWdn6+NMvTet40QVDHKa76IJzFRZ64qb6T7/84VX1tZWr12ruB59qzptzdfMd9+vlV94wPT9/4WK9+8En+mfxMn3z/c8OFSlcWbh4mWlc1urWV/ZBpLQ079t1+hpKcXbjrV+fnkbbSak0cPL7vPkO09lL3rNPr77xjt55/2Pded8jGvvEUz6t08mwbd9bWFio19963+M8a9YlasWqtca4cUIjU1Wpinb+ueeYwq+ffvGNUg+7b99bWFSkd983B0Muu/gCl9N379bZ+G7Xb9hoen9dnVRdK9PZJgRm/7n06XXyLUODgk+EdAp9vGkfHu54PO7Qro2pItu6xI1asWqNy2WUlJTo2RdmO5wTgoMdKxFWNvsqS3/+5T54t3zlaq/Cec7k+BgYdFahsUO7NqZj3oeffOk2LFpQUKB3P/jE9Ng5dgE4e8ePe65C505QUJAuOG+QMc7Kyvaq2tvfCxZp2/YTVbk6dminhEYN3MxRqrDIx226AtoWnnfuQOPvtLSj+tTJ9YatH376TSkHT/wg4Oyz+hvXXMFBQaaA68FDqR7bSb7xzvtO97n8KgiEutKrR1dTZbDf583XAQ+tEN9690Ovwnvh4eEaPPAsY5yWdlSffP61x/l++vl3U9XZPr26V0qlJXftv+3b3r/xzvsej89Hj6Xr86++M8bBQUG6YMggN3N4x75um237SU98vcYPDCh/AGnJshV6e+5Hmv/PEv3y+zwtW7Ha80ySFi5eahp7U7XZHftr7ldef8dj4C8peY9+++NvYxwXF6sB/Xt79XpvvP2+2+VbrVZ9+sU3psfOPKOv84k9GHhWf9NxaOnylVq4aKmbOUrt2Llbr731nt6e+5Fuv3eEnpgy3WGagIAADTnnLGO8cdMWzfcQUn3vw09NAfdzzh7gdvq8/Hyj6nh5ZOfkKOXgIeN/3vzACAAAAAAAAABOF4TX4Hd9e534BX9a2lEtXnqiNVs3L8Nr0dFRatXyRBumL7/+3vi7Qf16Du0vveFrVQZnbANgkjTr1Tedtss6lp6uZ1+YpUlPPaeAgAANv+Ea0/MLFjm/WVLdrjLSDz//5nUVKU/sb3Z99MmX+vKb751WJ1izNlEPjRynwsJCVa8W53HZzZs20eCBZxrjPXv36ZFRE12Gc1IPH9EjoyaYblBectEFToNgsbExuvnGE59fSUmJRoya4PJmlvXfiiajJ0wxHgsLDdUVl19smu5/559rtF4qKSnRQyPH6ctvvndZNcVqteqnX/7QBx9/bjwWHh7uUFGrvOyrYX3xzfdeVwnK8bEdYFSkY0vcoKAg3X/3babHpkyboW9/+MXpNiKVVq+7/5HRxo06i8Wia6663Kd1OhlXXHaR6cb/dz/+ollz3nJ5I37VmnUOIbt777zF1IqrosXGxui6q4ca48zMLD00cqzLiiaZmVma+OQz2mTT4rdHty6m1sr2IiMijABeZmaWKfzbpZPrKiidO52oTLRk2Uqj/WZwUJC6d+3k4Z15Zhs+9eWmrishISEOYb6xE5/SvPn/ONxoP5R6WKPGT9GSZSvUuWN7U1voULuKmv7Qs3sXU0D619/nOa1iVmK16pff52nsE08pICBAre3a5HqjsMC3cJWzz8ViseiWG681xsfS0/XQyHHau2+/w7RH0o7qsbGTtXNXkvHYmWf0dTiPx9hUBZWk5StWed0C1pXrr7lC0dFRxvj9jz/Xux984jLwu2jJMk2d/oIxDrBYdO+dtzid1j7YXpHXGOV1wZDBircJHb/62ttOz+slVqu+//FXPWdTZTQoKEhXX3GZabrePc3ns2een+k0xLV33wE9Nnay5n7wqWKio3Wl3fn1H7uQd1WqFhenATZBmoKCAo0c84SS9+xzmDY/v0CzX3tbn335rctKlfaG33iNaZt4/c25+vTLb12eN/+Yt0DPz3zVGAcGBuqu22728t24V7OGuR3xh5984bIaaqcO7Uzh5G3bd+rxcZNdXnMeSDmohx8bZwrVXH3V5V5/Tu7UsAvuffH1915XxPS1Am2kk+sgTy4YMsgU/h81/kl99OmXbs9r8+b/o9ffes8YBwcF+RzsKjN44Jlq3rSJMV6ybIWmTJvhsgrktu079cioiaag3x233OhQTdqZ0NAQzf9niWbMfNXp+ywuLtbLr7xhasHZpHGCOtm1NfZWcHCw7r3zVtNjE6c8ox9/+d1lgG75ytV6cORY45ovwGLRtS6uRa++8jJTy+ZJU6frr/n/OExXWFSkd977WB98fOKHPjHR0br4wvMcpq0WF2f8XVRUpA8++dxhGk9++Pl3XXHtLcb/TvWKlgAAAAAAAABQHifXiwjwQe9e3RVgsRg37MpukgQHB5erolGP7l20eWtpYMM2SORL1bWKdtEFQ/T+R58p43jpzbsDKQd13c13acjggWpQv66OpB3Vtu07tXrteuMm+f1336b+fXrpHZsKSouXrtC4SU+ra+eOatignhFIad2qhUJCQoybdikphzTs+tvVqWM7WSwWFRYW6YXpT/q07p07ttfAM/tr3r83aUqsVs2YOUeffvGtunbpqOjISB3LyND2Hbu0Y+duSVLb1i3Vt09PvfnOBx6XP+LBu7V563bt219aqWVd4kZddf1t6turu5o2aaxq1WKVm5uvrdu2a+HiZaZgUcsWzXTfXc6DApJ03bCh2rBxs3FDPDMzS6PGP6lGDRuod89uqlMnXpJ05PARLVm+yiEQ9MiD96he3Tqmx1q2aKbhN16jt+d+JEnKzc3VjJlz9MY7H6hPrx5q2bypYmNiVFRcpH37U7RoyXKH1n733jncVPnJF/YtzTZt3qorr7tNHdq3UV5evmrWrK6xjz3sdF5XN8c9sTjUOSk18Mz+WnfZRfri39BoUVGRps94We9+8In69e6penXjFRwcrKPH0rVy9VqHCnjDb7ymUquXuRIeHq4nxj6mhx4bZxx3Pv7sK/3y2zz169NTDRrUU0R4mI4dy9Cqteu1PnGjaf5hV1zql+PLTddfrVWr1xlVKZP37NMNt96rHt26qFXL5qpVs7ry8wu0KylZCxYuUXbOiXBirZo1NG7UCI+v0btnd+Mmsm2gqIubymsx0dFq0jhBu5OSTRWJunTu6LQC5ankpuuH6e+Fi4wKUdk5ORo/6WnVrl1LLZs3VUhIiFJSDmnr9h0qKSlRbGyMxj0+Qjffcb+xDNu2f/4SHh6uS/53nlGtpsRq1ZRpM/T5l9+qfbs2Cg0NVdrRo1qzboNSUw9Lkm656VplZ+eUO9gVEFCxocxzB52lefMXGsfjHTt369qb71K3Lh3VtHGCLAEBSkreq5Wr15rCEnFxsXr4/rsclhcZEaFWLZtr67YdkkrP+3fe/2hpO/LICO3cnaxP33/DYT53qsXFaczIhzR24lTjOPnG2+/r2+9/Vp9e3VW/Xt1/P+NjWrlqjSkkKkm3Db/B1JLTlrOW4lUlNDRE40aN0IOPjFGJ1Wqc1z/+/Gt169xJsbExyjh+XKtWrzNVXJOkW2+6Vo0TGpoeu3bY5frl93nG9cuadYm65ua7NGTQ2aoWF6tDh1KVuGmLcewPCgrS5AmPq6Cg0FSR68OPP1dOTo4SGjVUx/Zt1aJ500r+JNy767abtXTZSuXllwYNk5L36vpb7i7dZps0VnFxsQ4fPqJVa9crK6u0TfO9d96ql1990+MPCOrE19bIh+812kiWWK2aOft1ff7Vt+rdo7vq1auj4KAgHUlL07IVq7V9xy7T/A/cc7uaNW1cIe+zU8d2+vq7H43xj7/8rrXrN6hF86bKyDiuXj276YZrrjSeH/3oA7r17oeMHxIsW7FaV1xzi/r27qHGjRspLjZGOTm52rRlmxYvXWHanzu2b6tbb76uQtbb/jpo+crVuvK6W9WuTSvl5OaqUcOGGvGA47FDkqwllduG2FaD+vV07123aubs1yWVBiFnv/a23n3/E/Xu1V2tWjRTtbg4FRcXa3/KQS1dvtLh+77lpmtPuspeYGCgJo4dqbvuf9S4Tvjl93n6Z8ky9evTU40aNlB0VKSOZ2ZpfeImrVi1xhT8GnjWGbr4QsdKx87ccuN1eu2tufrq2x/11/xF6t+vl+rXq6uw0FAdSj2svxcuUkrKiWNLgMWiRx68+6R+DDBk8Nlav2GTvvn+J0mlodKnpr+oN9/9UP379FTduqX71NFj6Vqxco3xb8Yy99x5i8ugd40a1fXgvXfo6WdfMpY9btLT/wbu2ioyMlJH0tK0YuUaHT2Wbpr30YfuUaxd2Foq/QGAbQXKt+d+pAX/LFGD+vV05EiabrxumPpVQntdAAAAAAAAADhdEF6D38XGRKtd29ZK3LjZ9HiHdm3KFQ7o0a2z3vvQscVX396+/Yf/wAq80RwVFakpT4zRyNFPGDdBs7Kz9eU33ztMa7FYdM+dtxgVSc4bPFC//D7PeP6v+f/or/n/6KqhlxjhtajISF195WWm95+dk2NUsWverIlOxuOPPqCDqYdNoaP9B1JM7avK1K5dS1OeGKO/Fy72atkx0dF6ecbTenzcZKP1WmFhoeb/s8RtW54e3bpo0vjH3YZkAgICNOWJMZrx0qv67sdfjMf37N2nPXsdq6eUCQ8P12Mj7tO5Nm2CbN1603WKiY7Wq2+8Y1SUyMzM0m9//KXf/vjL7frcd/dtuuziC11O461GDRto8MAzTS06j6Wna8G/n9kZ/Vy3dfI1OJeb57pSyUP33ano6CjN/eBTo2JLauph0w1xe6WVY27StcOGupymsnXp3EHPTJmgSVOfNSrDHEtP1w8/u259G2Cx6Kbrr66wG/CeBAcF6dmnn9DEJ6dr6fKVkkor+i1fuVrLV7puP9aieVM9PWmcVze8e/fqplffeMf0WKOGDTxWx+nauYND6LP3SVYVdKqCi9uFh4frxWen6pFRE03h0tTUw0boq0zDBvX09ORxqls33vS4fdUff7n15uu0ZNlK0zFs6/ad2mrTurLMBecN0vAbr9U7731U7tcJDPLtktBV5SOLxaJJ4x/X2IlTtXT5Kkml1StXrFprajlrq27deD3z5ATVqlnD6fO33nSdHhs7yRgXFRVp1Zp1Pq13mQH9+2jShFGa+swLRvWw1MNH9O0Pv7icJygoSHfddlO5Kkg6a8PsT107d9TEsY9p6vQXTMH3H1KcH/ssFotuum6Ybrj2KofnGic00qMP3aNnZ8wyQn+pqYf1/kefOUwbGhqiiWNGqke3LiouLlarFs2MbbfEajUqP4597OEqD681bFBPk8Y/rnGTnjaC8+622csvuVBDBp+t198+UTErKzvb5fLPGzxQJcUlmv7CLGP5KSmH3J43Q0JC9NB9d+qS/zlWcvLVWQP6GUHkMrbXePYh5ho1qmvWC9P0+LjJSkreK6m07eG8+f9IbrqGD+jfR+NGjVCwj8cWe+3atlavHl1NbTiPpB01rh1rujhuSL5VUJPkVVtYZ4YNvUSREeF6afbrRqWz7Jwc/fnXAv351wKX81ksFt1603VO9ztfNG2SoJnPP6XHx002KkBnZWXr199dX7tKpe1iH7r/Lq/DZT26d1FUVISee/EVHUtP1/c//upy2gCLRY88dI+6dHIdlvfWIw/erejoKH348eemY9FX37rep4KDgnT/Pbdr6KX/c7vs/51/rrKysjV7zlvGsncnJbushBscHKwRD9zlsmXoZRdfqC+//t4Udtuxc7fxQyBXFT8BAAAAAAAA4P8L2oaiSjirXtStnG3nnIXdwsPDTa3tyiPcx8pBrm5Udu3cUW/NedHUbsleu7atNeuFaaa2NaNGPqhrhw11CBzZh7ZuH369brxumNN2Prbt93wRFRmpWTOm6abrh7kMPgUHBemC8wbp3ddmKr52LcVERTmdzpnatWrqjdkz9OC9d3hs8dq+bWtNHv+4Xpj+pNNKBs7W6/FH7tfsF59Rn1493AYG4uJiNeyKS/Xpe6+7DK6VufLyi/Xx3Nc1bOgliouLdTttWGiozh10tj56d46GDb3E4zp7a9TIB3XxhecpIMDx0O32O/cxCJSV5brdqMVi0W03X693Xpupcwed7batVGREhC44b5Dee3N2lQbXyvTu2U0fvjtHw6641NQy0F5ISIgGnnWG3nn9Zd02/PpKbRdqLyoyUs89/YSeGPeYWrVs7nbapk0SNPLhe/XWqy86BK5cad60iUPIraubqmtlnLX46uvmGOcrXwOXZdWQnKkTX1vvvj5TIx64S+3btjYFKkJCQtS+bWuNeOAuvffmbDVpnOAwvzetkStDZESEXnnpGZ01oJ/LaRIaNdDEsSM19rGHFeBkO7WtzlfR3C07LDRUzz49SaMeecDtsT4uLlY3X3+13ntjttvqUv369NSE0Y8qNjbG4bmTqYw38Mz++ujdObrowiGmVnH2wsLCdN7ggXrvzdnlbn0cEe56ue64C0OV16CBA/Tem7N0ztkDFOQiUGSxWNS7Zze9OvNZ3X7LDS6PexdfeJ5efG6q2rZp5XI5/fr00ruvv2y0PwwMDNQLz07VkMFnKzg42DRtVVQ2dKZ/315685UX1N1NG/u6deI1btQIPfLgPZJkujZx1bKwzAXnDdKH77yq8wYPdHvejoyI0EUXDtGH77xaocE1qfQ66YXpT7psL+3serhB/Xp657WZuueO4W7PMxaLRV06ddC0J8fr6cnjTK2XK8LkCaN07qCznW6Xvl7Hu5PlY9t1qTT89Mnc13X9NVd4DD8HBwdr4Jn99e4bL2v4jddU6PVG61Yt9OG7c3TDtVe5DagHBgaqb+8emv3iMxr58H3lCh3GREXp0osu0KwXprmtrNu2dUu9/MI0XXrRBS6nKY+AgADdddtNevu1mRp41hlur0WjoiL1vwvO1QfvvOoxuFbm6isv02uzZ6hn964uv5PAwEANGjhA77z2ktN2oWViY0p/vOPsms5isXjVnhUAAAAAAAAA/sssVk93WQCctPT0DG3YtEVH0tJUUmJVXFysWrds7tCi0lZRUZFSDh5Sfn6BatWs4fRmvVRa/SJxw2YdP35cYWFhql+vjho1aug0wOCLwsJCbdqyTfv2H1BWdo4iwsJUr14dtW3dUuE+3oy3t/9AinbuStLRY8eUX1CoyIhwxdeupZbNm7l8397Kzc3Vlm07dPBQqo5nZik0JEQx0VFqnNBIjRMaOg2CeVJitWr7jl3auXO3Dh5KVW5uroJDglW9WjU1a9JYbVq3qNQ2illZ2dqwaYuysrIVFRWhhg3qq369upX2et4oKCjQ9h27tP9AitIzjis4OEiRERFqnNBITZokVFjllYpWXFysHbuStGfvPmVkHJfValVsTLTq1atrtJM8FaSlHdWWbTt0JO2o8vLzFR4WqhrVq6tVy+Yn3Vrs/6uSkhKjIk5kZITTG9NDrxmug4dSJZVW0nng3jv8uo72UlMPK3HjZmVmZau4uEhxsbFq3qypEho1qNL18tbeffv/PdanSyqtxNk4oaGaNm1crnNWcXGxNm/driP/tjGMj6+l5s2aVshxprCoSNu379S+AynKyDgui8Wi2NgYNahft8Je41SQm1va5jHl4CFl5+QqMiJctWvVVNvWrRQVVb7waMrBQ9q6bYfSjh5TYGCgalSvpnZtW7sNfObl5+vgwUMqLi5RfHytk26tXRmOpB3Vps1bdSTtqEpKShQTE63mTZuoSeNGFRIuKigo0LYdu3Tg3/NmYGCAYmNi1bBhfTVv2tgv1foOH0nTtu07lJubr9jYGDVtkuCxAqdUWtF2d9IeHT12TAWFRYqOjFTt2jXVqkVzt6HwipJxPFObNm9RdnauoqIi1TihoerE16701/WV1WrVzt1J2r5jlw4eTFVObq6CgoJULS5WTRo3Uts2rSo86OdMidWq3buTlbxnr46lZ6iouFhxMTGKj6+lVi2aVdh1fVraUW3dvlOHj6SpoKBANapXU6uWzb26Vl3wzxKNnjDFGN9y07W69SbvKt8WFBRo6/adSkk5eOJaNDJSTRIaqUnjRi5Du944npmpTZu3KfXwYeXm5Ss2JlrxtWqpTZuW5f7RUNm/ewoKClWjejU1a9ZYMdGef6ADAAAAAAAAAP9lhNcAAADslFitOvd/Vyo3tzTgNm7UCJ1/7jlVvFYAAPx3nUx4DQAAAAAAAABw+qJtKAAA+M87npmp9YkbNe/vhV5Nv27dBiO4JpW2ggYAAP4TYOE/VwAAAAAAAADA/wf/jd5HAAAALtx690PasnW7Ma5evZo6d2zvcvrCoiK9+ua7xrhtm1aKr12rMlcRAID/9w6lHjaNIyIrv50qAAAAAAAAAKDq8VNmAADwn9avd0/TeOKTz2h3UrLTaY9nZmrMhCnauGmL8dhlF11QqesHAMD/dyVWq36fN9/0WHRkZBWtDQAAAAAAAADAnyxWq9Va1SsBAABQWbJzcnTjrffq4KFU47GgoCCdP+Qc9ereVXGxscrMytLadYn68Zc/lJWdbUzXplVLvT77eQUEkPcHAKAiZefkaNHiZSosKtIf8xZo+crVpuc///At1atbp4rWDgAAAAAAAADgL4TXAADAf96u3cka8fh4HT6S5vU8devGa/YLz9AyFACASpBy8JCuuPYWp8/179tLz0yZ4Oc1AgAAAAAAAABUBcqIAACA/7ymTRI0941ZGnrp/xQWFuZ2WovFonMHna03Z79AcA0AAD/r2L6txj7+cFWvBgAAAAAAAADAT6i8BgAA/l/Jzy/Qhk2btWNXkg4dStXxzExJUnRUlJo2TlDvXt1Vq2aNKl5LAAD+27JzcvTRJ19q34EDCgwMVFxsrLp37azevborwGKp6tUDAAAAAAAAAPgJ4TUAAAAAAAAAAAAAAAAAgN/RNhQAAAAAAAAAAAAAAAAA4HeE1wAAAAAAAAAAAAAAAAAAfkd4DQAAAAAAAAAAAAAAAADgd4TXAAAAAAAAAAAAAAAAAAB+R3gNAAAAAAAAAAAAAAAAAOB3hNcAAAAAAAAAAAAAAAAAAH5HeA0AAAAAAAAAAAAAAAAA4HeE1wAAAAAAAAAAAAAAAAAAfkd4DQAAAAAAAAAAAAAAAADgd0FVvQJAVVq+crXy8vIlSWFhoerZvWsVr9Hpa9PmrTqSdtQY9+zRVWGhoVW4Rv9/5eXna/mK1cY4Pr62WrVoVoVr5B8lVqt27NilfQdSFBQYqFq1aqh50yYKDg6u6lU77S34Z4nxd1xsjDp2aFeFawMAAAAAAAAAAAAA+K+wWK1Wa1WvBFBVhl4zXAcPpUqS6sTX1pcfv1PFa3T6Gj95mub9vdAYf/HR26pbJ74K1+j/r5SDh3TFtbcY4/OHnKNxj4+owjWqfKvWrNP0GbO0b/8B0+MD+vfR05PHVdFa/Xf0G3ih8XeXTh0064VpVbg2QMXJzMxSVna2QoKDFRMTTdgVAAAAAAAAAAAA8DMqr6FSzJz9ulatXW+Mrxs2VOcOOrtcy1izLlEvznrNGHfr0kkP3HN7uZZhtVp170OPKzsnx3hsysQxatigXrmWA89CQ0OqehXgQmBgYFWvQqVan7hRIx6foKKiIofnyGcDsLX/QIp++uUPrV67Xlu27VBBQYHxXIDFoubNm6pvrx66+H/nKb52rSpcUwAAAAAAAAAAAOD/B8JrqBT169fVp19+a4z/XrCo3OG1hYuWasfO3cb48JE03Xf3bQqwWLxexs5dSVqXuNEYV4uLU/36dcu1HqeqEqtVOdmlobzQsFAFB7E7/9cVFxcrNzdPkhQeHuZ1KC0iPLwyV6vKPT/zVVNwLTgoSF06d1R4eJhq16pZhWt26svKzpasUnBwMAHU01xhYaHy80uDWJGREbKU41z5/0FBQYFeef0dffnNDyopKXE6TYnVqm3bd2rb9p368JMvdO3VQ3XrTdf95wPAAAAAAAAAAAAAQFUi7YJK0bd3T82YOccYr1qzXiUlJQoICPB6GctWrDaNMzKOa/uOXWrVopnXy1i+ao1p3LtXN5fht7CwMK+XeyrYum27brv7YUnS2Mce1gXnDariNUJl+3vBIk148hlJ0qwZ09Slc4cqXqOqt3NXkinkGhUZqTdffUENG9SvwrU6PRzPzNT5l1wtSbpq6CV68N47XE47a8aJNqFRUZGVvm4ov7fmfqT3P/pMkvTrd5/xPdnIy8vTg4+O1YZNW7yep7CoSHM/+FSbt2zXM1PGKySEcCcAAAAAAAAAAABQGQivoVLUrROvxgmNlJS8R1JpdZ9NW7apfdvWXs1/KPWwMa+tFSvXlC+8ZheA69e7p8tpg4JOr8oqmzZvq+pVgJ9t3rq9qlfhlLMrKdk0vuSi8wmueak8xxCCkqe+LVs5J7jy1LMvOQTXEho10JBBA9W2TUvFxcaqsLBQ+/Yf0Jp1G/TnXwuMduPLV67WM8+/rPGjH6mKVQcAAAAAAAAAAAD+87wvgwWUU9/ePUzjFSvXuJjSkW3ozLZS2vKVq51N7lRBQYGpZWhgYKB69ujq9fynus0EFf7f2bR5a1Wvwinn8OEjpnHnju2raE1OP1u2EYb8r7Bardq8he/TmZWr1+rPvxaYHrv79uH64J05uun6YerRrYtaNG+qtm1a6dxBZ+vxR+7Xpx+8oe5dOxvT//L7PIdqsAAAAAAAAAAAAAAqBuE1VBr78Jp9C093lixfafx9/pAT7TDXb9ikvPx8r5axLnGTCgoKjHGnDu0UGRHh9Tqc6jZvObXCa4EBp1flutNNSUmJtm7bUdWrccoJDDRvdxER4VW0JqcfwpD/HXv37VdWdnZVr8Yp6YuvvzeN77z1Rl1/zRUuW4hLUrW4OD0zdYLq1ok3Hvvwky8qbR0BAAAAAAAAAACA/89oG4pK06lDO0VFRSorq/SG+oaNm5WTk+sxXFJSUqJVq9cZ4wvPH6z1GzZq774DKiws1Lr1G9XLiwpq9lXa+vftVa71z88v0Oq167Rj525lZmUrPDxMNatXV4/uXVQnvna5liWVVsbZuTtJ23fs0sFDqcrLy1NAQKCiIiOU0Kih2rRuqRrVq7ldRlZ2tmSVcvPylLxnn/F4Xn6+8TlLUmhoiIKDg8u9js5kZmZpxeq12rN3n44fz1RUZKTq1aujLp06KL52LWM6X0NDhYWF2rBxi3YlJenYsQxl5+QoPDxMcbGxatI4QR3bt1VoaIhPyy6xWrV9+05t3b5DR44cVVZWliIiI1QtLk4tmjdVm9YtFRzk22Fw/4EU7diVpKNHj6qgsEihISGqWaO6mjZJUL26dXxapj2r1ars7NLWdUl79pqCmzm5uabvPCwsVEFevpdj6elatXq99u7br5zcXMXERKt+3Trq2b2roqIifVrX3UnJ2rRlm1IPH1FWVrbCQkMVGxujpk0S1L5dG4WFhvq0XGcKCgpUUFAoSQ7vOSPjuOlzCQoKVFhYmCQpJydXJSUlpU9YpKhI796r7XwBAQFOt/X8/AIVFhYaY/vP8UDKQa1L3KiDh1KVnV26jdeJr63ePbqpRo3qXq2Hvby8PG3eul0HD6XKWmJVVFSkWrZo5vb4lJubq+Li0vdiG4AtKCg0fW7BwcGm/c72ucDAAIWHe7e/px4+og0bN2v/gRRlZmWruLhY0dFRql2zptq1ba2ERg28fq9FRcWSnH8Hu5OStXHTVh08lKqCwkKFhYaqcUJD9erZrcJDy2XHYcn8ORUWFWn5ilXanbRXAQEWdevSSa1aNne5nLJzwpat23X4cJoys7IUER6uuLhYNWvaWO3atFJIiOtjX3FxsXJz8yRJ69ZvND1nH2SLiIwwwlr222pERLgCAjz/lsF+vsjICFnsAmBFRUXKyztxnAoPDzMCpmlpR7V46QodOXpUcbExGnzOWcY+aLtPS477z8FDqVqfuFEHDh5S1r/nY2/2n+ycHC1eusIY160br+uvudLje5WksNBQXXLR+ZrzxruSpNVr1ysrK9vnYyQAAAAAAAAAAAAA5wivodIEBASod89u+mNeabuukpISrV673mOIbMPGzcaN97DQULVt00o9unXR3n0HJJWG0rwJr62wq/RmXwnOlZKSEn306Vd6/+PPTIENW717dtfokQ+qphehk4KCAn325Xf68pvvlWrX4tCWxWJRrx5ddevN16tt65ZOpxl69XCn1XWef+kVPf/SK8b4gXvv0LChl3hcN3fy8wv02pvv6qvvfjIFFmyd0a+3HrrvTp/CfMfS0/XOe5/ol9/+VHZOjsvpwsLCdN7gs3X78BsUFxfr1bILCwv12Zff6vOvvtPhI2kup4uJjtbF/xuiG68b5lXAJScnV5999a1++Ok3pRw85HK6mjWqa9DAMzVs6CWqbRPwK6/s7BwNufgqp889NnaSafz05HEa0L+P02kj/g0aHc/M1MxX3tCvv/91IsRlIygoSEMv/Z/uvmO4V6E+q9WqH3/+XR999qUpTGmv9DscqOE3XuPVPuPJ+x9/rrfnfuT0uTETp5rGZ/TrrWlPjpckPfjoGG36N7AVFRmpX7//zKvXu/vBkdqxc7ckqXFCI334zqsO08x581199uW3xnjRvB8lSVu37dDLc97UmrWJTpcdFBSka666XHfccoNXASJJ2rZ9p+Z++KkWL11hqi5Zpk2rlrrh2it15hl9HZ4bOWaS1qxzXJdvvv9J33z/kzG+auglevDeO4yx7XbYpVMHzXphmtt1XLp8pd5572Nt2LTF7XRNGifoxmuv1LmDznY73RNTn9XCRUslSc2bNdHcN2ZJkpatWK1Zc97Urt3JTucLDw/XvXcO12UXX+h2+eVhexz+3/nnavTIB7VzV5LGPjHVOE9JpZ+hs/BaSUmJvvvxF3306VfafyDF5etERITrgiGDNPyGa5we+9YnbtJ9I0Y5X8drhpvGX3z0tlFF7K25H5qqiL37+stq0bypm3dcyn4b//W7zxyCXIuXrtDoCVOM8awZ09Slcwd9+c33evnVt0znkvZt2xiva79Pl+0/23fs0sxX3tDqteudrlNQUJCGXXGp7rrtJqf7z8ZNW1RcXGyMzx7Q3+v9TJJaNDvxuVitVu3anaSOHdp5PT8AAAAAAAAAAAAAzwivoVL17dXTCK9J0vKVazyG15avPBE669ypvYKDgtS9Wxd99W3pzWz7UJoz6ekZ2r5jlzFuUL+eGjao73aewMBAFRYVadwTT+mfxcvcTrt0+Urdce8IvTXnRVWLi3M5XdrRYxrx+Hgj+OKO1WrV0uWrtHzlGo18+F5dfOF5HuepLDk5uaagjysLFy3VuvUbNWP65HItf+36DRozcaoyMo57nDYvL0/ffP+z/l64WM9Onai2bVq5nT718BE9NnaS6ft35Xhmpj74+Av9MW+Bpk+dqGZNG7ucdueuJI0c84QOpR72uNwjaUf1yedf6/sff9Wk8Y+pTy/vgpOVJSAwQKmHj+i+h0e5DcsUFRXp0y++0f4DKZr25HiHqkq2srKzNX7SNIcKh86Ufoc/ad7fCzV10hh17dzRp/dxsiK9rLRmz7aSVF5entfz/fbn35r6zAsqKipyOU1RUZHe/+gzFeTn6wGbsJgzhUVFev3Nufr4869ltVpdTrd56zaNmThVfXv30MSxI72uMFcRSkpK9PxLr+ib73/2avrdScma9NRzWrh4mSaMedSr0GRZqPiDj7/Qq2+843ba3NxcPffiK7JYLLr0ogu8WqfyKC4pVnp6hh58dKyOpad7nD4j47hGT5iidYkbPU6bk5OrL77+Xn/+tVDTpoxX+7atK2CN5XMlupzcXNM4MyvLqypkv8+brxkz55TrtYqLi7Vk2UqNe+IpFXrYfz785Avl5ubqkQfvcXi+aZPGembKBGVmZSkrK1tdOnUo13rYtyV2F7QGAAAAAAAAAAAA4BvCa6hUvXt1V4DFopJ/gxbeBF2WLl9l/N2ta+fS/+/c0VjOzl1JSjt6zG2LzeU+VF2LCA/XrFff1D+Ll8lisahr547q2KGtoqOjVVxcrC1bt2v+wsVGEOVQ6mHNnvO2xo0a4XR5VqtVYydONQXXQkJCdNYZfdWyRTPVrlVTVquUvHevfvltng6kHJRUGv54dsYsNW/axCGoNfics5SXn6f9+1O0fsMm4/GO7duqfv26xrhJQkOP79edZ2bMNAXXAiwWnTWgn3r16KaYmGjl5uZpd/Ie/frHX0pNPazHxkxS93+/K0927krSiMfHKz//RMWo2JhoDRk8UI0TGqlaXKwyMo4ree8+/fr7PB09li6pNJD40Mhxevu1l9Sgfj2nyy4N3Y3Vnr3mKmC9enRVz+5dFRMdreycHCVu3KyFi5YaVasOHkrVg4+O1VtzXjS1Qi2TcTxTDz82TmlHjxmPlVVXa9WimcLCwpSdk6Pt23fq74WLjYBbdk6Oxj7xlN6Y/YLbYJwrQcFBOn/IOZJKKxDZbku9enRVdZt9IN5N9bvCgkI9NnaS9h9IUVhoqPr26akWzZooNCxMubm5Wrlqraka1z+Ll+mX3+fp/HPPcbq8kpISjRr/pEM1sXZtW+uMvr1Uo3p15eXna8vW7fp7wSIj8HE8M1OPjp6oV1961m07RU9aNGtqfC72+0LXzh0VH3/iO2zV4sTrhIX51rrUXfjMlfWJG/XUv8G16Ogo9e/bSwmNGiokJESHDx/Rn38vVKpNEPKzr77TkMEDXX4uhUVFGjvxKS1aciJYW6tmDQ3o30f169VVSUmJkpL36s+/Fyr335DR4qUr9PDIcXr5hWlG29ZePbupTp3aOnr0mJatOHE8bpxQ2rq4TBsX1R89mTFzjkNwrVOHdurTu4fqxNdWYECADqcd1cpVa7Rk2UojhDfv74UKCQ7W+NGPeHyNEqtV8xcuNoJrNWtU1xn9+qhe3XgFBgVpz57SzyEzM8uYZ/Zrb+vMM/q6DRv76u33PjIF10JDQ4zWrLYKCws1cuwkbbSrRtelUwf17tld1avFKTcvVxs3b9X8hUuMoOSx9HQ9NHKc3pj9vJo0TjDmq169mrEfrFqz3rQ9DR54poKCT1ziRdi0eQ0LD/PpfdpWMPNWfkGBZs5+3fRYZESExxDY+g2bNG7S0yosKlJUZKT69+2lxo0bGfvPX/P/0cFDqcb0X337o84/9xyHc2bNGtXL3TLcVsrBg6axt9U/AQAAAAAAAAAAAHiP8BoqVWxMtNq1ba3EjZslSXv37deh1MNOA0JSaVWaLdu2G+PuXTpJkqKiItW6VQsjULVi1RqdN3igy9d1bBna0+O67k7eozXrElWrZg1NfWKM2jmpcrNj127d//BoHc/MlCT9+vs83X3HcKdBusVLVxjvW5Lq1onXy88/rbp14x2mvfG6YXpq+ov67Y+/JJWGM9545wO9MP1J03SPPlRaWeanX/4wBXYuumCILjhvkMf36I2Nm7aYquWFhYXp+WmT1Llje4dpb77haj359PP6e8Ei/T5vvsdll1itmvz0c6bg2pn9+2jsqBFOqwHdetO1enLaDM1fuFhSaRhs2vMzNWuG85aFs+a8aQqu1YmvrScnjnZow3rl5RcrNfWwpj0/0wjwHEtP1zPPz9SMZ8yfuSR99c0PpuDauYPO1uhHH1BISIhpuvPPPUf33nWrPvr0S815c66k0varc958V88+9YS7j8apsNBQjXu8NBz51twPTeG1G665Sl06e1dF6LufflVGxnF16dxBT4x9zKF1583XX62ff/1TU56ZYTz2yWdfuwyvffL516bgWnR0lCaMftRpSPT+u2/TS7Nf18+//Smp9POY/PRzeu/N2Q5Vjbw1oH8fo0Wq/b5w5eUXu2yfWpnsq9SNnzxNhUVFOn/IOXrkgbsVbhMekqTbh9+gMROnGGFdq9Wqr777UaMffdDp8l957W1TcO3Si87XQ/fdqeDgYNN0d91+kx4bO1mbNm+VJG3ask0vv/KGRj58nyTphmuulCStWZtoCq/17N7V1CbUF8tWrNbX3/1ojENDQzRxzEin7UuHDb1Ea9dv0KjxTxohs19+n6eBZ/VXvz7uw0ZHDh/R8zNLW7fedvP1uvG6qxy2pduGX6/7Hh6tpOQ9kkqDrT//Nk/XXnX5Sb1He8ePZ+rvBYtlsVh0zZWX6crLL1bt2rVUYrWqID/fNO3cDz81BddiY2M0efzjDsHfoZdepIx7juu5l17RvL8XSiqtIPfktBl669UXjW0toVED4/gwavyTpvDaow/d61VVtMr2w8+/6eixdNWoUV333XWrzuzfV6GhISosLHRb2XHy08+rsLBQQwafrUcevMfh/HDHLTdo9ISpWrp8pfHYl9/84LEyZ3mVnXuk0u25WZPGFbp8AAAAAAAAAAAAAFJAVa8A/vvsAy0rVrpu+7l81RqjEk9sTLSaN29qPNejexevliFJK1etNf4ODw9X506OwSt76ekZCggI0LNPPeE0uCZJzZs20fAbrzHGJVaryxajf/69wDS+/+7bnAbXJCk4KEiPPXyvqarLqjXrlJOT63T6yvTND+aqSffeeYvT4JpUGq6aOOZR1a9X120bwzLzFywyBbBatmimSRNGuWxjFx4erknjHzdVG1qzNtFpy72Ug4f0/U+/GePIiAi9+OxUh+Bamdq1a+m5pyepd8/uxmPLVqzWBruqSJJMVcliY6I16hHH4FqZwMBA3XDtVRp66UWm5Zan3WRFy8g4rrp14/XcU084BNfKnD/kHPXrcyLkuWPXbqctRvPy8vTeR58Z44CAAD0zZYLL6obR0VEaN2qELrv4QuOxpOS9poCkv2RlZ/s0X2io8+/aVmSkeRs+knZU/fr00tjHHnYIrpUt8/ER9yvAJsCzZOkKp8veuGmLPvvyW2Pco1sXPfrQvQ7BNUmqFhenZ6ZMUETEidf8/qffTFXIKsub735gGo98+D6nwbUynTu213i7ypXvvv+Jx9cpsVqVlnZU1151uYbfeI3TEGS1uDg9fP+dpsdcfb4nY+nyVcrNzdU9d96ie++6VbX/DWYHWCwKCztR4SwzM0sff/qVMQ4KCtIL06e4rFhZFmwrq6wmSVu37dCiJctPep2zsnzbFkJDPFcutN3upNLwV3h4uGa/ME3nnnOWsS8FBwcryE2L2NTUw+rds5vGPe482BwSEqIxIx80ffdLllXs97ti1RpTJdhzzh7g8rgPAAAAAAAAAAAAwHeE11Dp7Kue2bf0tLXM5kZxl39bhZbp0dUmvLZ6rctlJCXvUerhI8a4Z7fOCnZzk9zWueecpRY2gTlnzujb2zTesGmz0+maNWmsQQMHqFuXTmqc0FCdO7mvkhUeHq4z+p1YdnFxsXYlJXu13hWlpKRE/yw6EcaLiAjXhecNdjtPSEiIhl1xqdNl2SurvlXmtpuv8/jdBAcF6bphQ02PlVWos/XL7/NMr3nNsMvVsIHz9qJlAgICNOaxh0zhpB9//t1hurJKe5JUrVo1r8JM11x1mZ6aPE5z35yl377/zBRkqQq33Xy9x3Wwb69n395Qkv5euNgUhDrv3IHq1KGdx9d/4J7bVLtWTWP8069/eJynwnnOVzrlLCTmicVi0UP33eG2ulTt2rXUxqZSVNrRY6ZjV5l37AJdw2+8xu1yq1eL05BBJypTFhcXmwKYlSF5zz6j2pskNWxQX0PcVMcs069PLzVv2sQYb9qyTXv3HfA4X3R0lG656Vq303Tt0knR0VHGePPW7W6m9k1xcbEaNqivq6+8zO10f/69QHk2ldguveh8tWrRzO08FotFD99/lynU/OMvjscnfwkJ8bwfBAaYg4QlJSW69qrL1bBB/XK/3kP33amAANeXqTVqVDcFzTOOZxrtt0/W9h27NPHJZ4xxWFiYbrnB/fYGAAAAAAAAAAAAwDeE11DpmjdrYgqtrFy1RiVOqnRZrVYtX3mijV2Pbp1Nz7dv38YIDaWlHdXOXUlOX2+5XVW2vn08twwtc+6gsz1OEx9vbnm6b79jdSpJuu7qKzRp3OOa+fxT+vCdOYqNifa47MaNGprGGRkZHuepSLuSkk1Bre5dO3sV1HJWXcm+alxhUZFW2oQOIyMi1KeX82pdzpZvG2Rcu36DwzS2wUdJumCId21Ua1SvZmpTaN9yViptP1omKXmPqVWdK3XrxOvM/n3UvGmTKg+uBQcH6yw3FbDK1K1jrgzobNu2r3r4v/PP9WodQkJCTGGmtes3mNrH+oOvldd8qbbUsX1b1atbx+N0CY0amMYHD6WaxsczM7VsxYltu0aN6l6FBYdeeqFGP/qgnp82SW/PeUndunbycs19Y7uOkjT4nDNN+6w7Zw3oZxqvc7J/2zt7QH+nFe1sBVgsatTwxOebm5urjIzjXq1TeZx/7jke3+tymxatkvfHp8iICJ1z1gBjvGLVWqfB4PLIzvJtP/AlxClJF57vPgDtTNs2rbwKvNmfM+33H1/89uffuuuBkco4XnouDLBYNPbxh11WTgUAAAAAAAAAAABwcgivwS9sWwpmHM/U9u07HabZsXO30o4eM8b27dSCg4LUxaZ6mbOQkSRTQEqS1wEpi8WiDu3aeJzOvhLMkSNpXi3fG/bt0YqLTy6kUF579u43jVs0c1+FrkzNGtVVq2YNt9MkJ+81hZU6tG/jtqqOrYiIcDWyCSns2btfhYWFxrikpETbd+wyxgmNGii+tjlk6E5LmwpIKQcPOQTvOrZvaxpPnDJdiyuhBWFladG8qVcBuqBAcxW8w0627S3bdhh/h4SEeLXPlGlpU9WwqKhIe/ftdzN1xfOmta0zoT6E1zq5aLVrLyoy0jQ+lm4OrK5bv9EUVmpvU6nNnSaNE/S/C85V757d1aplc5eteSvKNrtjesf2ngN2ZdrYtfbduTvJ4zyuWhnbs3/ftucYX9m3xvQmGLjZZr+JiY5Wq5bNvX492/0mNzdXhw4d9npeZ3wsQOhVkNle3Trx5ToWl+nioVJpGfvv4ujR9HK/VpmcnFxNfvo5TZr6rNHmOTY2Rs8+/YQGntnf5+UCAAAAAAAAAAAAcM+7XorASerbu4e++f5nY7x81RqHm/fLbCrT1K5dSw3qO7Z87N61s5b+W2Frxaq1Dq3aCouKtGrNemPcqmVz1ahezat1rFG9msONcG/k5uZ5PW3q4SM6kHJQh4+k6dixdOUXFKig4ESgy1mbRn/aaxdeq1mzutfzxteu5TTsVMa+Ik79eu5betqrE19LScl7JJWG1fbtP6AmjROMZdu25IuMjDSF2Tw5bleNad/+A6ZA2/lDztHcDz41KndlZWVr5Jgn1K1LJ503eKB69eiqGjW8/6z8LaFhA88TOWH7mUql4a89e/Ya45joKJcVEJ2x3z727T+g5s2auJi64mVn5/g0n7chS1tNEhp6nsgJ+6pY9m0Q69Q5Nas/pRw8ZBo3qF/X63ltKxtKUlLyXhdTnmBfsc4V+8CV/TbtC/vtwb76l73c3Fylpp4InMXGxpTr+OSw3xw4cFJVwDKzsjxP5ESAxYf9oHEjn17L2+/X/pxtez4tj23bd2rcpKe1/8CJapPnDR6o++++zdS2FQAAAAAAAAAAAEDFI7wGv+jWtbNCQkKMG8vLV6zWDddcaZrGtu1cdxeVbHp062L8vWbdehUWFppamW3YuNmomCJJ/crRMtTXG9S2FcCc2bJ1u77+/ictWbqiQqr+VCb7YEdsrPefSbVqcW6fz8w0BybiYmO8Xraz5WfbVEdLtwufbdq8VTffcX+5lm8r3a5da7W4OE0Y86jGTpyqwqIi4/FVa9Zp1Zp1kkorDLVt00qdOrRVty6d1djH8FJlqObjtp2ba65Adzwzy9Ty90ja0ZP6nFMPH/F5Xl/4WnnNl1BrdS9Ds57YtzqNjSnffuMv9utZvZr377969TjT2H67k6TAwEDT2NewaH7eyYfXbAUGBioqKtLtNGXtJ8vs3bf/pPabw4crrtpneURElr96X2w5j/NlbFuNV7a16zfokVETjWuHuLhYTR7/uLp1qdxWuwAAAAAAAAAAAABKEV6DX4SFhqpr545aunylJClxwybl5ecrLDRUUmlYYf2GTcb03bt0drqcZk0bKy4uVunpGcrPL9D6DZtMN5hXrlprmt62XaknEeHlD6i4U1hUpOdenK0ffvqtQpdbmWyDf5JkqcBlZ+eYq15Fegh82LOv+mMbcDluFw45WXlOAi79+vTUa7Nn6OVX39CatYkOz6ccPKSUg4f0518LJElNmyTouquv0JBBZ8tiqchPsvzCwj23DPVGRX/OvrYv9FWWXVUzb/lSsc0+bOUr++NSRX2XFc3+sy1Pi0mHfTvPsZpluN37DveiDa5TFbwretOO1T64W9V83g98mC86Ksqn17JvYVxZ0o4e0+jxU4xzX1RUpGY+95SaNW3sl9cHAAAAAAAAAAAAQHgNftSvT08jvFZYVKS16zaod89ukqR1iZtUZFPRylXlNYvFoh5dO+v3efMllbYOtQ2v2bYerV4tTq1atvB6/XwNm4SEBDt9fPJTz2ne3wtNjzWoX0/9+/ZSsyaNFR9fS1FRUQoNCVbovyG+X//4S2+8/b5P61ERfK1M5Y3AQLuWc+V8rRJriWlsGwiz/+5iY6LVtEnjci3flquqcK1aNNOsGdOUvGefli5fqRWr1ipxwyaHqlOStGt3sp58+nktWLhYkyaMUnDQ6Xe4tQ/mBAWZP+fQ0BC1bd3K5+XXrlnD53n9yZf9IiqyfOHMMgF2+4l9pbWS4mKfllvZKiqsV9l8/V5c8aUqX1hYmNq08v7cZK+q2lhafYibRnpZrc1++3E4X1SSuR98quOZJ0K5D95zB8E1AAAAAAAAAAAAwM9OvzQFTlt9e/fQ8y+dGC9fudoIr63fsNF4vHFCI7ct4bp3OxFeW75ile667SZJpdVttm7bbkzXu1d3Bfih4lVIiGOFoRWr1pqCawEWi0Y8eLcuvegCt1W4wiu4+lt52QcxSkpKXEzpqKwlrCsx0dGmsbPAlzv261IW+JMcqzI1a9pEL894ulzLL4+ERg2U0KiBhl1xqUqsVu3Zs1er1yZq4aKlWrFqjSnsNP+fJXr9zbm6965bK219PPE1WBQUbD5F2Fe7qhYXp1kvTPN5vU4XmVknKmd5ahN8suwrrdWvX9c09qUKnD/EREdrv1KMcV5ensK8rI5mG1yWvKuqZh+k9FZwsP8ve+wDcw3q1z0t9xv7im3ehDq9rTppf+4L9bGyXlhYqOeJbPw1/8R5ukaN6jpvyDk+vS4AAAAA/B979x0lVXn+AfzZvsvSkQ4WighIE7GLDXvXWBJjSUyMicYWS6yxxJaiJmpioj9L7L333lFERASkg6D0Xpay7P7+IAw7uwtbgLtoPp9zOGfeO+995507dwbO4XueBwAAAKi9ZEpbQES0atkiOmy1RWo8aPCQ1OMvh61pGVq2klpl+vXtk3o8euz4mP/fVoaDhwyNkjL/mb7bzjvWaH81CWqVVVnlnVdeezNt/OPjjo4jDzu4yv/InzVzVq32sKGUr7Q1b/78ap87Y+bsdT5fvlrQnDnzqr32qvlz08b1y1T0Kd+abnENg3HrIzMjI7bcYvM46vCD4+Y/XRMP3P3P6NY1vRrZ4089V+Ow3oa0spbVusoHqerVK0i7hze1dohVycmpvEpiVWbNnpN6vGzZukOaq1UV5lyb8mHY9u3apo3nzE3/Hmwqyn+/y16zqswu992uTuituLh293TZ0GtS6pWrPjZ3XvV/VzeGWn8PZqX/xm/MIOWSWq6dXYMKl/PnL4g5c+elxn379Eok8A4AAAAAAACkE14jUbvs1C/1ePyESTF79pxYUVwcI74elTq+tpahq7Vs0Tzat2sTEasqvwz+/IuISG8Zmp2dnRZyq47FSzbcf5aPGTc+bXzoQftXa62x4yfWag8bSts26VWepk2fWa3zVq5cGVOnTlvnnM6dOqSNv5k8pUZ7+27q9NTjjIyMaN26VWrcpk2rtM9h0uRvN2oL1HXZcov2cetN18cWm7dLHVtRXByfDf6iTvYTEbG0aGmtzssrF6TKzc2NVi1bpMaLlyypEDzalJUNmhYtrd41mTN3XsyrRdho+fLaVWgrf82bNmmcds0nTPymVutubOW/31O+/a7a535X7rdj8/Zt1zJzjWXLllV7/bKqU9VtQ2vUsEE0KtOKePbsOVFUVJT4PlYrH7heWs1rOW7CxBq/VmlJ7X6Hi2sZuK1fv/ptYfPy8+L6qy9L/Tnxx8fU6jUBAAAAAACA9SO8RqJ22WmHtPGng4fE6NFjU9WMMjMyYrs+Patcp2wwbXVobdDnayq59e65baUV0daltpXXylcri6hYkaZ867/KzJ03LwYPGVqrPWwom7dvlzb+etSYtcxMN2r02CoDEA0bNIjWrVumxiO+Hh0ryrULXJs5c+fFt9+taUm41ZabR36ZCko52dnRZetOqfHSpUtjxMhRUVfy8/LilJ8en3ZsyrdT1zJ746ttECQnt2KFpp49uqWN6zKUV1Mtmm+Werxy5cpqBYg++284tirlW7MuXVa7wGBlv1s9e3RPPf66Gt+1iIiJk76Jw485MU742a/j9N+eH489+Wyt9lNd23TpnDb+/Ith1T73y2HD08Zdu2xd5TnLa9m+tSaVuaqjur9hPbdN/94MHvLlBt1HTTTfrFnaeMF/q5euy8xZs2PSNzULHEfUPhRe23BfTVok5+flRf/ddk79KVsZFgAAAAAAAEiO8BqJ6tG9azRosKbF42eDv4ihZYILXbbuHPULq66csn2Z8NqgwUPi2++mxtQylbl22XmHyk5bpyVLavef5ZWFIcq3/qvOf8T/58HHat3ecfmK2rUoLG/LLTePRg0bpMZDhg5LtWVdlxdfeaNa6+9aJry4dOnSePud96t13utvvpM2LlvBb7U9d98lbfzci69Wa+2IiDvuvDfu+c/D8fWoMWmtZyNW3V933HlvnH/xlfGnm26t9prt2rZJG68orl3YZm1WllT/XllSyyBIQUHFINUeu6Vf5+dfqv51fvTJZ+OOO++NL778qtb3+vooX1mwOlXMnnvxlWqtXf5arVhRvVBTeZmZFf9a3nuP3VKPly9fHm+9XfX3ZvCQoTFr9pyYOOmbGDZ8ZIXfpA2tb5+eae0oX3vj7Wp9xitXrow3y/wOZGZkxE479q3yvKXVrJxXXvkWnutr2dLqVS3bs/+uaeNnX3i52q9x/0OPxV33PBBfjfi62iHrdf3elP9tqs734Plq/p4WbqDrW1zNUGB55VsdAwAAAAAAAJs+4TUSlZmZGTv1WxNMGDR4SFp4bfu+vau1Tt/ePSMzIyMiIqbPmBlPPP182vO77Fgx3FSV6lbQKS8/P6/CsZYtmqeNy7Y0rcyrr79daWWk+fMXVDo/Ozu9uszcuTVva1iZVcGR7VPj4uLieODhx9d5zrjxE+PFV16v1vqHHpzePvX/7nuoytDgwoWL4sFHn1yzx8zMOPyQAyvMO/jA/SK/TEvAl155vUJFp8oM/HRw3P/w43HXvQ/Eqb8+J277511pz7//4cC4/+HH4+NPBsXzL70Ww4aPrHLNiIj3Pvg4bVw+MFJT5UNNs2dXv11nbYNilVUx2m2XHdPaWA4ZOixee+PtKtcaP2FS/Ouue+P+hx+PM865KC6+4tpa7Wl9bNttm7Txa+VCkeW9+vrbMaQGFcTKKqplq9bKwrs77bh9WtvJu//z0DorWi1avDgeeGTNdyY7Ozv22H3ntDl5ebkVzlkf9QsLY7999kyNZ86aHY9Wo9rb8y+9GtNnrGlP3H/3XaJJ48ZVnldcXLt7evXfG0nbq/9u0bRJ49T4o4GD4sOPP6nyvK9HjYk773kg7rn/4fjVmb+La2+8udJ55UPUc+bMW+ua3bumfw9ef+uddbZZnjhpctpv8LpklLu+tW3vurSaocDycnKqX1lv+fLlMXXa9NSf71MLZAAAAAAAAPghEV4jcWWrZs2eMzcGfjo4Nd5+u17VWqN+/cK0NnVPPfti6nH7dm2ifbuaB4WqW0GnOnYuEwCLiPjHv+6OGTNnVZg3e87cuOGvf4+rr/9LZGdnx89P/kna8++WC0Ct1rRpk7TxCy+/FrNnz1nPXa9yRLlg2EOPPhmPPP50hYpkEavCh+deeFmsWLEimpXbU2U6ddgqDth379R4yrffxXkXXR5Tp02vdP606TPi3AsvT3tvRx52ULRp3arC3EYNG8SpZa5fSWlpnH/xlfH2ux9UunZpaWm89sbbcemV16WO5efnxzFHHpY275AD90sFMkpKSuKcCy6Lx558NtXqtrJ1n3vxlXjwkSdSxwrr1atwT9TUZk2bpo2fePq5arfkK9/GtroaVBKkysrKirN+88u0Y9f+6ZZ46tkXK71HIiI+/ezzOOeCS9PaA5/4k2Nqtaf1scvOO6QF8p5+7qV4570PK8wrLi6OR598Nq778y2Rn59fq3aCta4sV0m2Kic7O04+4bjUeOq06XHehZV/byZP+S7O+t0lMaNMIOzQg/avEAhr0iR9/M57H8bESVVX4FqXU048Pi0U989/3R2PPvHMWquFvfTKG3Hzrf9KjXNycuK0n59UrdeqTTvK6lT1rKnqhv7y8nLjN7/6edqxy6++IV585fW1Bsc++OiTOO+iy1P3UlZWVhx/zJGVzm3aJP3394GHH1/rPdi+XZvYass19/TYcRPijrvurXT+wE8/i7POvySWLl0a3cuFP6ujtu1dly2v3d/HeXkVw+RrM3zEqPjRT36e+vOHa26s1WsCAAAAAAAA66f6JSpgA9lxh+0jMyMjFXRZ3R4sJycnem7brdrr9Nu+T4z4enTaGhG1q7q2oR128P5x/0OPx9x58yJiVdjkxJ//Jgbs3T82b98uZsycFaPGjI2hQ79KXYezfvOL2HXnHePu+x5KrfPxJ4Pi4iv+GL179YgtN28fO/bbLiIiunftEnl5uakw0LTpM+L4k0+Lntt2i9LS0li5siT+9pfaVbbq2aN77LNX/3jz7fdSx279513xxDPPx3a9ekZhYb2YN29+jBk3ISZMnBQRq9rB7rTj9nHn3fdXuf7ZZ54Ww0eOislTvo2IiGHDR8bxJ50WO/brGx222iKaNGkcS4uWxqjRY+KjgYPSKuJ122brOONXp6517eOPPSq+/GpEvP/hwIhYFXC57Krro03rVrHzjttHyxbNIzsnJ6ZOnRYDPx2c2kPEqkDVJRecHa1bt0xbc+vOHePUU06Iu+55ICJWtSv82+3/jrv/81DssP120blTh2japHGsWFEc30yeEh9/8ll8M3lK2hpnnH7qegdnevXsnjYe8fXoOOYnP49tu3eNZcuWx2bNmsblF/+u0nPXVVWpNvbYfZc47ujDU5W1iouL469/+0fc+8AjsfOO20e7tm0iNzc3Zs+eE4MGD4nRY8alnf/zU06IHt27btA9VUezpk1ivwF7xsuvvpna96VXXhddu2wd3bpuHZmZmTFr9pwYMnRYzJu3qprh2WecFiO+HhXjJ0xKfL9l/ejIQ+O9Dz6OL778KiIivhrxdRx/0mnRt0/PaN+ubZSWlsb4CZNi6JdfpYUIW7duGaf/8uQK67Vq2SJatmieqnq2ZElRnHLaWdGrR/fIycmJ6TNmxP3/948a7bFN61Zxwblnxh9vuCkiVgVI//6PO+OxJ5+NnXboG61btYqcnOyYMXNWDPz0s5g4aXLa+eef/ZvYYvN21XqtDX1P10TZ73JlbV7X5sD99olhX42IZ19Y1Yp22bLlcd2fbom77n0wdtlx+1XXJzcnZs2cFYM+/yLGjB2fdv4Zp58anTt1qHTtPr22jSefWVOB9LU334kvvxoRnTt1iPnzF8QuO/WLE39ybOr5Hx97ZFz3p1tS4wcefiLefOf96NunV9QrKIgFCxbGiK9Hp37L9t5jt9h5x34xfMTX1X6/66N8BTcAAAAAAADgh0t4jcQ1atggtu3eNb78akTa8Z7bdovc3Ny1nFVRv+36xH0PPFrh+C4771CrfWVlV2yRWFsFBQVx7VWXxHkXXRFLl65qH7ho8eJ45vmXK8zNzMiIM04/NY4+4tCIWBVwePm1N1PPv/fBx/HeBx/HsUcfngqvFRQUxE+OOzru+c/DqXlLlhSlqth16rjVeu3/wvPOjOnTZ8RXZYIKU6dOjxenVmwP2rZN67j6it/H25VUsKpMwwYN4tabro+LL/9jjBy1Jnz44cefrLON3k47bB9XXXZhhXaHZWVmZMQ1f7g4/nbbv+Pp59ZU4/tu6rR48pkX1npeYb16ccmF58Se/Xet9PmfnfjjaNyoYdx2x92pz3PhwkXx5tvvpYX8ysvOzo4zTz81Dj/kgLXOqa7N27eL/Qbsldaic/6ChfHhx59GRMTuu+601nPr169dcG5J0dpbuv72N7+Mho0axv/d+2Cqstbs2XPihZdeW+s5OdnZcfovT1lr9agknPmrU2PwkC/TKpONHDU6dS+WddIJx8VRhx9c6XMby9qqlGVlZcWN114RF15yVarVcnFxcXwy6PO1tiXu1GGruP6ayyoNTmZkZMRpp54U11z/19SxFStWxGeffxERta9SduB++0RpSWn8+ZbbY/nyNeHayn77VsvPy4vzzz0jDtxvn2q/Tm32t677uUbK5KrqFRTU6NTzzzkjGjZsGA8+/HgqZDhjxsx1Xp/c3Nw4+4zT4ohDK7ZLXq3/bjtHl84dY1SZoOi06TNi2vQZEVGxJfdB+w+It975IAZ++lnq2NSp0+OFqRW/v/369o5Lf39evPX2+9V6j2VlZtSuwG9uTvX/LVDW2ipiAgAAAAAAAJsu4TXqxO677VyhktFONWyruO22XaNpk8axfPmatmT5+XnRq+e21V6jsLBeKgSxWbOmVcxeo2xwYm1hk149usfdd/wt/nnnPfHBR59UWimoV4/u8evTfpZWheqi88+KzZo1jWdfeCUWLFyYOl4+JHHqySdExKq2nuX/w76mgYry6hcWxq03XR/3P/x4PP7Uc7Fw4aIKc3Jzc+Og/QfEr35xUjRs0CCaNG5U7YpEzTdrFv+67S/x/EuvxuNPPVehAtNqGRkZ0XPbbnHcj46IPXbfpVp7z8nOjvPP+U3sv+9e8eAjT8TATz5Lq95WVrNmTWO/ffaMHx9zZDSr4vM/8rCDY9edd4zHn3w2Xn3j7Zg9Z+5a5xYUFMSe/XeJn53442jbpnW19l0dl1x4TtQrKIjnX3q1Qou/evXWfOaZmZlpn0V+Xn611s/KSj9vxTpa/mVkZMQpPz0+9tx91/jPQ4/Gu+9/nAr2ldegQf3Yq/9uccLxR0e7tjVv6bsu2TnZaXvOzl73X2uNGzeKO2+/KW7869/jo4GDKp3TZetO8cuf/TR2/m8Vx2ZNmqReo7CwXqXn5JbbR2E1A4N5ublp5y1dR/vi1d/LZ55/OR578tmY8u13lc5r2aJ5/Oiow+KYIw+NnJycta53wL57x9Kly+Kfd94Tixalt78sKEi/Z8rusfxz5R10wIDo1bN7/Oehx+KNt95b532x7957xIk/PiZatGi+zjXrFxbWquJZQX5++vVdtizya9BasjL16tWr8n5Ym8zMzDj9FyfHPnvuHg888ni898HAVMivvMaNG8Xee+wWP/3xMdGyiuuTlZUVN914TVz7p5srva8Lyv2dkJGRETdcc1n8885746lnXqj0N7JFi+Zx/DFHxjFHHhqZmZnRqFHDKj+D8r89Tcu1p12b8t+f7Jzq/fM0t8L3p/J7rTLlf++quq8BAAAAAACAjSOjtC57b8H/iAULF8aIkaNj+oyZkZmREQ0a1I9tunSOVi1brPWclStXxvQZM2P58uXRrGnTaNCgfqXzli9fHiO+Hh3zFyyMvNzcaNumVbRv13aD7b24uDi+Hj02vv12aixctCgK69WLVi1bRNeuW693CGS1adNnxLjxE2LuvPmxdOmyqF+/MJpv1iy6dO5U66phqy1dtixGjxkX06ZNj4WLFkdeXm40qF8/ttpy82jXrm1k1qI9XWlpaYybMDHGjpsQ06bPiKVLl0Vebm40btwwOnbYKrp07rTOCnHra8mSohjx9ahYvKQoCvLzYovN21cZbtnYVhQXx7hxE2Lyt9/F4sWLUyGWzTdvF1ttsXlkZW24yoYbyowZM2PY8JFRVLQ0ilcWR9MmTaLL1p3q/FpW1+Qp38a48RNjwcKFUVoa0bhRw+iw1RY1/v6vXLkyRo0eG7Nmz4ns7Oxo1bJFbLlF+xq1xFybFcXFMWbs+Jjy3/siKysrGtSvH5u3bxdbbbn5BnmN77MVK1asuj7fTY3FixdHdlZ21K9fGFts3r7Wn8HcefNi1OixsWz5imj439+6xo0brXX+osWLY+iXX8X8+QujaOnSaNRw1X205Zab1+r3EQAAAAAAAKAmhNcAAAAAAAAAAABI3P92yRMAAAAAAAAAAADqhPAaAAAAAAAAAAAAiRNeAwAAAAAAAAAAIHHCawAAAAAAAAAAACROeA0AAAAAAAAAAIDECa8BAAAAAAAAAACQOOE1AAAAAAAAAAAAEie8BgAAAAAAAAAAQOKE1wAAAAAAAAAAAEic8BoAAAAAAAAAAACJE14DAAAAAAAAAAAgccJrAAAAAAAAAAAAJE54DQAAAAAAAAAAgMQJrwEAAAAAAAAAAJA44TUAAAAAAAAAAAASJ7wGAAAAAAAAAABA4oTXAAAAAAAAAAAASJzwGgAAAAAAAAAAAIkTXgMAAAAAAAAAACBxwmsAAAAAAAAAAAAkTngNAAAAAAAAAACAxAmvAQAAAAAAAAAAkDjhNQAAAAAAAAAAABInvAYAAAAAAAAAAEDihNcAAAAAAAAAAABInPAaAAAAAAAAAAAAiRNeAwAAAAAAAAAAIHHCawAAAAAAAAAAACROeA0AAAAAAAAAAIDECa8BAAAAAAAAAACQOOE1AAAAAAAAAAAAEie8BgAAAAAAAAAAQOKE1wAAAAAAAAAAAEic8BoAAAAAAAAAAACJE14DAAAAAAAAAAAgccJrAAAAAAAAAAAAJE54DQAAAAAAAAAAgMQJrwEAAAAAAAAAAJA44TUAAAAAAAAAAAASJ7wGAAAAAAAAAABA4oTXAAAAAAAAAAAASJzwGgAAAAAAAAAAAIkTXgMAAAAAAAAAACBxwmsAAAAAAAAAAAAkTngNAAAAAAAAAACAxAmvAQAAAAAAAAAAkDjhNQAAAAAAAAAAABInvAYAAAAAAAAAAEDihNcAAAAAAAAAAABInPAaAAAAAAAAAAAAiRNeAwAAAAAAAAAAIHHCawAAAAAAAAAAACROeA0AAAAAAAAAAIDECa8BAAAAAAAAAACQOOE1AAAAAAAAAAAAEie8BgAAAAAAAAAAQOKE1wAAAAAAAAAAAEic8BoAAAAAAAAAAACJE14DAAAAAAAAAAAgccJrAAAAAAAAAAAAJE54DQAAAAAAAAAAgMQJrwEAAAAAAAAAAJA44TUAAAAAAAAAAAASJ7wGAAAAAAAAAABA4oTXAAAAAAAAAAAASJzwGgAAAAAAAAAAAIkTXgMAAAAAAAAAACBxwmsAAAAAAAAAAAAkTngNAAAAAAAAAACAxAmvAQAAAAAAAAAAkDjhNQAAAAAAAAAAABInvAYAAAAAAAAAAEDihNcAAAAAAAAAAABInPAaAAAAAAAAAAAAiRNeAwAAAAAAAAAAIHHCawAAAAAAAAAAACROeA0AAAAAAAAAAIDECa8BAAAAAAAAAACQOOE1AAAAAAAAAAAAEie8BgAAAAAAAAAAQOKE1wAAAAAAAAAAAEic8BoAAAAAAAAAAACJE14DAAAAAAAAAAAgccJrAAAAAAAAAAAAJE54DQAAAAAAAAAAgMQJrwEAAAAAAAAAAJA44TUAAAAAAAAAAAASJ7wGAAAAAAAAAABA4oTXAAAAAAAAAAAASJzwGgAAAAAAAAAAAIkTXgMAAAAAAAAAACBxwmsAAAAAAAAAAAAkTngNAAAAAAAAAACAxAmvAQAAAAAAAAAAkDjhNQAAAAAAAAAAABInvAYAAAAAAAAAAEDihNcAAAAAAAAAAABInPAaAAAAAAAAAAAAiRNeAwAAAAAAAAAAIHHCawAAAAAAAAAAACROeA0AAAAAAAAAAIDECa8BAAAAAAAAAACQOOE1AAAAAAAAAAAAEie8BgAAAAAAAAAAQOKE1wAAAAAAAAAAAEic8BoAAAAAAAAAAACJE14DAAAAAAAAAAAgccJrAAAAAAAAAAAAJE54DQAAAAAAAAAAgMQJrwEAAAAAAAAAAJA44TUAAAAAAAAAAAASJ7wGAAAAAAAAAABA4oTXAAAAAAAAAAAASJzwGgAAAAAAAAAAAIkTXgMAAAAAAAAAACBxwmsAAAAAAAAAAAAkTngNAAAAAAAAAACAxAmvAQAAAAAAAAAAkDjhNQAAAAAAAAAAABInvAYAAAAAAAAAAEDihNcAAAAAAAAAAABInPAaAAAAAAAAAAAAiRNeAwAAAAAAAAAAIHHCawAAAAAAAAAAACROeA0AAAAAAAAAAIDECa8BAAAAAAAAAACQOOE1AAAAAAAAAAAAEie8BgAAAAAAAAAAQOKE1wAAAAAAAAAAAEic8BoAAAAAAAAAAACJE14DAAAAAAAAAAAgccJrAAAAAAAAAAAAJE54DQAAAAAAAAAAgMQJrwEAAAAAAAAAAJA44TUAAAAAAAAAAAASJ7wGAAAAAAAAAABA4rLregNQ1mtvvhOffvZ5avzLn50YLVs0r8Md1b1J30yJ+x9+LDXeYfvtYr999kybs3TZsvjLLbenxl06d4pjjjosqS2yHqbPmBl33nN/alzZ58sP3/sfDox3P/goIiIyMjLi5yf+JFq3blnHu2Jj+ezzL+KV199KjY87+ojo3KlDHe4IAAAAAAAAoG4Ir7FJGfn16Hj51TdT4+OOPuJ/Prw2Z87ctGvSoH79CuGm4hXFaXMWLVosvPY9sWDBwio/X37YRowcFVdcc2MsX748IiJO+enxqeDarNlzYsWKFam5LVu2iMyMjIiIWL58ecyeMzf1XIP69aN+/cIEd07Euj+jpcuWxdy581LPrf6MtuvdMx569Mn4ZNCqsPbgz4fGv2+/KZpv1izRvQMAAAAAAADUNeE1AKgjc+bOi4suuzoVXNtj913iFz/7aer5K66+IYYOG54av/rcY6mA2vCRo+LMc3+feu60n58UJ//0uIR2zmoXXXZ1fD1qTGr81stPR15ebkREDPtqZJxzwaWp584647Q47ujDIzMzM66+4vfxs9POiu+mTosZM2fFRZddHf+67a+Rk+2fZgAAAAAAAMD/jsy63gD/G4YMHRYvvfJGvP3uB3W9lR+mjIj6hYWpPwX5+Ym+/Kgx4+KlV96Il155I9HXhU1Bbe//0tLSuOb6v8ac/1bmatGieVx8/tmR8d+qXRERBQUFaecUFtZLPa5fmF5lLb8g2e89q9Qr8xllZmSkgmsREYX10j+/ssG0+oWFcdVlF0ZWVlZERIwaPTb++e97NvJuAQAAAAAAADYtynuQiFv/cWeMGjMuWrVsEXvtsVtdb+cHp35hYbz6/GN19vr3P/RYKph40AED6mwfUBceePjxeOud9yOiZvf/U8++GJ9+9nlqfOmF50SDBvXT5tQrE37Kz8tLC7aVDbJFRBTk59Vo32wYZT+HevXKfSblAoX5eemfUbeuXeLEHx8T9z7wSEREPPrEM7HbLjvGdr17bqTdAgAAAAAAAGxaVF5jo1u2bHmMHT+xrrfBRjRi5Ki63gLUmZGjRtf4nDlz58W/7rovNd5nr/6x/Xa9K8wrW9WrXrkqXuWDUTnZOTXeB+uvsExgbXVL19WqCrNFRJx0wnHRulXL1Pivf/tHFBcXb+BdAgAAAAAAAGyahNfY6MaOGx8rV66s1bnZ2VkbeDdsaHPnzYvpM2bW9TagTsybNz+mTp1e4/P+9X/3xeIlSyIiIjs7O377619UOq9sYK18C9F6BenBqPKV2EjGuj6jwnLhtZycigHDvLzc+NUvTk6NJ06aHE89++IG3iUAAAAAAADApkl4jY1uxNc1r0q0Wn5+xSo1bFpGfj2mrrcAdaY2Vdemz5gZr7z2Vmp80P4DovlmzSqdW7aSV/nKa3l5uZFZpo1obq7Ka3WhYB3V8eqVCxSWD7Otts9e/aN9u7ap8UOPPhkrVF8DAAAAAAAA/gdk1/UG+GEaPWZcDPnyq4iIeOvt91LHFy9ZEo8++WxqnJuTHUcednC11vxm8pR4+bW34qvhI2PO3HlRWloSTRo3jm7bbB377NU/tunSuUZ7XFFcHJ8OGhwDPx0cEyZ+E3PnzYtly5ZHgwb1o/lmm0W3rltH/113jg5bbVGjdevCiuLieP2Nd1Ljli2bR98+vdZ5zndTp8XHn3wWo8eOi5kzZ8Xy5SsiOzsrmjRuHFts0T56dO8avXp0j+zsij8T3343NT74+NOIiBj8+Rdpz5X9fCMijjrsoEqrDVXH08+9GMtXrApwbN2pQ/Tp1SMiVr3fjz7+ND79bEh8+913sXz5iqhfv3503aZz7LfPntG2TesKa0359rt45fW34qvhX8eMmTMjMzMrmjRuFH169YgjDz8omjRuXO19LVy4KD4aOCiGfDksvvlmSixavDiWLCmKwsJ6sVmzptGp41axy047RK8e3Wv1vquydNmyePudD6K0tDR1bPu+vaNF880qnV9SWhpDvvgyBn7yWYwZNz5mz5kbS5YURf3Cwthss6bRuWOH2HWXHaNH964bZb+1NW78xPj0s89j3PiJMWv2nCguLo6cnJxo1rRJbLXl5rFdn56xzdadI6NMgKs6RowcFR98/EmMHjM+Zs6cFYsWL4569QqiaZMm0XGrLWKnHbeP7fv2SQuGlVX2/v98yNC056pz/z/4yJNpbSF/ctzRa91r2WBU/cLCCs/Xq1cvFi1eHBERebl5ac/Nmzc/Xn3zndR4265donu3bSIiYtGixfHG2+/Gp58NianTpsfChYuiYcMG0b5dm+jXt08M2Kt/jcPDU6dNj/c++Di+Gj4yvps2PRYsWBglJSXRqFHDaNmiefTo3jX27L9rtGndqsq1Bn46OObMmRsREY0bN4pdduqXem7ipG/izXfejxEjR8e06TNi5criKCgoiC3at4sBe+8Ru+2yY4X1Zs+ZG2+U+buoaZPGse/ee9To/Q0ZOixGjx2fGu+yY79o365NWmCtXrm2oJkZGZGflxdLly2LiLUHDDMzMuKE446OG/7694iImDlrdrzy6ptx6MH712iPAAAAAAAAAN83wmtsFEO+/Cr+fvu/KxxfuHBR2vH6hYVVhtdWFBfHP/91dzz+1HNRUiasExEx6Zsp8cWXX8VDjz0VRxx6YPzu7N9EZmbVBQXfeuf9uPWO/4sZlbS7nDpteoweMy4+/PiTuPPu+2OnHfrG+eecEa1btaxy3bqybOmyuPZPN6fGu++601rDaxMnfRN/u/3O+PSzz6tct1GjhnH8j46IE47/UWRlrWnhOm78xEo/34iocPzg/QfUOrx2x533pYI5Rx52cPTp1SMGfjo4brzp1ko/uw8//iTuvu+hOOknx8YvfvbTyMjIiJUrV8Ydd94bjzzxTJSUlKTNnxARn3/xZTz21LNx/dWXpcJxa7OiuDjuu/+RePjxp2Pp0qWVzhk7bkIM/HRwPPDwE9G5U4e4+Pyzo8vWnWr1/itTUlISV1x9Q3z43/BURMR+++wZB+y3d6XzhwwdFn+55R8xcdI3le93/Kr93v/w49Ftm63j/HPPjC6dO26w/dbGl8OGx63/vKtaVRtbt2oZJ51wbBx28AFVzh07fkL8+abb4qsRX1f6/PgJk+Kzz7+IR598NjZv3y7OO+vX0a9v7wrz1uf+X7FiRbz6xpqqaz237Rbt27VZ657rraOqV8SqymyrvyPln585a3bafn5y7FHRvds28e4HH8d1f7o5Fi1anDZ/6rTpMWr02Hjjrffijjvvi4svOCt23bliEKy8+QsWxq3/uDNeff2tCr/RERHTps+IUaPHxnsffBz/+Pc9sd+APePsM34VjRo2WOuaDzz8eAwZOiwi4r9h0H6xZElR3HTrP+PlV9+s9JzRY8bF62+9G7vvulNcfflFkZubm3quYcMG8Z8HH4158+ZHRERWVlbs0LdPNGrUsMr3t9qt/7gzRo0ZFxGrWr3ut8+q8Fta5bWCip9RQUFBmfBaboXnVxuwd/+4+bY7Ytmy5RER8eIrrwuvAQAAAAAAAD942oayaSuNuOLqG+LRJ5+tNBRR1jPPvxz/vPPeKpe846774vKrb6g0/FSZgZ8OjlN++dsYMXJUteZvygYNHhI/P/3sagXXIiLmz18Q//q//8T5F19Z5y3sli5bGu++/1FccPEf1vnZlZSUxL0PPBKPPP50RERc+6eb46HHnqoQXCtr4cJFcckV18b8+QvWOmflypVx8eV/jHvuf3itwbXyxowdH78++4L48qsR1ZpfldLS0rjxr7emBdd23XnHuOSicysNbT77witx1nkXrzW4Vt6Ir0fHaWecF+9/OHCD7Lc2Xnj5tTjjnIuq3W546rTpceNfb01VrFqbDz/+NE4747y1BtfK+2bylDjngkvjyWdeqNb86vrgo0/SQmP7DdhznfPLVvJaWzBqtcqqJJa1YNGieOe9D+OyP1xbIbhW3tx58+L3l10Tb7/7wTrnTfn2u/j5r86Kl197s8rf6IhV9/Crr78dp/767Jgxc1aV81dbunRpnH3+JWsNrpX1/ocD47Y7/i/tWE52dhy0/4DUeOXKlfHG2+9W+/W/mTwlFVyLiNh15x1S1RoblKmIV75NaER6qLCwkudXKygoiN133Sk1HjZ8ZHw3dVq19wgAAAAAAADwfaTyGhvFbjvvEK1btoiIiBtvujVV7aZx40Zx0Xm/Tc2rKmzx8ONPx3sffBw5OTlxzJGHxm677hQtWzSP0tLSmDZ9Rrzy+lvxwkuvpeY/8vjTcdjB+0f7dm0rXe+Z51+K+x96LO1Yv7694+gjDo3u3baJ3JycmD1nbnz62efxyONPx7TpMyIiYtHixXHhpVfHfXfdFs2aNqn5BdkELFq0OC6/+oZUVZ+IiF126hdHH3FobNt9m6hfWBgrVqyI8RMmxfsfDYwnnn4+Fi5cFBERn372edzzn4fitJ+fFBER3bt2ieuvviwiIv599/0xYeKk1Jqrj6+Wn5/eynB99n/jTbdGSWlpbNOlcxx71OHRdZvOkZubG99+NzXuvu+h+OK/rWojIu69/5HIzc2NV19/OzIyMuKg/QfEfgP2jLatW0fxypXx+Rdfxp133x9z582LiIgFCxfGQ489Gb/+5c8qff1HHn86Pv5k0Jr3lZcXxx1zROy+607RpnXraNSwQcydNy8Gf/5l3P2fB2PSN1MiImLZsuVx1bV/jkfuvzNyqrjfq3LXPQ/ECy+vud+3690zrr7iokrXHTT4i/jLzbelBYo6ddwqTjju6Ojdc9uoV1gvFi5YFIOHDI0nnnk+xvy3HWJxcXFcfvUNceftN0XnTh3Wa781NXHSN/Hnm29P2/OB++8Thxy4X2yzdafIz8+PpUuXxuix4+Ptdz+IZ194OXU/P//iq9Gze7c46IABla57+dXXp937bVq3ihOO/1HssH2faNiwQSxZvCS+/GpkPPP8S6mKXxERN/39n9GmdcvYecc1bSvX5/5/r1wwcLdddop12W/AXrHfgL3W+vwDd/9jrc/l5KTfF998MyXeeuf9KCktja223CKOOeqw6NK5YzRu3CjmzJkbQ4cNj4cffzpmz54TEavazV7351ui57bdolmzphXWX7psWVx02TWp38mIiOabNYsTf3JM7Nivb7Rs0TwiIyNmzZwdn3z2edz34KOp4OnUqdPjosuujjtvv6nKvweWLl0Wt91xd4z4enTk5OTEEYceuOp716pVREbEpG8mx2NPPhufDFoTyn3q2RfjmKMOT6tqd9jBB8RDjz6ZGr/86ltx9BGHrvO1V3vz7ffTxoeVqYh20AEDKr3vVnvsgbuq9RoREbvvsnO88daa9qbvf/RJHHf04dU+HwAAAAAAAOD7RniNjaJtm9bRtk3riIj4W5m2dfl5edF/t52rvc5Tz74QTZs0jttuvjG22Lxd2nOtW7WMPr16ROtWLePOu++PiFVVt5578dU441c/r7DW3Hnz4rY77k47dubpp8aPjz0q7Vj9+oWxxebt4rCDD4gbb/p7vPr626nz//Gvu+Pyi39X7f1vSl594+1UGC0i4qc//lGFoFZOTk502bpTdNm6Uxx56EFx1vmXpqp2PfL403HST46N/Pz8aNasaepzfOzJZ9PWqMnnWxMffvRJlJSWxoH77xOXXHBOWqWxVi1bxLbdusZJvzgjpnz7XUSsChz+/R93RmZGRtzwx8srtD9s365NbNOlc5x6+tlR+t+w1GtvvltpeG3lypWpSm4REZmZmXHLX66NHt27ps1r0rhxDNi7f+y2yw5x6q/PTV27adNnxLvvfRQD9u5f6/f/5DPPx70PPJIad9tm67jhj5dHfl7FcOCK4uK48aa/p4XAjjr84Dj3t6enXbf6hYVxSOv94qADBsRd9z4Q9z3w6KrzV6yIP99ye/z7tr/Wer+18ewLr0RxmQp/F/3utxXagebn50fPbbtFz227xRGHHhS/Pe/3MXvO3IiIuOf+hysNEd3411vTgmv9d9s5/nDpBWnXrn5hYQzYu3kM2Lt/PPP8y/HXW9aE6P588+3x6AN3pUKC63P/D/niy9Tjtm1aR/PNmq1z/vrIK3dvrK4AuM9e/eOKi3+XFhpr1bJFdOvaJQ7Yb+/49VkXxuQp30ZExJIlRfHI40/HGaefWmH9Bx95Iq2q39adO8Ytf762QjvQ1q1bxhGHHhh777lb/Pa8i2PsuAkRsarN57MvvBJHH3HIOt/Ht99Nje++mxqNGjWM22++Ibbacov09Vu1jB379Y2LLrsmPvz4k4hYVeHt5dfeSAVuI1Z95/v06pEKJ44cNTq+mTwlNm+f/ndLZV57853U4xbNN4sd+vWt8pza6NM7vXXxkC++FF4DAAAAAAAAftC0DWWTVlpaGhece2aF4FpZJxz/o7S2bGtrifnkMy9EUVFRanzYwQdUCK6VlZeXG5dddF7069sndey1N9+JmbNm1+QtbDJGl2l5l5WVFT8/6YR1zm/WrGmc+9tfRUZGRrRo0Ty6de2SVmEpaSWlpdG2Teu46HdnVdoiMy8vNw4/9MC0Y8XFxXH8MUdWCK6t1qVzx9h+u16p8YwZMyt9j6PHjos5c+elxv369q4QXCsrPz8/Tjv1pLRjgwYPWev8qrz97gdxy63/So07bLVF/OX6q6KwXuUtCN96+/2YOnV6atynd48496xfV3rdIlaF8U77+Ulx5GEHp44NH/F1WiW7JKwONUVEtGjRPA49aP91zI7YYvN2ceopP43MzMxo07pVtG3TKhYsXJg258thw9Patm7evl1ceemFlYb+Vjvi0APj16etCTFOnzEz3nir+i0m1+bb76am/X703Lbbeq9ZUy1bNI/LLjp3rdXOmjRuHJdccHbasTfefq/CvBUrVsTjTz2XGmdmZsZVl11YIbhWVsMGDeKKi89PO/boE89UuefS0tIoKS2NP1xyQYXg2moZGRlx2qknph0b8sWwCvMOOyQ9DPnya29V+fpjxo6PbyZPSY0PPmDfyMzIqPK82mjWtElamC7p7yAAAAAAAABA0oTX2KRt3r5dlZWMcrKzo9s2XVLj8eMnxooy1ZtWe+2Nd1KPMzMy4tRT1h3eilgVyDjnzF+lxiUlJfH2ux9UY+ebnozMNWGL0pKSmDd/fpXnbNe7Z7z9ytPx9CP3xm033RBbbrH5xtxilY49+vB1tt7sts3WaeOMjIw47pgj17lmt65d0sZlW0Cu1qZVq/jrDVfFJReeE6f/8pS0kNfa7Nhvu8goE3BZXcmqpoZ8MSyuvPbPqSpgbdu0jptuvCYaNWq41nPKVomKiDjt5ydVK2xz+i9OTgt1vVlJaGljKhuuW1q0NJYvX1HlOQcfMCDefuXpePzB/4tb/nxtNGyQHp567c300NnPTjw+8vJyq1z3+GOOXNX28r/Kt42sjfET0u+tDh22XO81a+pHRx0Wubnrfv89e3SPLbdonxrPmDkr1QZ3tU8/G5JWybH/bjtXq4JZxw5bxna9e6bG3343NS20uDZdu2wdO/bbbp1zOnXYKi08N6aSdffqv2vanFdffyutQmFl3nh7zT2UkZERBx+4b5X7XR9bbbnmd3bhwkXf28A0AAAAAAAAQHUIr7FJ26OaLSibNWuSelxSWhozZsxMe372nLnx7XdTU+PevXrEZs2aVmvtLbdonxbkWN1y7vumfds2qcclpaXxt9v+VWVoIzMzM3Jycjb21qpt5x23X+fzzZqmf6adOm5V5edcvm3j7NlzK8xp1Khh7LTD9nHwAfvGiT8+Jnbfdacq95qflxdNGjdKjRcvWVLlOeWNHTchLrrs6lQrzeabNYtb/vzHdbaaLC0tjWFlKo21aL7ZOqvElVW/fmH03a53apx01afWrVumHi9YuDDuvOf+Ks/Jzs5eaxWxiIgvvxqeepyTk1Otzy5i1b1fNji7Ia7F6pa2q61urZyk3XbeoVrz+vbplTYeNWZs2njwkKFp4113qt66ERE7lAuhjfh6VMVJ5bKWe/TfpVprtygTOCwqKkoL2EWsugcO3H9Na9npM2bG0KFr/2xLS0vj9TIByO236xWtW7Vc6/wNoX27Nmnj8vcNAAAAAAAAwA+J8BqbtG26dK7WvPIVmubPX5A2HjU6PXjRtVyFrqq0bbMmTPDN5NpV0Kpru+zUL2387gcfx+8uuuJ7E4yoX1hYZdgnOzsrbbx1p45VrpuXm94+cnGZ1rLrK2M9WgtOnTo9zvv9FanQW6NGDePmP10TbVq3Wud5U76dmhaU67rN1jXaR9s2a9afPPnbKgOOG9Ju5dq7PvzYU/HHG26K2bPn1Gq9ZcuWx4SJ36TGHbbcPAoKCtZxRrrWZa51UVHRelfAKl99r+y1TkK9egXVqo4Wsao1bVll29BGRIwbPzFt3K1r9X9TO3fcap1rRaz6vpe1bbdtqrV2+fMWLV5cYc6hB+2XNn7l9bW3Dh0+clRMLxOGrqqV7YbQpnX671zZ4DUAAAAAAADAD83ay9XAJqC6FW6Ky7UJXbZsedp46rT04MXoMePi/+57sNr7KBs6+fZ7EvYqb6stt4gBe/ePN95a0wry088+j+NPOi169egeu+zUL3r26B5bd+pYrbaKSWvZsnnVk8pp0WKzjbCTiLnz5sWQoV/F+PETY+bs2TFz5qwoWroslpSrrjZ37rxarT9v3vw496LLUqGtwnr14qYbro6tttyiijMjvps6rcK4Jvf6VyO+Tj1eUVwcM2bMjFYtW1T7/PWx847bR/du28TwMnt4+bU347U334kd+20XO/brGz26d41OHbeKrKysday0yoyZM6OkpCQ1XrBwUY2uRdl9RKyqgLWuqndVWbIkPRhZWK9erdeqjRbNq/8datqkSdq4fJvhOXPTKxS2blX9IF75fUwvVymzMm2rCG2uzeLFFSsebrnF5tGzR/f4ctiqqnxvvft+nHfWryv93SvbbrpRwwZVtrHeEBqXqdgYEbF4yYYL1AIAAAAAAABsaoTX2KQ1bNhgg6yzYOHCtPGgwUNi0OAhtVprRXFxlJSURGbm969w4UXnnRWLFi2OgZ8OTh0rLS2NL778KtUWMSsrK7p07hh9eveMPfvvGt1qWKVuQ6pXryBVOalhg5rfCw1qcc66fP7Fl3Hv/Y9UaJm4IS1duizOv/jKmDxlTUiyefPNqhVci4gKbRLHjB0fY8aOr/V+Fi5clFh4LSsrK6676tI4/+I/pO155cqV8dHAQfHRwEEREZGbmxvdu3aJvtv1ir3675bW1resBQvSv/dTp02Pu+97qNb7K39ta6po6dK0cYP69ddrvZpqUi4UtS7l91a+gtmiMqGw7OzsGgVeCwry08aVBczKK6xfWOWcypSupXLg4YcckAqvLVlSFO99+HHsu/ceaXNKSkrirXfeT43333fvRNoo5+eVqwa5qGL1OAAAAAAAAIAfiu9f+gZqYWG5EMv6Kl9B6fuiXr2C+Mv1V8WVl10Y3bttU2k7yZUrV8aIr0fHg488Eb/8zblx+m/PX6/w0/rYlAKCd959f/z2vIsrDa7lZGdHk8aNo3XrltGp41bRqeNW0b3bNrXa/wsvvRojR41OOzZx0jfx17/9o1rnLymqOgi0KdusWdP4v3/eEued9esKrStXW758eQwZOizuuueBOOFnp8eFl15VafWu8mGxulY+pJV0hcP1+T6VD4EtKfNeyoetqpJVbh9Lly2r8pwNXaVu7z12i/plAnGvvFaxdejgIV/G3HnzUuMkWoZGROSWC8hV5/oAAAAAAAAAfF+pvMYmrbaViTIy00NZ9coFH/rvtnP07tWj1vvaFNtqVldGRkbsu/cese/ee8S8efPjs8+HxpChw+KrESNj/PiJUVIupDJs+Mj41W9/Fzf/6Y/Rq0f3Otp1VKtN5IaQl1uxstILL70W9z7wSNqxbbttE0cdfkj02LZrtGrZotJg0P6HHluhYlVVVl//3NzcaNyoYcyYOSsiIl585fXo3XPbOOiAAes8Pzsr/We9W9cuMaBcRamaWJ82mbWVlZUVRx9xSBx9xCExY8bM+HTwkPhy2Ij48qsRaS18V/vw40/jqxFfx79u/Uu0b9c2bZ2y2rdrE0cefkit99Wxw5a1PjciKlTtKi4uTqSS12plW6jWVGZG+v1dUJCfureXr1hRo7VWlttHXu7G+z2tv5aKbbm5ubH/gL3jyWeej4hVLZRnz5kbzZquaZf6xlvvph5369plrWHKjS07O5nfPgAAAAAAAIC6ILzGJm3lypW1Oq98lZ78/PQ2dZ07dojjjj681vv6oWjcuFEM2Lt/DNi7f0REqqXoMy+8FEO+GJaat2zZ8rj6ur/EI//5d6Jhm7IqqxK3MeSVqyJVUlIS/3ffg2nHfnzsUXHGr35e5Z7Kh3Sqq1mzpnHjHy+P7Kzs+OUZ58WK/4aD/vq3f0SXrTutM0RVPqyzRft23+t7vUWL5nHIgfvFIQfuFxERc+fNi/c/HBhPPftiWkXA+fMXxHV/uiX++fc/p47VL0y/Fk2bNKnTa5Gfn35vLVu2PAoKChJ7/eLi4mrPXbY8vdpXYWH6b2rDhg1i5qzZEbGqEl5xcXFkZ1fvnxTLl6eH3cr/Pm9I69rT4YcckAqvlZSUxBtvvRvH/eiIiIhYsWJFvPP+h6m5hyVUdS0iYklRemXPmla2AwAAAAAAAPg+2XR68kElyv8nfnWVD1g1bdI4bTx7ztzabukHrX79whiwd/+47aYb4oqLz08LfkybPiM+GjiozvZWk+DNaitrcU754OOYcRNS1c8iIlq3bhm/Oe1nVQbX5s2bH0W1uH87dtgy7r7jb9G1y9bRuVOH+O2vT009t3TZsrjsquvXuW7jxo3SxmX3/kPQpHHjOOzgA+Luf/09Tv/lKWnPffnViBg3fmJqXOFazKrba1E+AJZ0W9PpNbgX5s9Pb7XcpNy1bNmiedp45szZ1V57xsz0Fq8NG1ZdYbM23/+IiIJ1BOM6dtgytu22TWr88mtvph5/+tnnsWjRqspy+fn5sc9e/Wv1+rWxrFyb0LyNGO4DAAAAAAAAqGvCa2zSiotrV3mtfFvP8pWqxk+YWMsd/e/Yf9+94pSfHp92bNjwkXW0m4glS5bU+JzahIPq1UuvhPXN5Clp4x23367SFqHlDf1qRI1fOyKib59esVmzpqnx0UccGv132zltP9f/5e9rPb/DVlukBesmTJwUpeVawf4QZGZkxIk/Pib233evtOPDhq+57s03axaNGjZIjadNm1GrQOGG0qRx47TxnIRDtLNmza72+5/y3Xdp43Zt26SNu3TulDYeM258VNekb9K/U1ttsXmV5yxduqzKOZXJy1931bLDDjkg9XjM2PExfsKkiIh49Y13UscH7NW/wu/CxjRr9py0cbMmTdYyEwAAAAAAAOD7T3iNTdrSWlYmKl9tp3OnDtGgwZrqPl8NHxnz5s2v9nq1rfqzqSkuLo4ZM2ZWPfG/ygY7IlZVX6srtWnBWVRU8/unfJvBFeVaHDZtWr0gyUuvvF7j116biy84O1qUqXT15tvvxdPPvVjp3PqFhbF1546p8Zy582Lk16Or/Vp1fa8vX768QnhnXY449KC08dRp09PGfXr3TD0uLS2NDz+ufvXADX0t2rdLD4BN+XbqBl2/KiUlJTFk6FfVmjtiZPo907lTx7Txtt23SRsPGjyk2vsYPGRo2rjHtt2qPGdF8Yoq51Qmp4pWpvvsuXtaMO3l196MpUuXxocff5o6dshB+9XqtWur/H1R/r4BAAAAAAAA+CERXmOTtmJF7QIL5QNImZmZsc+eu6fGJaWl8cgTz1RrranTpscBhx8fZ59/aTzy+NM1Cn9tKl5/6904+Rdnxj4HHR0n/uKMWocCc3NzqpxTspGqfC2uReW1lStrXrmvfNvQwvqFaePqBPg+/ezz+OCjT9KOLVu2vMZ7Wa1hgwZx1WUXplV8+9tt/45Ro8dWOn/fvfdIGz/46JPVep2ioqI46sc/i9PO/F3c85+HY+KkybXec0099OiT8ZNTfhX7HHhUnHPBZdW+j0rKhRoLCtIrZJW/Fg8//lS1KtGVlJTEqb8+J07+5Zlxx533xshR1QsArlhH4K189bJvv0s2vBYRaw09lrVw4aIY/PkXqXHrVi0rBKj69umVFgh+5fW3Um0212XmrNlp7YebNW0SPasRXqtN5bXy90Jl8vPzY/8Be6fGr73xdrz34cDUb+SWW7SPHt271vi118eUb79NG7dt2zrR1wcAAAAAAABIkvAaG11G5poWhrNmz6lWwGG12gZ+6hXWq3Ds+GOOSgu1PfzYUxUqAJW3dNmyuPr6v0ZRUVF89vkXces/74p58xfUak91qV5BQYwdPyGKi4tj0aLFcf1f/latYOBD5UJP22zducKc7OystPH48RPXueYzz78UJ//yzNSfZ55/qeo3EBGlJTUPxS1ZUvMWkTk56cHHTuVazn740SexaPHa7+HBQ4bGZVdeH5kZGVG/cE3wbfacObUK063Wc9tu8YtTfpoarygujkuvui4WLlxUYe6hB++f1i7znfc+jJdfe3Od65eUlsafbrotZs+eE8NHfB133ftAjB03odb7ramsrKyY9M2UKCktjQkTJ8U//31PlSGz0tLSeOTxp9OOde64Vdq4/+67xBabt0uNvx41Ju594JEq9/Pvu++PseMmxNhxE+L+hx+Pzz6v/LciJyc90DlpHYG/rTt3jMwyLV2/Xkv4cGP6aOCgePvdD9Y558577k8L4e1dJvi7Wk5OThx1+MGp8ZIlRfGXW25fZ+iwpKQk/nLL7WkV7Y49+ohqteGtzd8FWdVYNyLi8DIVJmfNnhP//Pc9qfEhByZbda20tDTtvmjbpnXa7wgAAAAAAADAD43wGhtd29ZrqsYUFxfHVdf9OaZOnR6lpaUxder0WLBw4VrPrW2ruLIBkdXat2sTJ59wXNpefnfRFXHPfx6u0KawpLQ0Bg0eEqedcV58OWx46vghB+6X1pLx+2LnnfpF504dUuM33novTjntrHjtzXeiqKhiwGvGzFnx55tvSwsG1S8sjP0H7FVhbpvWrdLG1/3p5hj33wDb7NlzKlQqmz1nbioUNHbchJg9Z2613kNtwisrS2oeFsvLy0sbt23TOu0zn79gYfz+8mtixsxZqWOlpaUxfMTXcdV1f4mzfndJLF6yJE7/5SnRZetOqTlLlhTFU89WXfVqXU484djYfrveqfHUqdPjuj/fUiHkVb+wMM4581dpx/54w01x09/vqLTa14iRo+Kc8y+N1958J3WsT68esfdeFUNLG8vBB+wbzcq0ZH3o0SfjN2dfGB8NHFRp+85J30yJi6/4Y7z/4cDUsbZtWsdOO2yfNi8zIyMuPO+3ab8Jd93zQPzhjzdWGs6bOOmbuPyq6+P+hx5LHWvfrm0cc9Rhle67TeuWaePr/nRzjB2/at3Zc+am3f/1Cwujc5l76cuvhm+0SoWVWf1dvfLaP8e9DzxSIYQ5f8HCuPnWO+LJZ15IHatXryCOO/rwStc74fgfRcsy7Wxff+vdOP/3V6Tef1njJ0yK3/3+D2kVCbfcYvM49ujKr2v5QFttqnBmlQvWrk3nTh2ia5etU+PV3+3s7Ow4cL99avy662PipG9ifpmAdJ/ePRJ9fQAAAAAAAICkZVc9BdZP/912is/KtKD7aOCgtLZxt910w1r/gz4nu+o2lTVxyonHx+Rvv4vX3ng7IlZVr7rr3gfi/+57MNq0bhXNmjWN0pKSmPTNlAqhuu1694xzzzp9g+4nKZkZGXHdVZfGGedclApmTJz0TVx17Z8jKysrOnbYMjZr1jRKS1e1SZ046ZsK5198wdnRqFHDCmvvtcdu8ewLr6TGo8aMi5N+cUZqfNYZp601/FITeXm5671GdVRW7es3p/08zrtwTSvLIV8Mi6N//LPo1HGryMzMjMmTv01ra7rfgL3iJ8cdHcuWLU+r7nfLbf+KF195PXJzc+PmP11ToUVpVTIzMuKKS86Pk35xRsybNz8iIt774ON4+PGn4yfHHpU2d78Be8U3U76Ne/7zcOrYk888H08+83y0atkimm/WLDIyM+Pbb7+rECBs365t/PEPF1caAt1Y6tcvjBuuuTzOueCy1LX88qsRccElV0Z+Xl5steUW0bRpk1i5sjgmTZ4SU6dOTzs/Py8vrrz0gsjKqhhY6t1z27jod2fFjX/9e+ozfOOt9+KNt96LZs2aRquWLSInOzumTpse08u1BW7UqGH8+bo/RH65UONqe/bfNZ55/uXUeNSYcXHyL85Mjcvf/31790y1e124cFGMHz8xOpWrFreh1Ct3f/Xq2T122qFvPPXsi3Hn3ffH3fc9FG3btI4mjRtF0dKlMW78xArVAc8/+4xo1qxppesX1qsX119zefz23N+nPrNPBn0enwz6PJo2aRytW7eK7KysmDp9RoV2y803axY3/vHyyM2t/Htdr17VLT+rsrK4+uHVQw/ev0Jr2N122TEaN2603vuoic+/GJY27tunV6KvDwAAAAAAAJA0ldfY6A475MDYtts2ib5mZdXEIlZV87ni4t/FGaefmhaGKi0tjW+/mxpfDhsew4aPTAuuZWVlxXFHHx433Xj1WgMs3wdtWreKe++8LfYbsFdklAklrVy5MkaPGRcfDRwUH38yqEJwrXXrlvHXG6+OPfvvWum6/fr2iX326r9R9x4RaS1fq6s27fYqa8PZr2/vuPiCc9JaRJaUlMToMePi61FjUsGdjIyMOP6YI+Py35+XetypQ3owaczY8TF8xNe1aoMaEdGsaZO44uLz047dcee9MWz4yApzf3HKT+MPl5xfIXQ4bfqMGDZ8ZHw5bHiF4Nq+e+8Rd95+U+KhnYiIbl27xH133hb9+vZOO7502bIYOWp0fPjxJzHw08EVgmudO3WIO279S3Tr2mWtax9y0H5x05+uiVYtW6QdX90m9Ysvv6oQXOvXt0/c++9bo327tmtdt1/fPrH/vhUrEq5N+Wp2b77zfrXPranK2mae+9vTU+0+V65cGd9MnhJDhw2P0WPGpQXX8vJy49ILz63yvXXp3DH+fftf0yo7RkTMmTsvho/4OoYOG14huLbD9tvFnf+4Odq1bVPt91JQkF/tuautLCmp9tx9994jCgrSA3OHHXzAWmZvPG++/V7qcW5ubuyyU7/E9wAAAAAAAACQpKwrr7zyyrreBD9sWZmZsf+AvSInOyfmL1gQCxYsjNLS0mjWtEn06tE99tmrfzRs2CAiIhYsXBj16hVE504donOnDrHzjttXWu2rvLnz5keTJo1T5+20w/aRm1N51baMjIzo0b1rHHHoQdGgYYNYsWJFzF+wMK01YX5eXmzduWMcctB+cdnvz4t99upfaUWnJCxfviKWFBWl3lvvnttGxw5bps0pKS2NmbNmpeb06N4tulcS5MnPy4s9d98lBuzdP/Lz82Px4sUx/7+fR1kFBQXRt0/POPmnx8VFvzsrNl9HeCciYo/dd4kmjRvFvHkLYv78+VFSUhKNGjWMbl23jn332iNat1rTWnHRosWRm5uT2ut2vXrGFpu3r3TdBQsWRuvWLaNzpw7Ra9vusV2fnuvcR8nKkpgzb96aa9WrR4VrVV5RUVGUlJakzunbp1c0ruSe69ypQwzYu3+UlpbGvPnzY9GiNS0XmzRuHP133SkuvuDsOPiAfVPhwJycnDhw/32icaOGsWJFcWRkZETr1i1ju949Y4/dd43s7KwoLi6OBQsXrvPzLa9d29bRuFGjaNy4UXTu1CE6dtgy5s6dV2mVpo4dtoqjDj84WrTYLIqLV8b8BQti+fI1LRizs7Ojw1ZbxH4D9ooLzj0zjjrikMSq3FWmQYP6ccB++8TOO/aL3JycWLhwUaWthRs1ahg77dA3fvWLk+Os3/wyNltLdbCy2rZpHUcdcUhs3q5drCxZGQsXLo6lS5emns/MzIzN27eNvfrvGmefcVqc/NPjo7Cw6up4u++6UzRp3Cjmz18Q8+b99/5v2CC6bdOlwv3ffLNm8cZb78X8BataQ86YNSuOOeqwtEDphrJ8+Yp44OHHU+POnTrEHrvvErvs1C926tc3lhQtjXnz5qeuQUZGRmzevl0cfMCAuOKS86NPr+q1rGzcuFEcdsiB0bnjVlFSWhoLFy6MoqL069qubevov9vOcc6Zv4qTf3pclVUH589fEA0a1k99L3bfZafIz686PDx77txo3rxZdO7UIbbcon30323nar2HnJycGDZ8REye8l1ERLRs0TzOPev0jfK5rM206TPi7/+4MzXeY/dd4oB9907s9QEAAAAAAADqQkZpZT3y4H/Q4iVLYmnR0sjLz6tVxa7vqxXFxTF16rRYunRZlEZEk8aNVrWUTDC08X20YsWKWPjfIN737X4pKiqKJUuKIi8vLwoL623yn/XSZcti2rQZsWz58sjOyorGjRqutZVlbdZevHhJ5ObkRGFhvcispFrZhvbYk8/G327/d2p8043XxI79ttvgr7No0eLY/7BjU+MD998nLrvovArzliwpiqXLlkWD+oVp1QXXx+rrmpOTHYX16tVZ+Le6liwpisOOOTFVtfPnJ/8kTj35hET3cMed98b9ZcKGt918Q7UDhAAAAAAAAADfVzXvwwc/UIX16lVZDeiHKCc7OzZv366ut/G9k5OTE02bNK7rbdRKQUFBhRaJm7L8vLzYcovKq/NtiLWTbgd8+CEHxr0PPBLz56+qvnb/w49tlPBaddWrVxD16m3Y+6Euruv6ePaFl1PBtYyMjDj4gH0Tff1FixbH08+9lBp377aN4BoAAAAAAADwP2Hjl5gBAFLy8nLjxB8fkxoP+WJYDB02fKO/7pIlRRv9Nb6P5i9YGPc/9Fhq3K9vn2jVskWie3j0yWdi0eI1rYh/+bOfJvr6AAAAAAAAAHVFeA0AEnbs0YfHVltukRrf9Ld/xsqVKzfqa5aUlGzU9b+PSkpK4urr/hLzFyxMHTvuR0ckuoepU6fHAw8/kRrv2X/X6Ne3T6J7AAAAAAAAAKgrwmsAkLCsrKy48NwzIjMjIyIixo6fEI89+Wwd7+p/yzeTp8TZ518aAz/9LHVs5x37xU479E10Hzfd+s9Yvnx5RKxqX332b36Z6OsDAAAAAAAA1KXsut4AfF/97fZ/x5ix4zfa+gftPyAOOmDARlsfquvJZ56Pt9/9cKOt37NHtzjt5ydttPU3VT17dI+TTjgu7n3gkYiI+Ndd90XfPr1i684d63hnP1znXnh55ObmxLRpM2LchIlRWlqaeq75Zs3ikgvPSXQ/Tz37Ynw0cFBq/Pvzz4oWLZonugcAAAAAAACAuiS8BrU0Zuz4GDJ02EZbv0/vHhttbaiJKd9O3aj3ev36hRtt7U3dz0/+SQwdNjyGDB0WK4qL44prboi7/nHL//Q12Zg+/ezzSo+3ad0qbrrx6mjapHFiexk9Zlzc+s+7UuOjDj849t5z98ReHwAAAAAAAGBToG0oANSRrKysuPaqS6N9uzYRETF5ynfx+yuuiRXFxXW8s/8N9QsL46c//lHc8++/R/t2bRN73dmz58RFl12dahe6Y7/t4pwzf5XY6wMAAAAAAABsKjJKy/bMAgASN33GzBg1emxq3K1rl9isWdP1WrO4uDitJeVmzZpGt65d1mvN77vJU76NqdOmR2lpROPGjaJzx60iMzP5HP+EiZNi8pTvUuO+2/WKwnr1Et8HAAAAAAAAQF0TXgMAAAAAAAAAACBx2oYCAAAAAAAAAACQOOE1AAAAAAAAAAAAEie8BgAAAAAAAAAAQOKE1wAAAAAAAAAAAEic8BoAAAAAAAAAAACJE14DAAAAAAAAAAAgccJrAAAAAAAAAAAAJE54DQAAAAAAAAAAgMQJrwEAAAAAAAAAAJA44TUAAAAAAAAAAAASJ7wGAAAAAAAAAABA4oTXAAAAAAAAAAAASJzwGgAAAAAAAAAAAIkTXgMAAAAAAAAAACBxwmsAAAAAAAAAAAAkTngNAAAAAAAAAACAxAmvAQAAAAAAAAAAkDjhNQAAAAAAAAAAABInvAYAAAAAAAAAAEDihNcAAAAAAAAAAABInPAaAAAAAAAAAAAAiRNeAwAAAAAAAAAAIHHCawAAAAAAAAAAACROeA0AAAAAAAAAAIDECa8BAAAAAAAAAACQOOE1AAAAAAAAAAAAEie8BgAAAAAAAAAAQOKE1wAAAAAAAAAAAEic8BoAAAAAAAAAAACJE14DAAAAAAAAAAAgccJrAAAAAAAAAAAAJE54DQAAAAAAAAAAgMQJrwEAAAAAAAAAAJA44TUAAAAAAAAAAAASJ7wGAAAAAAAAAABA4oTXAAAAAAAAAAAASJzwGgAAAAAAAAAAAIkTXgMAAAAAAAAAACBxwmsAAAAAAAAAAAAkTngNAAAAAAAAAACAxAmvAQAAAAAAAAAAkDjhNQAAAAAAAAAAABInvAYAAAAAAAAAAEDihNcAAAAAAAAAAABInPAaAAAAAAAAAAAAiRNeAwAAAAAAAAAAIHHCawAAAAAAAAAAACROeA0AAAAAAAAAAIDECa8BAAAAAAAAAACQOOE1AAAAAAAAAAAAEie8BgAAAAAAAAAAQOKE1wAAAAAAAAAAAEic8BoAAAAAAAAAAACJE14DAAAAAAAAAAAgccJrAAAAAAAAAAAAJE54DQAAAAAAAAAAgMQJrwEAAAAAAAAAAJA44TUAAAAAAAAAAAASJ7wGAAAAAAAAAABA4oTXAAAAAAAAAAAASJzwGgAAAAAAAAAAAIkTXgMAAAAAAAAAACBxwmsAAAAAAAAAAAAkTngNAAAAAAAAAACAxAmvAQAAAAAAAAAAkDjhNQAAAAAAAAAAABInvAYAAAAAAAAAAEDihNcAAAAAAAAAAABInPAaAAAAAAAAAAAAiRNeAwAAAAAAAAAAIHHCawAAAAAAAAAAACROeA0AAAAAAAAAAIDECa8BAAAAAAAAAACQOOE1AAAAAAAAAAAAEie8BgAAAAAAAAAAQOKE1wAAAAAAAAAAAEic8BoAAAAAAAAAAACJE14DAAAAAAAAAAAgccJrAAAAAAAAAAAAJE54DQAAAAAAAAAAgMQJrwEAAAAAAAAAAJA44TUAAAAAAAAAAAASJ7wGAAAAAAAAAABA4oTXAAAAAAAAAAAASJzwGgAAAAAAAAAAAIkTXgMAAAAAAAAAACBxwmsAAAAAAAAAAAAkTngNAAAAAAAAAACAxAmvAQAAAAAAAAAAkDjhNQAAAAAAAAAAABInvAYAAAAAAAAAAEDihNcAAAAAAAAAAABInPAaAAAAAAAAAAAAiRNeAwAAAAAAAAAAIHHCawAAAAAAAAAAACROeA0AAAAAAAAAAIDECa8BAAAAAAAAAACQOOE1AAAAAAAAAAAAEie8BgAAAAAAAAAAQOKE1wAAAAAAAAAAAEic8BoAAAAAAAAAAACJE14DAAAAAAAAAAAgccJrAAAAAAAAAAAAJE54DQAAAAAAAAAAgMQJrwEAAAAAAAAAAJA44TUAAAAAAAAAAAASJ7wGAAAAAAAAAABA4oTXAAAAAAAAAAAASJzwGgAAAAAAAAAAAIkTXgMAAAAAAAAAACBxwmsAAAAAAAAAAAAkTngNAAAAAAAAAACAxAmvAQAAAAAAAAAAkDjhNQAAAAAAAAAAABInvAYAAAAAAAAAAEDihNcAAAAAAAAAAABInPAaAAAAAAAAAAAAiRNeAwAAAAAAAAAAIHHCawAAAAAAAAAAACROeA0AAAAAAAAAAIDECa8BAAAAAAAAAACQOOE1AAAAAAAAAAAAEie8BgAAAAAAAAAAQOKE1wAAAAAAAAAAAEic8BoAAAAAAAAAAACJE14DAAAAAAAAAAAgccJrAAAAAAAAAAAAJE54DQAAAAAAAAAAgMQJrwEAAAAAAAAAAJA44TUAAAAAAAAAAAASJ7wGAAAAAAAAAABA4rLregPAD9P9Dz0Ww0eOSo2vvPSCyM/Pr8Md1b3BQ4bG4089lxofc9Rh0bdPr7Q54ydMin/f/Z/UeLedd4xDDtovsT0CAAAAAAAAACRFeA3YKIaPHBXvfzgwNS4uXlmHu9k0TJ8+M+2a9N915wpz5s9fkDandauWiewNAAAAAAAAACBp2oYCAAAAAAAAAACQOJXXgBp57Y23Y+78BdFis2ax1x671fV2fnAKCvKjU8etUuPmmzVL9PU/GjgoJn/7XRTWK4hDDtSuFAAAAAAAAADYeITXgGorKSmJG2+6LZYuXRp9evWoUXgtO8fPTXVs06Vz3HfnbXX2+rf/6+6YOOmbaNWyhfAaAAAAAAAAALBRaRsKVNukbybH0qVLa3Vufl7eBt4NG1pRUVF8883kut4GAAAAAAAAAPA/QngNqLbhI0fV9RbYiL4ePTZKSkvrehsAAAAAAAAAwP8I4TWg2kZ+Pbqut8BG5PMFAAAAAAAAAJKUXdcbADZtAz8dHMNHfh0REZ8M+jx1fOq06fF/9z2YGrdu2TIOOmBAtdd8/c134uvRY2PuvHmRnZUVTZo0jl49to0D9t0runXtUqM9zpk7L9565/34fMjQmDBpcsybNz9KSkqiQcP60apFi9i22zaxz179o3OnDjVaty5MnTY9Xnr1jdS4e9dtYqcd+q51fklpaQwd+lV8MmhwjJswMWbPmRsrV66MrKys2KxZ09hqy82jd89tY/vtekdOTk6F84eP+DoGDhocEREffPRJ6viiRYvTPt/c3Nw48cfHbIi3CAAAAAAAAAAQEcJrQBU+GTQ4Hnvy2QrHp02fEXff91Bq3KdXjyrDa/PmzY8//PFP8dnnX1R4bvacuTF23IR48pnn4/hjjowzTz81MjIy1rlecXFx3Hv/I/Hgo0/G8uXLKzy/aPHimDp1egwZOizuf/jx2HnHfnHheWdGi+abrXPdujRtWvp1Pfbow9caXnv/w4Fx2x3/F1O+/a7S50dFxIcffxoPPPxENGrYIE44/kfx42OPiszMNUU3vxo5Ku31Vlu0eHHa8fqFhcJrAAAAAAAAAMAGpW0okIhFixfHb393caXBtfIeefzpePSJZ9Y5Z0VxcZx/8ZVxz/0PVwiuZWVlRW5uboVzPv5kUPz8V2fHhImTarL1TdIjjz8dv7/8mgrBtZycnGjcuFGF9z9/wcL4x7/viSuuuTFKSkuT3CoAAAAAAAAAQKVUXgPW6egjDon+u+4cS4qK4sJLr0od79RxqzjnjF+lxvXrF651jcJ69eIvN98e4ydMihbNN4uTTjg2+vXtE8032yyKVxbH5MnfxpPPvhAvvbKmXeZd9z4YB+4/IBo1bFDpmjf97Z8xaPCQ1DgzMzMOP+TAOOzg/aNjhy0jKysrZsyYGR98/Gk8+MgTMW36jIiImDtvXlxwyVXxn7tuj3r1Cmp9XerS6DHj4vY7/i81zszMjON+dEQccuC+scXm7SMjIyNKS0vjm8nfxlvvvB+PPP50LFq8OCIi3n73g3j62Rfj6CMOiYiIvfrvGlt3XNVO9Yprbog5c+dFRETTJo3j6st/n3qNrCxZZwAAAAAAAABgwxJeA9apXds20a5tm1i0aHHa8Qb160ef3j2qtcaSoqJ4/a13Y5suneNvf742LeiWF7mxTZfOcemF50ZBfkE8+czzERFRVFQUb7z1bipkVdbwEV/Hcy++khrn5ubGn6/7Q2y/Xe+0eS1aNI+jDj84Dtxv77jqur/E+x8OjIiIqdOmx38efDRO/+Up1dr/pubZF15Jq5529eUXxV577JY2JyMjI7bYvF387KQfx0EHDIhfn3VBTJ8xMyIiHnzkidR1bdF8s1Qb1bLV2nJzc6v9+QIAAAAAAAAA1IZSOsBGV1paGtnZ2XHlpRess0LbyT89Lm1ctrJaWQ8+8kTa+Kzf/KJCcK2sgoKCuOYPF0eXzh1Tx5589oVYtmz5Ws/ZlE2aPDn1uH27NhWCa+W1bNE8fnHKT6NhgwaxTZfO0XPbbrFg4cKNvU0AAAAAAAAAgHVSeQ1IxO677hTt27Vd55xmTZtE69YtY+rU6RERMWrMuApzioqK4qOBg9ac06xpHHbwAVW+fk52dvzqF6fEeRddHhERS5YUxcBBg2OP3XauydvYJGRlZqUez5kzL4qKiqKgYN0tUA86YEAcdMCAjb01AAAAAAAAAIBqU3kNSMSuO+9QrXmF9eqlHs+aNTtWrlyZ9vzXo8fGiuLi1HiP3XaOrKysqI5+2/eJ/Ly81Hjol19V67xNTbu2rVOPFy9ZEn/7x51RWqaNKAAAAAAAAADA94HwGpCIbbbuVONzSkpKYvGSJWnHRo4akzbutk2Xaq+XmZERbdq0So2nfPtdjfe0Kdh91/Rqcc+/+GpceOlVMXnK9/P9AAAAAAAAAAD/m7QNBRLRulXLWp23ePGSaNigQWo8bdqMtOfffu+DGD22YnvRtZkxY1bq8fc1vLZDv+1iu9494/Mvvkwd+2jgoPho4KDo1rVL7LRD3+jRvWt069ol6hcW1uFOAQAAAAAAAADWTngNSER+fv4GWWfhwoVp4w8//rTWay1btnx9t1MnMjMy4tqrLolLrrg2hgwdlvbciJGjYsTIURERkZGREVtusXlsv12v2Gev/tGje9e62C4AAAAAAAAAQKWE14CNrl69gg22VtHSpRtsreLi4g22VtIaNmgQt950fbz59vvxzPMvxdBhw6OkpCRtTmlpaUyYOCkmTJwUjz/1XPTo3jUu+t1vY6stt6ijXQMAAAAAAAAArCG8Bmx0mRmZtT63oFzFtry83LTxj448NLp07lSrtbNzvt8/gRkZGTFg7/4xYO/+sXjJkvh8yJcxdNjwGPbViBg1ZlysWLEibf6w4SPjV2eeH//425+iU8et6mjXAAAAAAAAAACrfL+TG8APXvmAWfn2o927bRP77bNngjvaNBXWqxe777pT7L7rThERsXTZsvjk08HxxNPPx+dffJmat3jJkrjuTzfH3f/6e11tFQAAAAAAAAAgIiJqXw4JoJrWp9Vn/cLCtHHzZs3SxrNmza712j9k+Xl5scfuu8StN10fF5x7ZmRkZKSeGzVmXIwaM64OdwcAAAAAAAAAILwGJGDlypW1Oi87u2JxyPLtLseMm1Crtf+XHHHogXHYwfunHRs+4us62g0AAAAAAAAAwCrCa0AiliwpqvE5+Xl5FY716dUjMstUEfv4k0Gxori42msuWrS4xvvYFM2ePScmT/m22vMPPmDftPGcOXM39JYAAAAAAAAAAGpEeA1IRElJSY3PycvLrXCsUaOGseMO26fGCxcuiudeeLla6w389LM48PDj4tdnXRD3PvBIzJ03r8Z7qmv/d9+DcdCRP47DjjkxLrjkympXtSvfujU3N2djbA8AAAAAAAAAoNqE14BqqV+/MG086ZvJNat4trjmFc9ycioPWJ10wrFp43/eeV+MHDV6nWtNnzEzbvjL36OktDS+/GpEPPjIE5GT/f0LcDVu1DDmz18QERGTp3wXf7nlH1FcxedQUlIS/3nwsbRjXbfZusK8jMw1Fe1mzpod8+bN3wA7BgAAAAAAAAConPAaUG1t27ROPZ4zd15cfe2fY8LESTFv3vz4ctjwKCpae2vQ0tLSDbaPntt2iyMOPTA1LioqijPP+X3c85+HY/qMmWlzFy1eHE8/92L87LTfxsxZs1PHf3PazyoE8r4PDtp/QLRq2SI1fu7FV+KU086Kl155o0JL1JLS0vhy2PA463eXxOAhQ1PHO3bYMvpu17vC2u3atEk9XrlyZVzyh2tj5KjRsWDhwvh61JiYM3feBn8/AAAAAAAAAMD/ruy63gDw/bH3nrvH/Q+tqeD11rsfxFvvfpAaP/HQ3VFQUJDIXs757ekxe87ceP/DgRERsXTZsrjr3gfirnsfiMaNG0Wzpk1i2bLl8d13U6OkXHDuyMMOjiMOPSiRfW5oBQUF8adr/xBnn39pqu3phImT4to/3RzX/fmWaN2qZWzWrGmsWFEck7/9tkKgrVGjhnH15RdFZkZGhbX33nO3GDR4SGo8dNjw+MWvz02Nb7vphmjapPFGeV8AAAAAAAAAwP8eldeAajvpJ8dGxw5b1urctbUAXZcVK1asfb3s7Ljuqkvj9F+cHPl5eWnPzZs3P8aNnxhTvv0uLbjWqGGDuPiCs+P8c34TGZWEt74vOnbYMh64+x8xYO/+ae+jtLQ0vps6Lb78akSMHDW6QnCtb59eceftN8WWW2xe6bqHHLhf9OvbZ6PuHQAAAAAAAABgtawrr7zyyrreBPD9kJOTEwfut08U5OdHUVFRrCgujry8vGjfrk3ststOsduuO0Zubm5ERCxduizatG4V3bttE927bRO77rRDZGdnVfkaRUVFsdWWm0f3bttE1y6dY/u+vdc6NyMjI3r16B5HHHpgNGvWdNXrLluWal+ak50dLVs2j+236x0/Puao+P35Z0X3rtus/4WopRXFxVGQn5+6Jn236xXNN2uWNmflypWRmZmZmtO7V4/YcvP2FdbKz8+PvfrvFvvus0c0aFA/li9bHgsXLY7i4uLUnIyMjNi8fbvYs/8u8dvTfxE/P/kn0bBBg7XuLyMjI/bdZ49o0qRRFBUtjeXLl0dOTk60adM6duy3XezZf9fvZatVAAAAAAAAAGDTlFFaWq6fHgDfS6WlpTF//oIoWro0srOzo1HDBqkwIQAAAAAAAADApkZ4DQAAAAAAAAAAgMRl1vUGAAAAAAAAAAAA+N8jvAYAAAAAAAAAAEDihNcAAAAAAAAAAABIXHZdbwCgrv3u93+IWbNnb7T1f/mzE2O3XXbcaOsDAAAAAAAAAHwfCa8B//MmTvompk2fsdHWX7Bg4UZbGwAAAAAAAADg+0p4Dfif16L5Zht1/YKC/I26PgAAAAAAAADA91FGaWlpaV1vAgAAAAAAAAAAgP8tmXW9AQAAAAAAAAAAAP73CK8BAAAAAAAAAACQOOE1AAAAAAAAAAAAEie8BgAAAAAAAAAAQOKE1wAAAAAAAAAAAEic8BoAAAAAAAAAAACJE14DAAAAAAAAAAAgccJrAAAAAAAAAAAAJE54DQAAAAAAAAAAgMQJrwEAAAAAAAAAAJA44TUAAAAAAAAAAAASJ7wGAAAAAAAAAABA4oTXAAAAAAAAAAAASJzwGgAAAAAAAAAAAIkTXgMAAAAAAAAAACBxwmsAAAAAAAAAAAAkTngNAAAAAAAAAACAxAmvAQAAAAAAAAAAkDjhNQAAAAAAAAAAABInvAYAAAAAAAAAAEDihNcAAAAAAAAAAABInPAaAAAAAAAAAAAAiRNeAwAAAAAAAAAAIHHCawAAAAAAAAAAACROeA0AAAAAAAAAAIDECa8BAAAAAAAAAACQOOE1AAAAAAAAAAAAEie8BgAAAAAAAAAAQOKE1wAAAAAAAAAAAEic8BoAAAAAAAAAAACJE14DAAAAAAAAAAAgccJrAAAAAAAAAAAAJE54DQAAAAAAAAAAgMQJrwEAAAAAAAAAAJA44TUAAAAAAAAAAAASJ7wGAAAAAAAAAABA4oTXAAAAAAAAAAAASJzwGgAAAAAAAAAAAIkTXgMAAAAAAAAAACBxwmsAAAAAAAAAAAAkTngNAAAAAAAAAACAxGXX9QaANZ577rmYM2dOXW8D2IT17t07evfuXdfbAAAAAAAAAID1JrwGm5Arrrgihg4dWtfbADZhf/jDH4TXAAAAAAAAAPhB0DYUAAAAAAAAAACAxAmvAQAAAAAAAAAAkDhtQ2ETdvPNN9f1FoA6NmzYsLj77rvrehsAAAAAAAAAsMEJr8Em7JxzzqnrLQB17JlnnhFeAwAAAAAAAOAHSdtQAAAAAAAAAAAAEie8BgAAAAAAAAAAQOKE1wAAAAAAAAAAAEic8BoAAAAAAAAAAACJE14DAAAAAAAAAAAgccJrAAAAAAAAAAAAJE54DQAAAAAAAAAAgMQJrwEAAAAAAAAAAJA44TUAAAAAAAAAAAASJ7wGAAAAAAAAAABA4oTXAAAAAAAAAAAASJzwGgAAAAAA/8/enQd3Xd+JH38l4RC5AsilpV64ogLGdUWt9b5FpbCtUketJ4q7Wi2j7aojeNaqa7XaqnUU7XrhVomora14ouNUaxWtFUSXLKiAeEBEQCDJ7w/G789sOIKE1zckj8cMM5/r+/6+kgH+es7nDQAAAJBOvAYAAAAAAAAAAEA68RoAAAAAAAAAAADpxGsAAAAAAAAAAACkE68BAAAAAAAAAACQTrwGAAAAAAAAAABAOvEaAAAAAAAAAAAA6cRrAAAAAAAAAAAApBOvAQAAAAAAAAAAkE68BgAAAAAAAAAAQDrxGgAAAAAAAAAAAOnEawAAAAAAAAAAAKQTrwEAAAAAAAAAAJBOvAYAAAAAAAAAAEA68RoAAAAAAAAAAADpxGsAAAAAAAAAAACkE68BAAAAAAAAAACQTrwGAAAAAAAAAABAOvEaAAAAAAAAAAAA6cRrAAAAAAAAAAAApBOvAQAAAAAAAAAAkE68BgAAAAAAAAAAQDrxGgAAAAAAAAAAAOnEawAAAAAAAAAAAKRrU+wBANiwPvzww1i2bFmxx9gobbXVVsUeAQAAAAAAAABaLPEaQAt3xBFHxNSpU4s9xkaprq6u2CMAAAAAAAAAQItl21AAAAAAAAAAAADSidcAAAAAAAAAAABIZ9tQgFZm2LBhxR6h2XrmmWeiurq62GMAAAAAAAAAQKsgXgNoZSorK4s9QrNVUVERU6dOLfYYAAAAAAAAANAq2DYUAAAAAAAAAACAdOI1AAAAAAAAAAAA0onXAAAAAAAAAAAASCdeAwAAAAAAAAAAIJ14DQAAAAAAAAAAgHTiNQAAAAAAAAAAANKJ1wAAAAAAAAAAAEgnXgMAAAAAAAAAACCdeA0AAAAAAAAAAIB04jUAAAAAAAAAAADSidcAAAAAAAAAAABIJ14DAAAAAAAAAAAgnXgNAAAAAAAAAACAdG2KPQAALdeiRYtixYoV67VGeXl50wwDAAAAAAAAADQr4jUAmtytt94a11xzTcycOXO91+rRo0ecdtppMW7cuNhkk02aYDoAAAAAAAAAoDmwbSgATeqCCy6I0aNHN0m4FhHxySefxC9+8Ys46qij1vstbgAAAAAAAABA8yFeA6DJvPnmm3HddddtkLUnT54c99xzzwZZGwAAAAAAAADIZ9tQAJrMpEmToq6urnA+ZMiQ2GGHHb7RWv/4xz/ilVdeqXdt4sSJcdJJJ63PiAAAAAAAAABAMyFeA6DJzJ8/v975vffeG/3791/ndR555JH4/e9/3+D6Bx988I1nAwAAAAAAAACaF9uGArDBtGmz7o30NddcEyNGjIgvvviiwb0VK1Y0xVgAAAAAAAAAQDPgzWsANAvLli2LM844I+66665ijwIAAAAAAAAAJPDmNQCK7uOPP46DDjqoQbg2YMCA2GSTTYozFAAAAAAAAACwQYnXACiqt99+O3bfffeYMmVKvesHH3xwvPTSS9G+ffsiTQYAAAAAAAAAbEjiNQCK5s9//nPsscce8T//8z/1ro8ePTr++Mc/Rnl5eXEGAwAAAAAAAAA2OPEaAEVx8803x+GHHx7V1dWFa6WlpXHzzTfHb37zmygrKyvidAAAAAAAAADAhtam2AMA0LqsWLEizjnnnLjlllvqXe/SpUv893//dxxyyCFFmgwAAAAAAAAAyCReAyDNggUL4phjjoknn3yy3vVtttkmHnvssdhhhx2KNBkAAAAAAAAAkE28BkCK9957L4YOHRrTp0+vd33vvfeOiRMnRo8ePYo0GQAAAAAAAABQDKXFHgBoWsuWLYuPP/44Pvvss2KPAgXPPfdcDBkypEG4dvLJJ8fkyZOFawAAAAAAAADQConXoIWorq6O0047Lbp06RI9e/aM7t2724KRZuGOO+6Igw8+OD799NPCtdLS0vjFL34Rd955Z7Rr166I0wEAAAAAAAAAxWLbUGgB6urqYvjw4fH000/Xuz5nzpwiTQQrXXjhhXH//ffXu9axY8e49957Y9iwYUWaCgAAAAAAAABoDsRr0AK88MIL9cK1E044Ib73ve/FJ598UsSpml5NTU3cdNNNERExevToaN++fZEnYm3+b7jWr1+/mDRpUlRUVBRnIAAAAAAAAACg2RCvQQvwxz/+sXB86KGHxu9+97siTrPhTJs2Lc4777yIiDjppJPEaxuZ3XffPSorK6NPnz7FHgUAAAAAAAAAaAZKiz0AsP6qqqoKx0cffXTxBtnA/vKXvxR7BL6hkSNHxjPPPLPe4VpJSUkTTQQAAAAAAAAAFJs3r0ELUFr6/zvUbt26FXGSDevll18u9gisRefOnRtc23bbbWPIkCFx2223rfN6H330USxcuLBw7q1tAAAAAAAAANByiNdgI1VdXR133nlnRETMnDmzcP3RRx+NefPmRURE+/btY/To0RERccstt8SXX35ZuFZXVxe/+93v4uGHH45FixbFiSeeGD/60Y8afM+cOXOisrIypkyZEnPmzInq6uooLy+PPn36xHe+85049thjY7PNNlvljF9++WXccsstEbEyqvtq/Q8//DDuueeeePHFF+PDDz+MNm3axLe//e3413/91/jBD35Q7+1aX19j8uTJheu33HJLdOjQISIijjrqqNh2222/2S+SJnXQQQfFFVdcUe/ae++9Fz/5yU+aZP0DDzywSdYBAAAAAAAAAIqvpK6urq7YQwArVVRUxNSpUwvna/rnWVVVFVtvvfUa1+vatWssWLAgIiLKy8tj4cKFhWsnnHBC3HPPPYVnf/zjH8cNN9xQOK+pqYnLL788rrrqqli+fPlqv6NTp05x7bXXxplnntngXk1NTbRps7KR3XLLLaOqqip+85vfxJgxY2Lp0qWrXO/II4+MiRMnFj63YMGCtb5NbuLEifG9731vjc+0Zuvy96opjBgxIiZOnNjk626//fbx17/+NTp16tTka38l+3fVGJWVlTF8+PDC+dixY2PcuHHFGwgAAAAAAAAAmog3r8FGql27drHzzjtHRMQHH3wQH3/8cURE9OvXL7p37x4Rq97Csba2Nh5++OF64dqqnH766TF+/PjC+bbbbhsHHHBA9OjRI+bPnx9PPPFEfPDBB7Fo0aIYPXp0fPHFFzFmzJh6a5SVldU7v+eee+Lf/u3foqSkJPbYY4/o379/1NTUxAsvvBCzZ8+OiIjHHnssbrzxxsJaZWVlhZ/z61HRwIEDC+t37dp1Lb8tMt13333xk5/8JG6//fZYsWJFk6x5+OGHxx133LFBwzUAAAAAAAAAIJc3r0Ez8k3f+nTuuefGjTfeGBER48ePj5NOOqnBM1+9eS0iYp999olXX301rrnmmhgxYkR07tw5li5dGj169IiIiIceeii+//3vR0RESUlJ3HrrrTFq1Kh669XW1sall14al112WUREtGnTJt58880YMGBAvee+2gK0rKwsunTpEr169Yrf//73MXDgwMIzy5YtixNPPDEmTJgQESsDvKqqqigtLV3lWhERn332WZSXlzfq99PaFettYp9++mm8/fbba3xz39qUlJRE//79Y4sttmjCyVbPm9cAAAAAAAAAII83r0Er9Pzzz8ejjz4aRx55ZOFax44dC8fXXHNN4XjMmDENwrWIiNLS0rj00kvjr3/9a/zhD3+IFStWxK9//eu46aabVvmdNTU1sWTJkvjDH/4Q22yzTb177dq1i5tuuikeeuihWLFiRcyePTumTZsWO+644/r+qBRR9+7dY6+99ir2GAAAAAAAAABAM1W69keAluZf/uVf6oVrX/fuu+/Gyy+/HBErA7Xzzz9/jWude+65heMHH3xwjc8ed9xxDcK1r/Ts2TMGDRpUOP/73/++xrUAAAAAAAAAANi4idegFVpduBYRhXAtYuUWir169VrjWnvttVe0abPyJY4fffRRvP/++6t99ogjjljjWn379i0cz5kzZ43PAgAAAAAAAACwcROvQSvRtm3bwvHgwYNX+9y0adMKxwMGDFjruptuumn06dOncD59+vTVPjtw4MBGz7h06dK1fjcAAAAAAAAAABsv8Rq0Eh07diwc9+jRY7XPffbZZ4Xjnj17Nmrtr69XXV292ud69+7dqPUiIpYsWdLoZwEAAAAAAAAA2PiI16AV6tq162rvff7554Xjr7YDXRcLFy5c7b327duv83oAAAAAAAAAALRM4jVohdYUr5WXlxeOV6xYsc5rd+7cebX3OnTo0Oh1Nt1003X+bgAAAAAAAAAANh7iNWiFvvjii9Xe+/pWofPnz2/Uel9/7uvbk/5fX375ZaPWi4ho165do58FAAAAAAAAAGDjI16DVmj58uWrvTdo0KDC8bRp09a61uLFi2Pu3LmF85122mm1zy5ZsqSRE6757XAAAAAAAAAAAGz8xGtAPXvssUeUlq78r+H1119f69vXnn/++aitrY2IiL59+0a/fv3q3e/SpUvheF3itbKyskY/CwAAAAAAAADAxke8Bq3Q0qVLV3uvV69eccghh0RERG1tbVx33XVrXOuGG24oHJ9wwgkN7peUlBSO12Xb0K9Hb6uyprfHAQAAAAAAAADQ/InXoBVaU7wWEfGzn/2scHzdddfFHXfcEXV1dfWeqampiUsuuST+9Kc/RUREx44d4+yzz17juosWLfqGE6/Uq1evwvF//dd/rddaAAAAAAAAAAAUl3gNaGDfffeNn/70pxGx8u1rp512Wmy//fYxatSouPDCC+P000+PrbfeOi6//PKIiCgtLY3x48fHt771rTWuW1NTs15z7bnnnoXjMWPGxK677hoHHXRQnHfeeeu1LgAAAAAAAAAA+doUewCgebr66qujZ8+ecfHFF8fSpUtjxowZMWPGjAbP9evXL2699dY44ogj1rpm165dG/39ixcvbnDtiiuuiGeffTYWLlwYERF/+9vfIiLWGs0BAAAAAAAAAND8iNegBRg+fHhstdVWERExZMiQVT5zySWXRHV1dURE7Ljjjo1ad8yYMXH88cfHhAkT4qWXXoq5c+fGokWLokePHrHlllvGQQcdFMOGDYt27dqtdo2f//zn8eWXX0ZERPfu3df4faeeemrst99+ERFRUVHR4P7AgQPj7bffjl//+tfx2muvxYoVK2LLLbeMY445plE/DwAAAAAAAAAAzUdJXV1dXbGHAFaqqKiIqVOnFs7986Qp+HvVeM3xd1VZWRnDhw8vnI8dOzbGjRtXvIEAAAAAAAAAoImUFnsAAAAAAAAAAAAAWh/xGgAAAAAAAAAAAOnEawAAAAAAAAAAAKQTrwEAAAAAAAAAAJBOvAYAAAAAAAAAAEA68RoAAAAAAAAAAADpxGsAAAAAAAAAAACkE68BAAAAAAAAAACQTrwGAAAAAAAAAABAOvEaAAAAAAAAAAAA6cRrAAAAAAAAAAAApBOvAQAAAAAAAAAAkE68BgAAAAAAAAAAQDrxGgAAAAAAAAAAAOnaFHsAAHJVVVUVe4Rma9myZcUeAQAAAAAAAABaDfEaQCuz9dZbF3sEAAAAAAAAAADbhgIAAAAAAAAAAJBPvAYAAAAAAAAAAEA624YCtHD7779/bLXVVsUeAwAAAAAAAACgHvEaQAv3y1/+stgjAAAAAAAAAAA0YNtQAAAAAAAAAAAA0onXAAAAAAAAAAAASCdeAwAAAAAAAAAAIJ14DQAAAAAAAAAAgHTiNQAAAAAAAAAAANKJ1wAAAAAAAAAAAEgnXgMAAAAAAAAAACCdeA0AAAAAAAAAAIB04jUAAAAAAAAAAADSidcAAAAAAAAAAABIJ14DAAAAAAAAAAAgnXgNAAAAAAAAAACAdOI1AAAAAAAAAAAA0onXAAAAAAAAAAAASCdeAwAAAAAAAAAAIJ14DQAAAAAAAAAAgHTiNQAAAAAAAAAAANKJ1wAAAAAAAAAAAEgnXgMAAAAAAAAAACCdeA0AAAAAAAAAAIB04jUAAAAAAAAAAADSidcAAAAAAAAAAABIJ14DAAAAAAAAAAAgnXgNAAAAAAAAAACAdOI1AAAAAAAAAAAA0onXAAAAAAAAAAAASCdeAwAAAAAAAAAAIJ14DQAAAAAAAAAAgHTiNQAAAAAAAAAAANKJ1wAAAAAAAAAAAEgnXgMAAAAAAAAAACCdeA0AAAAAAAAAAIB04jUAAAAAAAAAAADSidcAAAAAAAAAAABIJ14DAAAAAAAAAAAgnXgNAAAAAAAAAACAdOI1AAAAAAAAAAAA0onXAAAAAAAAAAAASCdeAwAAAAAAAAAAIJ14DQAAAAAAAAAAgHTiNQAAAAAAAAAAANKJ1wAAAAAAAAAAAEgnXgMAAAAAAAAAACCdeA0AAAAAAAAAAIB04jUAAAAAAAAAAADSidcAAAAAAAAAAABIJ14DAAAAAAAAAAAgXZtiDwDAhnXJJZfErFmzij3GRumuu+4q9ggAAAAAAAAA0GKJ1wBauEmTJsXUqVOLPcZGSbwGAAAAAAAAABuObUMBAAAAAAAAAABIJ14DAAAAAAAAAAAgnW1DAVqZ1157rdgjNFvHHntsvPPOO8UeAwAAAAAAAABaBfEaQCtTUVFR7BGarQ4dOhR7BAAAAAAAAABoNWwbCgAAAAAAAAAAQDrxGgAAAAAAAAAAAOnEawAAAAAAAAAAAKQTrwEAAAAAAAAAAJBOvAYAAAAAAAAAAEA68RoAAAAAAAAAAADpxGsAAAAAAAAAAACkE68BAAAAAAAAAACQTrwGAAAAAAAAAABAOvEaAAAAAAAAAAAA6cRrAAAAAAAAAAAApBOvAQAAAAAAAAAAkE68BgAAAAAAAAAAQDrxGgAAAAAAAAAAAOnEawAAAAAAAAAAAKQTrwEAAAAAAAAAAJBOvAYAAAAAAAAAAEC6NsUeAICW5/XXX49f/vKX8dprr0V1dfU3XqdDhw4xYMCAOP300+OII45owgkBAAAAAAAAgGITrwHQpB588ME4/vjjY/ny5U2y3rRp06KysjIuvPDCuPLKK5tkTQAAAAAAAACg+GwbCkCTmTt3bpx88slNFq593VVXXRVPPfVUk68LAAAAAAAAABSHN68B0GQefPDBWLx4ceG8c+fO0b1792+01pIlS+Kjjz6qd+2uu+6KAw88cL1mBAAAAAAAAACaB/EaAE1m5syZ9c6fe+652GWXXdZ5nffeey+OPPLIBvHajBkz1ms+AAAAAAAAAKD5EK/BRu5vf/tb/OpXv4qIiAEDBsTPfvazIk/UdM4666zCW7yuu+662GyzzYo8EWtTV1dX77xbt27rvMbzzz8fI0aMiE8++aTBvaVLl37j2QAAAAAAAACA5kW8Bhu5WbNmxd133x0REfvuu2+Litfuu+++WLhwYUREjBs3TrzWCtx5551x5plnxvLly4s9CgAAAAAAAACwgZUWewAAqKmpiQsuuCBOPfXUeuHapptuGm3a6KwBAAAAAAAAoCUSrwFQVIsWLYoRI0bEtddeW+96v3794oUXXoiOHTsWaTIAAAAAAAAAYEPyOhsAimbWrFlx9NFHx9SpU+td32233WLSpEnRp0+fIk0GAAAAAAAAAGxo3rwGQFH85S9/iSFDhjQI14499th47rnnhGsAAAAAAAAA0MJ58xps5FasWLHK67W1tfH3v/89qqqqIiKiV69eMXDgwOjUqVOj116+fHlMmzYtZs+eHcuWLYv27dvHt7/97RgwYECUlZWt86yff/55VFVVRU1NTfTu3Tv69u27zmvQMtx///1xyimnxNKlS+tdHzt2bIwdOzZKSkqKNBkAAAAAAAAAkMWb12Ajt2jRogbXbr/99ujXr1/svPPOMWzYsBg2bFjsueee0aNHjzjzzDOjurp6jWtWVVXFKaecEj169IjBgwfH0KFDY/jw4XHEEUfEwIEDo2fPnjFmzJi1rvOVysrK2G+//aK8vDwGDx4cu+yyS2y++eYxYMCAuPnmm1cb4DXWueeeG+Xl5VFeXh4DBw6M+fPnr9d6bDh1dXUxduzYOO644+qFa5tsskncd999MW7cOOEaAAAAAAAAALQS4jVoYa644ooYNWpUfPjhhw3uLVu2LG677bbYe++9Vxm9RUS88sorscsuu8T48ePj888/X+Uzn332WVx//fWx6667xty5c1c7y+LFi2PEiBExfPjweO6556K2trbe/enTp8fZZ58d++yzzzcOzq666qq48cYbY+HChdG2bduorKyMnj17fqO12LCWLFkSI0eOjMsuu6ze9d69e8ezzz4bP/zhD4s0GQAAAAAAAABQDOI1aEFmzpwZ48aNi8022yyuvvrqeOONN2LOnDnxxhtvxLhx46Jt27YREfHGG2/ElVde2eDzy5Yti2OOOSYWLFgQERH//M//HI8++mjMmTMnamtr46OPPorbbrstunTpEhER7777bowZM2aVsyxfvjwOO+ywmDhxYkRE7LXXXlFZWRlVVVUxa9asuP/++6N///4REfHSSy/F0KFDG2whuTZ33nlnXHTRRRER0aVLl3jqqacKa9K8zJkzJ/bdd9948MEH612vqKiIl19+OXbfffciTQYAAAAAAAAAFEubYg8ANJ1Zs2ZFp06d4sUXX4x/+qd/Klzv06dPDBo0KPr27RtnnHFGRETcdNNNceGFF0bnzp0Lzz3++ONRVVUVERG9evWKZ555phCqRUT07NkzRo0aFVtuuWUcdthhERHxwAMPxM033xzdunWrN8vll18eU6ZMiYiI/fffP5588skoKysr3B85cmQceOCBMXjw4Jg7d2688sorMX78+Bg9enSjftbHH388Tj/99IiI6NChQ/zpT3+KwYMHN/ZXRaLXXnsthg0bFrNnz653/eijj4577703OnXqVKTJAAAAAAAAAIBi8uY1aGF++tOf1gvXvu7000+Pfv36RUTEF198EU8//XS9+3V1dXHkkUfGkCFDYuTIkfXCta879NBDY7vttouIiNra2njllVfq3f/kk0/i+uuvL5zfeOON9cK1r/Ts2TPOO++8wvkjjzzSiJ9w5ZvafvCDH0RtbW20bds2Jk2aFHvssUejPkuuRx55JL773e82CNfOP//8mDhxonANAAAAAAAAAFoxb16DFua4445b7b2SkpI4/PDD47e//W1ErIzAhg0bVrg/YsSIGDFiRKO+Z4cddogZM2ZERMT8+fPr3Zs0aVJ88cUXERExYMCAGDRo0GrXOfHEE2PQoEHRu3fv+Na3vrXW73377bfjyCOPjCVLlkRpaWlMmDAhDjrooEbNTL5zzz233nnbtm3jtttui5NPPrk4AwEAAAAAAAAAzYZ4DVqQ7t27xzbbbLPGZ756Y1pExPTp07/xd5WUlBSOly9fXu/eyy+/XDjeeeed17hOnz594vDDD2/Ud77//vtx6KGHxqeffhoREePHj4/hw4c3dmSKrEePHvHwww/HPvvsU+xRAAAAAAAAAIBmQLwGLcgWW2yx1me6detWOP6/b0z7yqeffhqVlZXxwgsvxFtvvRWzZ8+OxYsXx+effx61tbVr/Y45c+YUjhvzNrXGWLBgQZxwwgmF7Sd//vOfx4knntgka7PhDRgwIB5//PG1xpUAAAAAAAAAQOshXoMWpHv37mt9pmPHjoXjRYsWNbh//fXXxyWXXFLY9nN9derUqUnWGTlyZL03xU2ePDnOP//8KCsra5L1aRrt27dvcG277baLW2+9Naqrq+P1119fp/XmzZtX7+9ieXn5ek4IAAAAAAAAADQX4jWg4Nprr40LLrigcN6/f//44Q9/GBUVFdG3b9/o0KFDIR4aNWpUPPnkk6tcp2/fvoXjurq6Jpntq3Bt0003jcWLF8dTTz0Vl19+eYwbN65J1qdp7Lrrrg2uzZgxI/bbb78mWX+33XZrknUAAAAAAAAAgOITr0ELsqo3qa3pmS5duhSOq6ur64Vgp5xyStx2223Rps2q/5to27btar/j61tDfvzxx2udqTHatm0bN910UwwYMCAOOOCAqK2tjcsuuyy+853vxCGHHNIk38H6GzFiROy0007x1ltvNfnanTt3jnPOOafJ1wUAAAAAAAAAiqO02AMATeeDDz5Y6zMLFiwoHPfs2bNwPGXKlFi8eHFErNxa9Fe/+tVqw7WIiHfeeWe19wYPHlw4nj179lpnaoyHHnoozjjjjNh3333jkksuiYiVb3U7/vjj4/3332+S72D9tWnTJh577LHYeeedm3Td3r17x2OPPRb9+vVr0nUBAAAAAAAAgOLx5jVoQebOnRtz586NPn36rPaZr0dnO+20U+F4zpw5heNBgwZFx44d17jGu+++u9r7u+++e5SWlkZtbW28/PLLUVdXFyUlJat8dsGCBTF69OgoLy+PHj16xBVXXLHK5wYNGlQ4vvjii+Ppp5+O559/PubPnx8jR46MZ599do2xHXm22mqrePXVV+OJJ56IqVOnxrJly77xWmVlZdG/f/846qijolOnTk04JQAAAAAAAABQbEoPaGEeeOCBOPfcc1d5r66uLp544onC+d577104bt++feH4yy+/XON3fH170YiImpqaeufl5eVxwAEHxOTJk2PevHkxefLkOPjgg1e51rPPPhsPPPBARERUVFSsNl77urKysrjvvvti5513jk8++SRefPHF+I//+I+49tpr1/pZcpSVlcXQoUNj6NChxR4FAAAAAAAAAGimbBsKLcyVV14Zs2bNWuW922+/vbCN52abbRb77bdf4d52221XOJ46deoqtwWtra2NSy+9NO6///7o1q1b4fq8efMaPDtq1KjC8dlnnx0LFy5s8MzChQvjoosuKpwff/zxa/jJ6ttiiy3i7rvvLpxfd911MWnSpEZ/HgAAAAAAAACA4hKvQQuy/fbbx8KFC2PPPfeMW265JWbOnBkLFiyIadOmxUUXXRT//u//Xnj24osvjrZt2xbOd9ttt9h2220jYmWkdvTRR8ef//zn+Oyzz+Kdd96JO+64I4YMGRLjxo2Lww47LM4444zCZ2+//fZ46623YsGCBYVr3//+92OvvfaKiIjp06fH7rvvHnfeeWe88cYb8dZbb8Udd9wRu+66a/zjH/+IiIhtttkmRo8evU4/79ChQ+O8884rnP/oRz+KmTNnrtMaAAAAAAAAAAAUh21DYSP39Tea7bLLLnHWWWfFj3/84zjrrLNW+5mjjjqqXsgWsXKbx9/+9rdx2GGHxfLly2P69Olx6KGHNvjsnnvuGQ888ED87//+b/znf/5nLF++PKqqqmLgwIERsXJr0oiIkpKSmDBhQuy///4xY8aMmD59epx66qmrnKdPnz4xadKk2HTTTdf557/66qvj+eefj1dffTUWLFgQxx57bEyZMqXeNqgAAAAAAAAAADQ/3rwGG7l27dpF165do2vXrrH55pvHOeecE5WVlVFRUdHg2b59+8all14aDz30UJSVlTW4f8ABB8SUKVPiu9/9boN73bp1i4svvjiefvrp6Nq1awwePDgqKytjhx12KDyz2Wab1fvMFltsEa+88kqMGTOm3jajX+natWucffbZ8eabb8ZOO+20yvtf/SktXfV/V+3atYsJEyZEnz59omvXrvHOO+/EZZddtspnAQAAAAAAAABoPkrqvnpNElB0FRUVMXXq1ML5+v7znDdvXrz77ruxdOnS2HzzzWP77bdfbQT2f3300UcxY8aMWLp0aXTv3j0GDRoUbdqs+mWNn3/+edTU1ER5eflq16upqYnp06fHvHnzora2NrbYYovYbrvtVhnR0bSa+u9VS9Ycf1eVlZUxfPjwwvnYsWNj3LhxxRsIAAAAAAAAAJqIbUOhBevdu3f07t37G322V69e0atXr0Y927lz57U+U1ZWFjvuuGPsuOOO32geAAAAAAAAAABaFtuGAgAAAAAAAAAAkE68BgAAAAAAAAAAQDrxGgAAAAAAAAAAAOnEawAAAAAAAAAAAKQTrwEAAAAAAAAAAJBOvAYAAAAAAAAAAEA68RoAAAAAAAAAAADpxGsAAAAAAAAAAACkE68BAAAAAAAAAACQTrwGAAAAAAAAAABAOvEaAAAAAAAAAAAA6cRrAAAAAAAAAAAApBOvAQAAAAAAAAAAkE68BgAAAAAAAAAAQDrxGgAAAAAAAAAAAOnEawAAAAAAAAAAAKQTrwEAAAAAAAAAAJBOvAYAAAAAAAAAAEA68RoAAAAAAAAAAADpxGsAAAAAAAAAAACka1PsAQDIddJJJxV7hGZr1qxZxR4BAAAAAAAAAFoN8RpAK3P33XcXewQAAAAAAAAAANuGAgAAAAAAAAAAkE+8BgAAAAAAAAAAQDrbhgK0cBMmTIglS5YUewwAAAAAAAAAgHrEawAt3Pbbb1/sEQAAAAAAAAAAGrBtKAAAAAAAAAAAAOnEawAAAAAAAAAAAKQTrwEAAAAAAAAAAJBOvAYAAAAAAAAAAEA68RoAAAAAAAAAAADpxGsAAAAAAAAAAACkE68BAAAAAAAAAACQTrwGAAAAAAAAAABAOvEaAAAAAAAAAAAA6cRrAAAAAAAAAAAApBOvAQAAAAAAAAAAkE68BgAAAAAAAAAAQDrxGgAAAAAAAAAAAOnEawAAAAAAAAAAAKQTrwEAAAAAAAAAAJBOvAYAAAAAAAAAAEA68RoAAAAAAAAAAADpxGsAAAAAAAAAAACkE68BAAAAAAAAAACQTrwGAAAAAAAAAABAOvEaAAAAAAAAAAAA6cRrAAAAAAAAAAAApBOvAQAAAAAAAAAAkE68BgAAAAAAAAAAQDrxGgAAAAAAAAAAAOnEawAAAAAAAAAAAKQTrwEAAAAAAAAAAJBOvAYAAAAAAAAAAEA68RoAAAAAAAAAAADpxGsAAAAAAAAAAACkE68BAAAAAAAAAACQTrwGAAAAAAAAAABAOvEaAAAAAAAAAAAA6cRrAAAAAAAAAAAApBOvAQAAAAAAAAAAkE68BgAAAAAAAAAAQDrxGgAAAAAAAAAAAOnEawAAAAAAAAAAAKQTrwEAAAAAAAAAAJBOvAYAAAAAAAAAAEA68RoAAAAAAAAAAADpxGsAAAAAAAAAAACkE68BAAAAAAAAAACQTrwGAAAAAAAAAABAOvEaAAAAAAAAAAAA6cRrAAAAAAAAAAAApBOvAQAAAAAAAAAAkE68BgAAAAAAAAAAQDrxGgAAAAAAAAAAAOnEawAAAAAAAAAAAKRrU+wBgNW74YYbij0CUGRvvvlmsUcAAAAAAAAAgA1CvAbN2HnnnVfsEQAAAAAAAAAAYIOwbSgAAAAAAAAAAADpxGsAAAAAAAAAAACks20oNCOXXXZZfPrpp8UeA2jGKioqij0CAAAAAAAAADSJkrq6urpiDwEAAAAAAAAAAEDrYttQAAAAAAAAAAAA0onXAAAAAAAAAAAASCdeAwAAAAAAAAAAIJ14DQAAAAAAAAAAgHTiNQAAAAAAAAAAANKJ1wAAAAAAAAAAAEgnXgMAAAAAAAAAACCdeA0AAAAAAAAAAIB04jUAAAAAAAAAAADSidcAAAAAAAAAAABIJ14DAAAAAAAAAAAgnXgNAAAAAAAAAACAdOI1AAAAAAAAAAAA0onXAAAAAAAAAAAASCdeAwAAAAAAAAAAIJ14DQAAAAAAAAAAgHTiNQAAAAAAAAAAANKJ1wAAAAAAAAAAAEgnXgMAAAAAAAAAACCdeA0AAAAAAAAAAIB04jUAAAAAAAAAAADSidcAAAAAAAAAAABIJ14DAAAAAAAAAAAgnXgNAAAAAAAAAACAdOI1AAAAAAAAAAAA0onXAAAAAAAAAAAASCdeAwAAAAAAAAAAIJ14DQAAAAAAAAAAgHTiNQAAAAAAAAAAANKJ1wAAAAAAAAAAAEgnXgMAAAAAAAAAACCdeA0AAAAAAAAAAIB04jUAAAAAAAAAAADSidcAAAAAAAAAAABIJ14DAAAAAAAAAAAgnXgNAAAAAAAAAACAdOI1AAAAAAAAAAAA0onXAAAAAAAAAAAASCdeAwAAAAAAAAAAIJ14DQAAAAAAAAAAgHTiNQAAAAAAAAAAANKJ1wAAAAAAAAAAAEgnXgMAAAAAAAAAACCdeA0AAAAAAAAAAIB04jUAAAAAAAAAAADSidcAAAAAAAAAAABIJ14DAAAAAAAAAAAgnXgNAAAAAAAAAACAdOI1AAAAAAAAAAAA0onXAAAAAAAAAAAASCdeAwAAAAAAAAAAIJ14DQAAAAAAAAAAgHTiNQAAAAAAAAAAANKJ1wAAAAAAAAAAAEgnXgMAAAAAAAAAACCdeA0AAAAAAAAAAIB04jUAAAAAAAAAAADSidcAAAAAAAAAAABIJ14DAAAAAAAAAAAgnXgNAAAAAAAAAACAdOI1AAAAAAAAAAAA0onXAAAAAAAAAAAASCdeAwAAAAAAAAAAIJ14DQAAAAAAAAAAgHTiNQAAAAAAAAAAANKJ1wAAAAAAAAAAAEgnXgMAAAAAAAAAACCdeA0AAAAAAAAAAIB04jUAAAAAAAAAAADSidcAAAAAAAAAAABIJ14DAAAAAAAAAAAgnXgNAAAAAAAAAACAdOI1AAAAAAAAAAAA0onXAAAAAAAAAAAASCdeAwAAAAAAAAAAIJ14DQAAAAAAAAAAgHTiNQAAAAAAAAAAANKJ1wAAAAAAAAAAAEgnXgMAAAAAAAAAACCdeA0AAAAAAAAAAIB04jUAAAAAAAAAAADSidcAAAAAAAAAAABIJ14DAAAAAAAAAAAgnXgNAAAAAAAAAACAdOI1AAAAAAAAAAAA0onXAAAAAAAAAAAASCdeAwAAAAAAAAAAIJ14DQAAAAAAAAAAgHTiNQAAAAAAAAAAANKJ1wAAAAAAAAAAAEgnXgMAAAAAAAAAACCdeA0AAAAAAAAAAIB04jUAAAAAAAAAAADSidcAAAAAAAAAAABIJ14DAAAAAAAAAAAgnXgNAAAAAAAAAACAdOI1AAAAAAAAAAAA0onXAAAAAAAAAAAASCdeAwAAAAAAAAAAIJ14DQAAAAAAAAAAgHTiNQAAAAAAAAAAANKJ1wAAAAAAAAAAAEgnXgMAAAAAAAAAACCdeA0AAAAAAAAAAIB04jUAAAAAAAAAAADSidcAAAAAAAAAAABIJ14DAAAAAAAAAAAgnXgNAAAAAAAAAACAdOI1AAAAAAAAAAAA0onXAAAAAAAAAAAASCdeAwAAAAAAAAAAIJ14DQAAAAAAAAAAgHTiNQAAAAAAAAAAANKJ1wAAAAAAAAAAAEgnXgMAAAAAAAAAACCdeA0AAAAAAAAAAIB04jUAAAAAAAAAAADSidcAAAAAAAAAAABIJ14DAAAAAAAAAAAgnXgNAAAAAAAAAACAdOI1AAAAAAAAAAAA0onXAAAAAAAAAAAASCdeAwAAAAAAAAAAIJ14DQAAAAAAAAAAgHTiNQAAAAAAAAAAANKJ1wAAAAAAAAAAAEgnXgMAAAAAAAAAACCdeA0AAAAAAAAAAIB04jUAAAAAAAAAAADSidcAAAAAAAAAAABIJ14DAAAAAAAAAAAgnXgNAAAAAAAAAACAdOI1AAAAAAAAAAAA0onXAAAAAAAAAAAASCdeAwAAAAAAAAAAIJ14DQAAAAAAAAAAgHTiNQAAAAAAAAAAANKJ1wAAAAAAAAAAAEgnXgMAAAAAAAAAACCdeA0AAAAAAAAAAIB04jUAAAAAAAAAAADSidcAAAAAAAAAAABIJ14DAAAAAAAAAAAgnXgNAAAAAAAAAACAdOI1AAAAAAAAAAAA0onXAAAAAAAAAAAASCdeAwAAAAAAAAAAIJ14DQAAAAAAAAAAgHTiNQAAAAAAAAAAANKJ1wAAAAAAAAAAAEgnXgMAAAAAAAAAACCdeA0AAAAAAAAAAIB04jUAAAAAAAAAAADSidcAAAAAAAAAAABIJ14DAAAAAAAAAAAgnXgNAAAAAAAAAACAdOI1AAAAAAAAAAAA0onXAAAAAAAAAAAASCdeAwAAAAAAAAAAIJ14DQAAAAAAAAAAgHTiNQAAAAAAAAAAANKJ1wAAAAAAAAAAAEgnXgMAAAAAAAAAACCdeA0AAAAAAAAAAIB04jUAAAAAAAAAAADSidcAAAAAAAAAAABIJ14DAAAAAAAAAAAgnXgNAAAAAAAAAACAdOI1AAAAAAAAAAAA0onXAAAAAAAAAAAASCdeAwAAAAAAAAAAIJ14DQAAAAAAAAAAgHTiNQAAAAAAAAAAANKJ1wAAAAAAAAAAAEgnXgMAAAAAAAAAACCdeA0AAAAAAAAAAIB04jUAAAAAAAAAAADSidcAAAAAAAAAAABIJ14DAAAAAAAAAAAgnXgNAAAAAAAAAACAdOI1AAAAAAAAAAAA0onXAAAAAAAAAAAASCdeAwAAAAAAAAAAIJ14DQAAAAAAAAAAgHTiNQAAAAAAAAAAANKJ1wAAAAAAAAAAAEgnXgMAAAAAAAAAACCdeA0AAAAAAAAAAIB04jUAAAAAAAAAAADSidcAAAAAAAAAAABIJ14DAAAAAAAAAAAgnXgNAAAAAAAAAACAdOI1AAAAAAAAAAAA0onXAAAAAAAAAAAASCdeAwAAAAAAAAAAIJ14DQAAAAAAAAAAgHTiNQAAAAAAAAAAANKJ1wAAAAAAAAAAAEgnXgMAAAAAAAAAACCdeA0AAAAAAAAAAIB04jUAAAAAAAAAAADSidcAAAAAAAAAAABIJ14DAAAAAAAAAAAgnXgNAAAAAAAAAACAdOI1AAAAAAAAAAAA0onXAAAAAAAAAAAASCdeAwAAAAAAAAAAIJ14DQAAAAAAAAAAgHTiNQAAAAAAAAAAANKJ1wAAAAAAAAAAAEgnXgMAAAAAAAAAACCdeA0AAAAAAAAAAIB04jUAAAAAAAAAAADSidcAAAAAAAAAAABIJ14DAAAAAAAAAAAgnXgNAAAAAAAAAACAdOI1AAAAAAAAAAAA0onXAAAAAAAAAAAASCdeAwAAAAAAAAAAIJ14DQAAAAAAAAAAgHTiNQAAAAAAAAAAANKJ1wAAAAAAAAAAAEgnXgMAAAAAAAAAACCdeA0AAAAAAAAAAIB04jUAAAAAAAAAAADSidcAAAAAAAAAAABIJ14DAAAAAAAAAAAgnXgNAAAAAAAAAACAdOI1AAAAAAAAAAAA0onXAAAAAAAAAAAASCdeAwAAAAAAAAAAIJ14DQAAAAAAAAAAgHTiNQAAAAAAAAAAANKJ1wAAAAAAAAAAAEgnXgMAAAAAAAAAACCdeA0AAAAAAAAAAIB04jUAAAAAAAAAAADSidcAAAAAAAAAAABIJ14DAAAAAAAAAAAgnXgNAAAAAAAAAACAdOI1AAAAAAAAAAAA0onXAAAAAAAAAAAASCdeAwAAAAAAAAAAIJ14DQAAAAAAAAAAgHTiNQAAAAAAAAAAANKJ1wAAAAAAAAAAAEgnXgMAAAAAAAAAACCdeA0AAAAAAAAAAIB04jUAAAAAAAAAAADSidcAAAAAAAAAAABIJ14DAAAAAAAAAAAgnXgNAAAAAAAAAACAdOI1AAAAAAAAAAAA0onXAAAAAAAAAAAASCdeAwAAAAAAAAAAIJ14DQAAAAAAAAAAgHTiNQAAAAAAAAAAANKJ1wAAAAAAAAAAAEgnXgMAAAAAAAAAACCdeA0AAAAAAAAAAIB04jUAAAAAAAAAAADSidcAAAAAAAAAAABIJ14DAAAAAAAAAAAgnXgNAAAAAAAAAACAdOI1AAAAAAAAAAAA0onXAAAAAAAAAAAASCdeAwAAAAAAAAAAIJ14DQAAAAAAAAAAgHTiNQAAAAAAAAAAANKJ1wAAAAAAAAAAAEgnXgMAAAAAAAAAACCdeA0AAAAAAAAAAIB04jUAAAAAAAAAAADSidcAAAAAAAAAAABIJ14DAAAAAAAAAAAgnXgNAAAAAAAAAACAdOI1AAAAAAAAAAAA0onXAAAAAAAAAAAASCdeAwAAAAAAAAAAIJ14DQAAAAAAAAAAgHTiNQAAAAAAAAAAANKJ1wAAAAAAAAAAAEgnXgMAAAAAAAAAACCdeA0AAAAAAAAAAIB04jUAAAAAAAAAAADSidcAAAAAAAAAAABIJ14DAAAAAAAAAAAgnXgNAAAAAAAAAACAdOI1AAAAAAAAAAAA0onXAAAAAAAAAAAASCdeAwAAAAAAAAAAIJ14DQAAAAAAAAAAgHTiNQAAAAAAAAAAANKJ1wAAAAAAAAAAAEgnXgMAAAAAAAAAACCdeA0AAAAAAAAAAIB04jUAAAAAAAAAAADSidcAAAAAAAAAAABIJ14DAAAAAAAAAAAgnXgNAAAAAAAAAACAdOI1AAAAAAAAAAAA0onXAAAAAAAAAAAASCdeAwAAAAAAAAAAIJ14DQAAAAAAAAAAgHTiNQAAAAAAAAAAANKJ1wAAAAAAAAAAAEgnXgMAAAAAAAAAACCdeA0AAAAAAAAAAIB04jUAAAAAAAAAAADSidcAAAAAAAAAAABIJ14DAAAAAAAAAAAgnXgNAAAAAAAAAACAdOI1AAAAAAAAAAAA0onXAAAAAAAAAAAASCdeAwAAAAAAAAAAIJ14DQAAAAAAAAAAgHTiNQAAAAAAAAAAANKJ1wAAAAAAAAAAAEgnXgMAAAAAAAAAACCdeA0AAAAAAAAAAIB04jUAAAAAAAAAAADSidcAAAAAAAAAAABIJ14DAAAAAAAAAAAgnXgNAAAAAAAAAACAdOI1AAAAAAAAAAAA0onXAAAAAAAAAAAASCdeAwAAAAAAAAAAIJ14DQAAAAAAAAAAgHTiNQAAAAAAAAAAANKJ1wAAAAAAAAAAAEgnXgMAAAAAAAAAACCdeA0AAAAAAAAAAIB04jUAAAAAAAAAAADSidcAAAAAAAAAAABIJ14DAAAAAAAAAAAgnXgNAAAAAAAAAACAdOI1AAAAAAAAAAAA0onXAAAAAAAAAAAASCdeAwAAAAAAAAAAIJ14DQAAAAAAAAAAgHTiNQAAAAAAAAAAANKJ1wAAAAAAAAAAAEgnXgMAAAAAAAAAACCdeA0AAAAAAAAAAIB04jUAAAAAAAAAAADSidcAAAAAAAAAAABIJ14DAAAAAAAAAAAgnXgNAAAAAAAAAACAdOI1AAAAAAAAAAAA0onXAAAAAAAAAAAASCdeAwAAAAAAAAAAIJ14DQAAAAAAAAAAgHTiNQAAAAAAAAAAANKJ1wAAAAAAAAAAAEgnXgMAAAAAAAAAACCdeA0AAAAAAAAAAIB04jUAAAAAAAAAAADSidcAAAAAAAAAAABIJ14DAAAAAAAAAAAgnXgNAAAAAAAAAACAdOI1AAAAAAAAAAAA0onXAAAAAAAAAAAASCdeAwAAAAAAAAAAIJ14DQAAAAAAAAAAgHTiNQAAAAAAAAAAANKJ1wAAAAAAAAAAAEgnXgMAAAAAAAAAACCdeA0AAAAAAAAAAIB04jUAAAAAAAAAAADSidcAAAAAAAAAAABIJ14DAAAAAAAAAAAgnXgNAAAAAAAAAACAdOI1AAAAAAAAAAAA0onXAAAAAAAAAAAASCdeAwAAAAAAAAAAIJ14DQAAAAAAAAAAgHTiNQAAAAAAAAAAANKJ1wAAAAAAAAAAAEgnXgMAAAAAAAAAACCdeA0AAAAAAAAAAIB04jUAAAAAAAAAAADSidcAAAAAAAAAAABIJ14DAAAAAAAAAAAgnXgNAAAAAAAAAACAdOI1AAAAAAAAAAAA0onXAAAAAAAAAAAASCdeAwAAAAAAAAAAIJ14DQAAAAAAAAAAgHTiNQAAAAAAAAAAANKJ1wAAAAAAAAAAAEgnXgMAAAAAAAAAACCdeA0AAAAAAAAAAIB04jUAAAAAAAAAAADSidcAAAAAAAAAAABIJ14DAAAAAAAAAAAgnXgNAAAAAAAAAACAdOI1AAAAAAAAAAAA0onXAAAAAAAAAAAASCdeAwAAAAAAAAAAIJ14DQAAAAAAAAAAgHTiNQAAAAAAAAAAANKJ1wAAAAAAAAAAAEgnXgMAAAAAAAAAACCdeA0AAAAAAAAAAIB04jUAAAAAAAAAAADSidcAAAAAAAAAAABIJ14DAAAAAAAAAAAgnXgNAAAAAAAAAACAdOI1AAAAAAAAAAAA0onXAAAAAAAAAAAASCdeAwAAAAAAAAAAIJ14DQAAAAAAAAAAgHTiNQAAAAAAAAAAANKJ1wAAAAAAAAAAAEgnXgMAAAAAAAAAACCdeA0AAAAAAAAAAIB04jUAAAAAAAAAAADSidcAAAAAAAAAAABIJ14DAAAAAAAAAAAgnXgNAAAAAAAAAACAdOI1AAAAAAAAAAAA0onXAAAAAAAAgP/Hrh0LAAAAAAzyt57FruIIAAB28hoAAAAAAAAAAAA7eQ0AAAAAAAAAAICdvAYAAAAAAAAAAMBOXgMAAAAAAAAAAGAnrwEAAAAAAAAAALCT1wAAAAAAAAAAANjJawAAAAAAAAAAAOzkNQAAAAAAAAAAAHbyGgAAAAAAAAAAADt5DQAAAAAAAAAAgJ28BgAAAAAAAAAAwE5eAwAAAAAAAAAAYCevAQAAAAAAAAAAsJPXAAAAAAAAAAAA2MlrAAAAAAAAAAAA7OQ1AAAAAAAAAAAAdvIaAAAAAAAAAAAAO3kNAAAAAAAAAACAnbwGAAAAAAAAAADATl4DAAAAAAAAAABgJ68BAAAAAAAAAACwk9cAAAAAAAAAAADYyWsAAAAAAAAAAADs5DUAAAAAAAAAAAB28hoAAAAAAAAAAAA7eQ0AAAAAAAAAAICdvAYAAAAAAAAAAMBOXgMAAAAAAAAAAGAnrwEAAAAAAAAAALCT1wAAAAAAAAAAANjJawAAAAAAAAAAAOzkNQAAAAAAAAAAAHbyGgAAAAAAAAAAADt5DQAAAAAAAAAAgJ28BgAAAAAAAAAAwE5eAwAAAAAAAAAAYCevAQAAAAAAAAAAsJPXAAAAAAAAAAAA2MlrAAAAAAAAAAAA7OQ1AAAAAAAAAAAAdvIaAAAAAAAAAAAAO3kNAAAAAAAAAACAnbwGAAAAAAAAAADATl4DAAAAAAAAAABgJ68BAAAAAAAAAACwk9cAAAAAAAAAAADYyWsAAAAAAAAAAADs5DUAAAAAAAAAAAB28hoAAAAAAAAAAAA7eQ0AAAAAAAAAAICdvAYAAAAAAAAAAMBOXgMAAAAAAAAAAGAnrwEAAAAAAAAAALCT1wAAAAAAAAAAANjJawAAAAAAAAAAAOzkNQAAAAAAAAAAAHbyGgAAAAAAAAAAADt5DQAAAAAAAAAAgJ28BgAAAAAAAAAAwE5eAwAAAAAAAAAAYCevAQAAAAAAAAAAsJPXAAAAAAAAAAAA2MlrAAAAAAAAAAAA7OQ1AAAAAAAAAAAAdvIaAAAAAAAAAAAAO3kNAAAAAAAAAACAnbwGAAAAAAAAAADATl4DAAAAAAAAAABgJ68BAAAAAAAAAACwk9cAAAAAAAAAAADYyWsAAAAAAAAAAADs5DUAAAAAAAAAAAB28hoAAAAAAAAAAAA7eQ0AAAAAAAAAAICdvAYAAAAAAAAAAMBOXgMAAAAAAAAAAGAnrwEAAAAAAAAAALCT1wAAAAAAAAAAANjJawAAAAAAAAAAAOzkNQAAAAAAAAAAAHbyGgAAAAAAAAAAADt5DQAAAAAAAAAAgJ28BgAAAAAAAAAAwE5eAwAAAAAAAAAAYCevAQAAAAAAAAAAsJPXAAAAAAAAAAAA2MlrAAAAAAAAAAAA7OQ1AAAAAAAAAAAAdvIaAAAAAAAAAAAAO3kNAAAAAAAAAACAnbwGAAAAAAAAAADATl4DAAAAAAAAAABgJ68BAAAAAAAAAACwk9cAAAAAAAAAAADYyWsAAAAAAAAAAADs5DUAAAAAAAAAAAB28hoAAAAAAAAAAAA7eQ0AAAAAAAAAAICdvAYAAAAAAAAAAMBOXgMAAAAAAAAAAGAnrwEAAAAAAAAAALCT1wAAAAAAAAAAANjJawAAAAAAAAAAAOzkNQAAAAAAAAAAAHbyGgAAAAAAAAAAADt5DQAAAAAAAAAAgJ28BgAAAAAAAAAAwE5eAwAAAAAAAAAAYCevAQAAAAAAAAAAsJPXAAAAAAAAAAAA2MlrAAAAAAAAAAAA7OQ1AAAAAAAAAAAAdvIaAAAAAAAAAAAAO3kNAAAAAAAAAACAnbwGAAAAAAAAAADATl4DAAAAAAAAAABgJ68BAAAAAAAAAACwk9cAAAAAAAAAAADYyWsAAAAAAAAAAADs5DUAAAAAAAAAAAB28hoAAAAAAAAAAAA7eQ0AAAAAAAAAAICdvAYAAAAAAAAAAMBOXgMAAAAAAAAAAGAnrwEAAAAAAAAAALCT1wAAAAAAAAAAANjJawAAAAAAAAAAAOzkNQAAAAAAAAAAAHbyGgAAAAAAAAAAADt5DQAAAAAAAAAAgJ28BgAAAAAAAAAAwE5eAwAAAAAAAAAAYCevAQAAAAAAAAAAsJPXAAAAAAAAAAAA2MlrAAAAAAAAAAAA7OQ1AAAAAAAAAAAAdvIaAAAAAAAAAAAAO3kNAAAAAAAAAACAnbwGAAAAAAAAAADATl4DAAAAAAAAAABgJ68BAAAAAAAAAACwk9cAAAAAAAAAAADYyWsAAAAAAAAAAADs5DUAAAAAAAAAAAB28hoAAAAAAAAAAAA7eQ0AAAAAAAAAAICdvAYAAAAAAAAAAMBOXgMAAAAAAAAAAGAnrwEAAAAAAAAAALCT1wAAAAAAAAAAANjJawAAAAAAAAAAAOzkNQAAAAAAAAAAAHbyGgAAAAAAAAAAADt5DQAAAAAAAAAAgJ28BgAAAAAAAAAAwE5eAwAAAAAAAAAAYCevAQAAAAAAAAAAsJPXAAAAAAAAAAAA2MlrAAAAAAAAAAAA7OQ1AAAAAAAAAAAAdvIaAAAAAAAAAAAAO3kNAAAAAAAAAACAnbwGAAAAAAAAAADATl4DAAAAAAAAAABgJ68BAAAAAAAAAACwk9cAAAAAAAAAAADYyWsAAAAAAAAAAADs5DUAAAAAAAAAAAB28hoAAAAAAAAAAAA7eQ0AAAAAAAAAAICdvAYAAAAAAAAAAMBOXgMAAAAAAAAAAGAnrwEAAAAAAAAAALCT1wAAAAAAAAAAANjJawAAAAAAAAAAAOzkNQAAAAAAAAAAAHbyGgAAAAAAAAAAADt5DQAAAAAAAAAAgJ28BgAAAAAAAAAAwE5eAwAAAAAAAAAAYCevAQAAAAAAAAAAsJPXAAAAAAAAAAAA2MlrAAAAAAAAAAAA7OQ1AAAAAAAAAAAAdvIaAAAAAAAAAAAAO3kNAAAAAAAAAACAnbwGAAAAAAAAAADATl4DAAAAAAAAAABgJ68BAAAAAAAAAACwk9cAAAAAAAAAAADYyWsAAAAAAAAAAADs5DUAAAAAAAAAAAB28hoAAAAAAAAAAAA7eQ0AAAAAAAAAAICdvAYAAAAAAAAAAMBOXgMAAAAAAAAAAGAnrwEAAAAAAAAAALCT1wAAAAAAAAAAANjJawAAAAAAAAAAAOzkNQAAAAAAAAAAAHbyGgAAAAAAAAAAADt5DQAAAAAAAAAAgJ28BgAAAAAAAAAAwE5eAwAAAAAAAAAAYCevAQAAAAAAAAAAsJPXAAAAAAAAAAAA2MlrAAAAAAAAAAAA7OQ1AAAAAAAAAAAAdvIaAAAAAAAAAAAAO3kNAAAAAAAAAACAnbwGAAAAAAAAAADATl4DAAAAAAAAAABgJ68BAAAAAAAAAACwk9cAAAAAAAAAAADYyWsAAAAAAAAAAADs5DUAAAAAAAAAAAB28hoAAAAAAAAAAAA7eQ0AAAAAAAAAAICdvAYAAAAAAAAAAMBOXgMAAAAAAAAAAGAnrwEAAAAAAAAAALCT1wAAAAAAAAAAANjJawAAAAAAAAAAAOzkNQAAAAAAAAAAAHbyGgAAAAAAAAAAADt5DQAAAAAAAAAAgJ28BgAAAAAAAAAAwE5eAwAAAAAAAAAAYCevAQAAAAAAAAAAsJPXAAAAAAAAAAAA2MlrAAAAAAAAAAAA7OQ1AAAAAAAAAAAAdvIaAAAAAAAAAAAAO3kNAAAAAAAAAACAnbwGAAAAAAAAAADATl4DAAAAAAAAAABgJ68BAAAAAAAAAACwk9cAAAAAAAAAAADYyWsAAAAAAAAAAADs5DUAAAAAAAAAAAB28hoAAAAAAAAAAAA7eQ0AAAAAAAAAAICdvAYAAAAAAAAAAMBOXgMAAAAAAAAAAGAnrwEAAAAAAAAAALCT1wAAAAAAAAAAANjJawAAAAAAAAAAAOzkNQAAAAAAAAAAAHbyGgAAAAAAAAAAADt5DQAAAAAAAAAAgJ28BgAAAAAAAAAAwE5eAwAAAAAAAAAAYCevAQAAAAAAAAAAsJPXAAAAAAAAAAAA2MlrAAAAAAAAAAAA7OQ1AAAAAAAAAAAAdvIaAAAAAAAAAAAAO3kNAAAAAAAAAACAnbwGAAAAAAAAAADATl4DAAAAAAAAAABgJ68BAAAAAAAAAACwk9cAAAAAAAAAAADYyWsAAAAAAAAAAADs5DUAAAAAAAAAAAB28hoAAAAAAAAAAAA7eQ0AAAAAAAAAAICdvAYAAAAAAAAAAMBOXgMAAAAAAAAAAGAnrwEAAAAAAAAAALCT1wAAAAAAAAAAANjJawAAAAAAAAAAAOzkNQAAAAAAAAAAAHbyGgAAAAAAAAAAADt5DQAAAAAAAAAAgJ28BgAAAAAAAAAAwE5eAwAAAAAAAAAAYCevAQAAAAAAAAAAsJPXAAAAAAAAAAAA2MlrAAAAAAAAAAAA7OQ1AAAAAAAAAAAAdvIaAAAAAAAAAAAAO3kNAAAAAAAAAACAnbwGAAAAAAAAAADATl4DAAAAAAAAAABgJ68BAAAAAAAAAACwk9cAAAAAAAAAAADYyWsAAAAAAAAAAADs5DUAAAAAAAAAAAB28hoAAAAAAAAAAAA7eQ0AAAAAAAAAAICdvAYAAAAAAAAAAMBOXgMAAAAAAAAAAGAnrwEAAAAAAAAAALCT1wAAAAAAAAAAANjJawAAAAAAAAAAAOzkNQAAAAAAAAAAAHbyGgAAAAAAAAAAADt5DQAAAAAAAAAAgJ28BgAAAAAAAAAAwE5eAwAAAAAAAAAAYCevAQAAAAAAAAAAsJPXAAAAAAAAAAAA2MlrAAAAAAAAAAAA7OQ1AAAAAAAAAAAAdvIaAAAAAAAAAAAAO3kNAAAAAAAAAACAnbwGAAAAAAAAAADATl4DAAAAAAAAAABgJ68BAAAAAAAAAACwk9cAAAAAAAAAAADYyWsAAAAAAAAAAADs5DUAAAAAAAAAAAB28hoAAAAAAAAAAAA7eQ0AAAAAAAAAAICdvAYAAAAAAAAAAMBOXgMAAAAAAAAAAGAnrwEAAAAAAAAAALCT1wAAAAAAAAAAANjJawAAAAAAAAAAAOzkNQAAAAAAAAAAAHbyGgAAAAAAAAAAADt5DQAAAAAAAAAAgJ28BgAAAAAAAAAAwE5eAwAAAAAAAAAAYCevAQAAAAAAAAAAsJPXAAAAAAAAAAAA2MlrAAAAAAAAAAAA7OQ1AAAAAAAAAAAAdvIaAAAAAAAAAAAAO3kNAAAAAAAAAACAnbwGAAAAAAAAAADATl4DAAAAAAAAAABgJ68BAAAAAAAAAACwk9cAAAAAAAAAAADYyWsAAAAAAAAAAADs5DUAAAAAAAAAAAB28hoAAAAAAAAAAAA7eQ0AAAAAAAAAAICdvAYAAAAAAAAAAMBOXgMAAAAAAAAAAGAnrwEAAAAAAAAAALCT1wAAAAAAAAAAANjJawAAAAAAAAAAAOzkNQAAAAAAAAAAAHbyGgAAAAAAAAAAADt5DQAAAAAAAAAAgJ28BgAAAAAAAAAAwE5eAwAAAAAAAAAAYCevAQAAAAAAAAAAsJPXAAAAAAAAAAAA2MlrAAAAAAAAAAAA7OQ1AAAAAAAAAAAAdvIaAAAAAAAAAAAAO3kNAAAAAAAAAACAnbwGAAAAAAAAAADATl4DAAAAAAAAAABgJ68BAAAAAAAAAACwk9cAAAAAAAAAAADYyWsAAAAAAAAAAADs5DUAAAAAAAAAAAB28hoAAAAAAAAAAAA7eQ0AAAAAAAAAAICdvAYAAAAAAAAAAMBOXgMAAAAAAAAAAGAnrwEAAAAAAAAAALCT1wAAAAAAAAAAANjJawAAAAAAAAAAAOzkNQAAAAAAAAAAAHbyGgAAAAAAAAAAADt5DQAAAAAAAAAAgJ28BgAAAAAAAAAAwE5eAwAAAAAAAAAAYCevAQAAAAAAAAAAsJPXAAAAAAAAAAAA2MlrAAAAAAAAAAAA7OQ1AAAAAAAAAAAAdvIaAAAAAAAAAAAAO3kNAAAAAAAAAACAnbwGAAAAAAAAAADATl4DAAAAAAAAAABgJ68BAAAAAAAAAACwk9cAAAAAAAAAAADYyWsAAAAAAAAAAADs5DUAAAAAAAAAAAB28hoAAAAAAAAAAAA7eQ0AAAAAAAAAAICdvAYAAAAAAAAAAMBOXgMAAAAAAAAAAGAnrwEAAAAAAAAAALCT1wAAAAAAAAAAANjJawAAAAAAAAAAAOzkNQAAAAAAAAAAAHbyGgAAAAAAAAAAADt5DQAAAAAAAAAAgJ28BgAAAAAAAAAAwE5eAwAAAAAAAAAAYCevAQAAAAAAAAAAsJPXAAAAAAAAAAAA2MlrAAAAAAAAAAAA7OQ1AAAAAAAAAAAAdvIaAAAAAAAAAAAAO3kNAAAAAAAAAACAnbwGAAAAAAAAAADATl4DAAAAAAAAAABgJ68BAAAAAAAAAACwk9cAAAAAAAAAAADYyWsAAAAAAAAAAADs5DUAAAAAAAAAAAB28hoAAAAAAAAAAAA7eQ0AAAAAAAAAAICdvAYAAAAAAAAAAMBOXgMAAAAAAAAAAGAnrwEAAAAAAAAAALCT1wAAAAAAAAAAANjJawAAAAAAAAAAAOzkNQAAAAAAAAAAAHbyGgAAAAAAAAAAADt5DQAAAAAAAAAAgJ28BgAAAAAAAAAAwE5eAwAAAAAAAAAAYCevAQAAAAAAAAAAsJPXAAAAAAAAAAAA2MlrAAAAAAAAAAAA7OQ1AAAAAAAAAAAAdvIaAAAAAAAAAAAAO3kNAAAAAAAAAACAnbwGAAAAAAAAAADATl4DAAAAAAAAAABgJ68BAAAAAAAAAACwk9cAAAAAAAAAAADYyWsAAAAAAAAAAADs5DUAAAAAAAAAAAB28hoAAAAAAAAAAAA7eQ0AAAAAAAAAAICdvAYAAAAAAAAAAMBOXgMAAAAAAAAAAGAnrwEAAAAAAAAAALCT1wAAAAAAAAAAANjJawAAAAAAAAAAAOzkNQAAAAAAAAAAAHbyGgAAAAAAAAAAADt5DQAAAAAAAAAAgJ28BgAAAAAAAAAAwE5eAwAAAAAAAAAAYCevAQAAAAAAAAAAsJPXAAAAAAAAAAAA2MlrAAAAAAAAAAAA7OQ1AAAAAAAAAAAAdvIaAAAAAAAAAAAAO3kNAAAAAAAAAACAnbwGAAAAAAAAAADATl4DAAAAAAAAAABgJ68BAAAAAAAAAACwk9cAAAAAAAAAAADYyWsAAAAAAAAAAADs5DUAAAAAAAAAAAB28hoAAAAAAAAAAAA7eQ0AAAAAAAAAAICdvAYAAAAAAAAAAMBOXgMAAAAAAAAAAGAnrwEAAAAAAAAAALCT1wAAAAAAAAAAANjJawAAAAAAAAAAAOzkNQAAAAAAAAAAAHbyGgAAAAAAAAAAADt5DQAAAAAAAAAAgJ28BgAAAAAAAAAAwE5eAwAAAAAAAAAAYCevAQAAAAAAAAAAsJPXAAAAAAAAAAAA2MlrAAAAAAAAAAAA7OQ1AAAAAAAAAAAAdvIaAAAAAAAAAAAAO3kNAAAAAAAAAACAnbwGAAAAAAAAAADATl4DAAAAAAAAAABgJ68BAAAAAAAAAACwk9cAAAAAAAAAAADYyWsAAAAAAAAAAADs5DUAAAAAAAAAAAB28hoAAAAAAAAAAAA7eQ0AAAAAAAAAAICdvAYAAAAAAAAAAMBOXgMAAAAAAAAAAGAnrwEAAAAAAAAAALCT1wAAAAAAAAAAANjJawAAAAAAAAAAAOzkNQAAAAAAAAAAAHbyGgAAAAAAAAAAADt5DQAAAAAAAAAAgJ28BgAAAAAAAAAAwE5eAwAAAAAAAAAAYCevAQAAAAAAAAAAsJPXAAAAAAAAAAAA2MlrAAAAAAAAAAAA7OQ1AAAAAAAAAAAAdvIaAAAAAAAAAAAAO3kNAAAAAAAAAACAnbwGAAAAAAAAAADATl4DAAAAAAAAAABgJ68BAAAAAAAAAACwk9cAAAAAAAAAAADYyWsAAAAAAAAAAADs5DUAAAAAAAAAAAB28hoAAAAAAAAAAAA7eQ0AAAAAAAAAAICdvAYAAAAAAAAAAMBOXgMAAAAAAAAAAGAnrwEAAAAAAAAAALCT1wAAAAAAAAAAANjJawAAAAAAAAAAAOzkNQAAAAAAAAAAAHbyGgAAAAAAAAAAADt5DQAAAAAAAAAAgJ28BgAAAAAAAAAAwE5eAwAAAAAAAAAAYCevAQAAAAAAAAAAsJPXAAAAAAAAAAAA2MlrAAAAAAAAAAAA7OQ1AAAAAAAAAAAAdvIaAAAAAAAAAAAAO3kNAAAAAAAAAACAnbwGAAAAAAAAAADATl4DAAAAAAAAAABgJ68BAAAAAAAAAACwk9cAAAAAAAAAAADYyWsAAAAAAAAAAADs5DUAAAAAAAAAAAB28hoAAAAAAAAAAAA7eQ0AAAAAAAAAAICdvAYAAAAAAAAAAMBOXgMAAAAAAAAAAGAnrwEAAAAAAAAAALCT1wAAAAAAAAAAANjJawAAAAAAAAAAAOzkNQAAAAAAAAAAAHbyGgAAAAAAAAAAADt5DQAAAAAAAAAAgJ28BgAAAAAAAAAAwE5eAwAAAAAAAAAAYCevAQAAAAAAAAAAsJPXAAAAAAAAAAAA2MlrAAAAAAAAAAAA7OQ1AAAAAAAAAAAAdvIaAAAAAAAAAAAAO3kNAAAAAAAAAACAnbwGAAAAAAAAAADATl4DAAAAAAAAAABgJ68BAAAAAAAAAACwk9cAAAAAAAAAAADYyWsAAAAAAAAAAADs5DUAAAAAAAAAAAB28hoAAAAAAAAAAAA7eQ0AAAAAAAAAAICdvAYAAAAAAAAAAMBOXgMAAAAAAAAAAGAnrwEAAAAAAAAAALCT1wAAAAAAAAAAANjJawAAAAAAAAAAAOzkNQAAAAAAAAAAAHbyGgAAAAAAAAAAADt5DQAAAAAAAAAAgJ28BgAAAAAAAAAAwE5eAwAAAAAAAAAAYCevAQAAAAAAAAAAsJPXAAAAAAAAAAAA2MlrAAAAAAAAAAAA7OQ1AAAAAAAAAAAAdvIaAAAAAAAAAAAAO3kNAAAAAAAAAACAnbwGAAAAAAAAAADATl4DAAAAAAAAAABgJ68BAAAAAAAAAACwk9cAAAAAAAAAAADYyWsAAAAAAAAAAADs5DUAAAAAAAAAAAB28hoAAAAAAAAAAAA7eQ0AAAAAAAAAAICdvAYAAAAAAAAAAMBOXgMAAAAAAAAAAGAnrwEAAAAAAAAAALCT1wAAAAAAAAAAANjJawAAAAAAAAAAAOzkNQAAAAAAAAAAAHbyGgAAAAAAAAAAADt5DQAAAAAAAAAAgJ28BgAAAAAAAAAAwE5eAwAAAAAAAAAAYCevAQAAAAAAAAAAsJPXAAAAAAAAAAAA2MlrAAAAAAAAAAAA7OQ1AAAAAAAAAAAAdvIaAAAAAAAAAAAAO3kNAAAAAAAAAACAnbwGAAAAAAAAAADATl4DAAAAAAAAAABgJ68BAAAAAAAAAACwk9cAAAAAAAAAAADYyWsAAAAAAAAAAADs5DUAAAAAAAAAAAB28hoAAAAAAAAAAAA7eQ0AAAAAAAAAAICdvAYAAAAAAAAAAMBOXgMAAAAAAAAAAGAnrwEAAAAAAAAAALCT1wAAAAAAAAAAANjJawAAAAAAAAAAAOzkNQAAAAAAAAAAAHbyGgAAAAAAAAAAADt5DQAAAAAAAAAAgJ28BgAAAAAAAAAAwE5eAwAAAAAAAAAAYCevAQAAAAAAAAAAsJPXAAAAAAAAAAAA2MlrAAAAAAAAAAAA7OQ1AAAAAAAAAAAAdvIaAAAAAAAAAAAAO3kNAAAAAAAAAACAnbwGAAAAAAAAAADATl4DAAAAAAAAAABgJ68BAAAAAAAAAACwk9cAAAAAAAAAAADYyWsAAAAAAAAAAADs5DUAAAAAAAAAAAB28hoAAAAAAAAAAAA7eQ0AAAAAAAAAAICdvAYAAAAAAAAAAMBOXgMAAAAAAAAAAGAnrwEAAAAAAAAAALCT1wAAAAAAAAAAANjJawAAAAAAAAAAAOzkNQAAAAAAAAAAAHbyGgAAAAAAAAAAADt5DQAAAAAAAAAAgJ28BgAAAAAAAAAAwE5eAwAAAAAAAAAAYCevAQAAAAAAAAAAsJPXAAAAAAAAAAAA2MlrAAAAAAAAAAAA7OQ1AAAAAAAAAAAAdvIaAAAAAAAAAAAAO3kNAAAAAAAAAACAnbwGAAAAAAAAAADATl4DAAAAAAAAAABgJ68BAAAAAAAAAACwk9cAAAAAAAAAAADYyWsAAAAAAAAAAADs5DUAAAAAAAAAAAB28hoAAAAAAAAAAAA7eQ0AAAAAAAAAAICdvAYAAAAAAAAAAMBOXgMAAAAAAAAAAGAnrwEAAAAAAAAAALCT1wAAAAAAAAAAANjJawAAAAAAAAAAAOzkNQAAAAAAAAAAAHbyGgAAAAAAAAAAADt5DQAAAAAAAAAAgJ28BgAAAAAAAAAAwE5eAwAAAAAAAAAAYCevAQAAAAAAAAAAsJPXAAAAAAAAAAAA2MlrAAAAAAAAAAAA7OQ1AAAAAAAAAAAAdvIaAAAAAAAAAAAAO3kNAAAAAAAAAACAnbwGAAAAAAAAAADATl4DAAAAAAAAAABgJ68BAAAAAAAAAACwk9cAAAAAAAAAAADYyWsAAAAAAAAAAADs5DUAAAAAAAAAAAB28hoAAAAAAAAAAAA7eQ0AAAAAAAAAAICdvAYAAAAAAAAAAMBOXgMAAAAAAAAAAGAnrwEAAAAAAAAAALCT1wAAAAAAAAAAANjJawAAAAAAAAAAAOzkNQAAAAAAAAAAAHbyGgAAAAAAAAAAADt5DQAAAAAAAAAAgJ28BgAAAAAAAAAAwE5eAwAAAAAAAAAAYCevAQAAAAAAAAAAsJPXAAAAAAAAAAAA2MlrAAAAAAAAAAAA7OQ1AAAAAAAAAAAAdvIaAAAAAAAAAAAAO3kNAAAAAAAAAACAnbwGAAAAAAAAAADATl4DAAAAAAAAAABgJ68BAAAAAAAAAACwk9cAAAAAAAAAAADYyWsAAAAAAAAAAADs5DUAAAAAAAAAAAB28hoAAAAAAAAAAAA7eQ0AAAAAAAAAAICdvAYAAAAAAAAAAMBOXgMAAAAAAAAAAGAnrwEAAAAAAAAAALCT1wAAAAAAAAAAANjJawAAAAAAAAAAAOzkNQAAAAAAAAAAAHbyGgAAAAAAAAAAADt5DQAAAAAAAAAAgJ28BgAAAAAAAAAAwE5eAwAAAAAAAAAAYCevAQAAAAAAAAAAsJPXAAAAAAAAAAAA2MlrAAAAAAAAAAAA7OQ1AAAAAAAAAAAAdvIaAAAAAAAAAAAAO3kNAAAAAAAAAACAnbwGAAAAAAAAAADATl4DAAAAAAAAAABgJ68BAAAAAAAAAACwk9cAAAAAAAAAAADYyWsAAAAAAAAAAADs5DUAAAAAAAAAAAB28hoAAAAAAAAAAAA7eQ0AAAAAAAAAAICdvAYAAAAAAAAAAMBOXgMAAAAAAAAAAGAnrwEAAAAAAAAAALCT1wAAAAAAAAAAANjJawAAAAAAAAAAAOzkNQAAAAAAAAAAAHbyGgAAAAAAAAAAADt5DQAAAAAAAAAAgJ28BgAAAAAAAAAAwE5eAwAAAAAAAAAAYCevAQAAAAAAAAAAsJPXAAAAAAAAAAAA2MlrAAAAAAAAAAAA7OQ1AAAAAAAAAAAAdvIaAAAAAAAAAAAAO3kNAAAAAAAAAACAnbwGAAAAAAAAAADATl4DAAAAAAAAAABgJ68BAAAAAAAAAACwk9cAAAAAAAAAAADYyWsAAAAAAAAAAADs5DUAAAAAAAAAAAB28hoAAAAAAAAAAAA7eQ0AAAAAAAAAAICdvAYAAAAAAAAAAMBOXgMAAAAAAAAAAGAnrwEAAAAAAAAAALCT1wAAAAAAAAAAANjJawAAAAAAAAAAAOzkNQAAAAAAAAAAAHbyGgAAAAAAAAAAADt5DQAAAAAAAAAAgJ28BgAAAAAAAAAAwE5eAwAAAAAAAAAAYCevAQAAAAAAAAAAsJPXAAAAAAAAAAAA2MlrAAAAAAAAAAAA7OQ1AAAAAAAAAAAAdvIaAAAAAAAAAAAAO3kNAAAAAAAAAACAnbwGAAAAAAAAAADATl4DAAAAAAAAAABgJ68BAAAAAAAAAACwk9cAAAAAAAAAAADYyWsAAAAAAAAAAADs5DUAAAAAAAAAAAB28hoAAAAAAAAAAAA7eQ0AAAAAAAAAAICdvAYAAAAAAAAAAMBOXgMAAAAAAAAAAGAnrwEAAAAAAAAAALCT1wAAAAAAAAAAANjJawAAAAAAAAAAAOzkNQAAAAAAAAAAAHbyGgAAAAAAAAAAADt5DQAAAAAAAAAAgJ28BgAAAAAAAAAAwE5eAwAAAAAAAAAAYCevAQAAAAAAAAAAsJPXAAAAAAAAAAAA2MlrAAAAAAAAAAAA7OQ1AAAAAAAAAAAAdvIaAAAAAAAAAAAAO3kNAAAAAAAAAACAnbwGAAAAAAAAAADATl4DAAAAAAAAAABgJ68BAAAAAAAAAACwk9cAAAAAAAAAAADYyWsAAAAAAAAAAADs5DUAAAAAAAAAAAB28hoAAAAAAAAAAAA7eQ0AAAAAAAAAAICdvAYAAAAAAAAAAMBOXgMAAAAAAAAAAGAnrwEAAAAAAAAAALCT1wAAAAAAAAAAANjJawAAAAAAAAAAAOzkNQAAAAAAAAAAAHbyGgAAAAAAAAAAADt5DQAAAAAAAAAAgJ28BgAAAAAAAAAAwE5eAwAAAAAAAAAAYCevAQAAAAAAAAAAsJPXAAAAAAAAAAAA2MlrAAAAAAAAAAAA7OQ1AAAAAAAAAAAAdvIaAAAAAAAAAAAAO3kNAAAAAAAAAACAnbwGAAAAAAAAAADATl4DAAAAAAAAAABgJ68BAAAAAAAAAACwk9cAAAAAAAAAAADYyWsAAAAAAAAAAADs5DUAAAAAAAAAAAB28hoAAAAAAAAAAAA7eQ0AAAAAAAAAAICdvAYAAAAAAAAAAMBOXgMAAAAAAAAAAGAnrwEAAAAAAAAAALCT1wAAAAAAAAAAANjJawAAAAAAAAAAAOzkNQAAAAAAAAAAAHbyGgAAAAAAAAAAADt5DQAAAAAAAAAAgJ28BgAAAAAAAAAAwE5eAwAAAAAAAAAAYCevAQAAAAAAAAAAsJPXAAAAAAAAAAAA2MlrAAAAAAAAAAAA7OQ1AAAAAAAAAAAAdvIaAAAAAAAAAAAAO3kNAAAAAAAAAACAnbwGAAAAAAAAAADATl4DAAAAAAAAAABgJ68BAAAAAAAAAACwk9cAAAAAAAAAAADYyWsAAAAAAAAAAADs5DUAAAAAAAAAAIhdOxYAAAAAGORvPYtdxRGwk9cAAAAAAAAAAADYyWsAAAAAAAAAAADs5DUAAAAAAAAAAAB28hoAAAAAAAAAAAA7eQ0AAAAAAAAAAICdvAYAAAAAAAAAAMBOXgMAAAAAAAAAAGAnrwEAAAAAAAAAALCT1wAAAAAAAAAAANjJawAAAAAAAAAAAOzkNQAAAAAAAAAAAHbyGgAAAAAAAAAAADt5DQAAAAAAAAAAgJ28BgAAAAAAAAAAwE5eAwAAAAAAAAAAYCevAQAAAAAAAAAAsJPXAAAAAAAAAAAA2MlrAAAAAAAAAAAA7OQ1AAAAAAAAAAAAdvIaAAAAAAAAAAAAO3kNAAAAAAAAAACAnbwGAAAAAAAAAADATl4DAAAAAAAAAABgJ68BAAAAAAAAAACwk9cAAAAAAAAAAADYyWsAAAAAAAAAAADs5DUAAAAAAAAAAAB28hoAAAAAAAAAAAA7eQ0AAAAAAAAAAICdvAYAAAAAAAAAAMBOXgMAAAAAAAAAAGAnrwEAAAAAAAAAALCT1wAAAAAAAAAAANjJawAAAAAAAAAAAOzkNQAAAAAAAAAAAHbyGgAAAAAAAAAAADt5DQAAAAAAAAAAgJ28BgAAAAAAAAAAwE5eAwAAAAAAAAAAYCevAQAAAAAAAAAAsJPXAAAAAAAAAAAA2MlrAAAAAAAAAAAA7OQ1AAAAAAAAAAAAdvIaAAAAAAAAAAAAO3kNAAAAAAAAAACAnbwGAAAAAAAAAADATl4DAAAAAAAAAABgJ68BAAAAAAAAAACwk9cAAAAAAAAAAADYyWsAAAAAAAAAAADs5DUAAAAAAAAAAAB28hoAAAAAAAAAAAA7eQ0AAAAAAAAAAICdvAYAAAAAAAAAAMBOXgMAAAAAAAAAAGAnrwEAAAAAAAAAALCT1wAAAAAAAAAAANjJawAAAAAAAAAAAOzkNQAAAAAAAAAAAHbyGgAAAAAAAAAAADt5DQAAAAAAAAAAgJ28BgAAAAAAAAAAwE5eAwAAAAAAAAAAYCevAQAAAAAAAAAAsJPXAAAAAAAAAAAA2MlrAAAAAAAAAAAA7OQ1AAAAAAAAAAAAdvIaAAAAAAAAAAAAO3kNAAAAAAAAAACAnbwGAAAAAAAAAADATl4DAAAAAAAAAABgJ68BAAAAAAAAAACwk9cAAAAAAAAAAADYyWsAAAAAAAAAAADs5DUAAAAAAAAAAAB28hoAAAAAAAAAAAA7eQ0AAAAAAAAAAICdvAYAAAAAAAAAAMBOXgMAAAAAAAAAAGAnrwEAAAAAAAAAALCT1wAAAAAAAAAAANjJawAAAAAAAAAAAOzkNQAAAAAAAAAAAHbyGgAAAAAAAAAAADt5DQAAAAAAAAAAgJ28BgAAAAAAAAAAwE5eAwAAAAAAAAAAYCevAQAAAAAAAAAAsJPXAAAAAAAAAAAA2MlrAAAAAAAAAAAA7OQ1AAAAAAAAAAAAdvIaAAAAAAAAAAAAO3kNAAAAAAAAAACAnbwGAAAAAAAAAADATl4DAAAAAAAAAABgJ68BAAAAAAAAAACwk9cAAAAAAAAAAADYyWsAAAAAAAAAAADs5DUAAAAAAAAAAAB28hoAAAAAAAAAAAA7eQ0AAAAAAAAAAICdvAYAAAAAAAAAAMBOXgMAAAAAAAAAAGAnrwEAAAAAAAAAALCT1wAAAAAAAAAAANjJawAAAAAAAAAAAOzkNQAAAAAAAAAAAHbyGgAAAAAAAAAAADt5DQAAAAAAAAAAgJ28BgAAAAAAAAAAwE5eAwAAAAAAAAAAYCevAQAAAAAAAAAAsJPXAAAAAAAAAAAA2MlrAAAAAAAAAAAA7OQ1AAAAAAAAAAAAdvIaAAAAAAAAAAAAO3kNAAAAAAAAAACAnbwGAAAAAAAAAADATl4DAAAAAAAAAABgJ68BAAAAAAAAAACwk9cAAAAAAAAAAADYyWsAAAAAAAAAAADs5DUAAAAAAAAAAAB28hoAAAAAAAAAAAA7eQ0AAAAAAAAAAICdvAYAAAAAAAAAAMBOXgMAAAAAAAAAAGAnrwEAAAAAAAAAALCT1wAAAAAAAAAAANjJawAAAAAAAAAAAOzkNQAAAAAAAAAAAHbyGgAAAAAAAAAAADt5DQAAAAAAAAAAgJ28BgAAAAAAAAAAwE5eAwAAAAAAAAAAYCevAQAAAAAAAAAAsJPXAAAAAAAAAAAA2MlrAAAAAAAAAAAA7OQ1AAAAAAAAAAAAdvIaAAAAAAAAAAAAO3kNAAAAAAAAAACAnbwGAAAAAAAAAADATl4DAAAAAAAAAABgJ68BAAAAAAAAAACwk9cAAAAAAAAAAADYyWsAAAAAAAAAAADs5DUAAAAAAAAAAAB28hoAAAAAAAAAAAA7eQ0AAAAAAAAAAICdvAYAAAAAAAAAAMBOXgMAAAAAAAAAAGAnrwEAAAAAAAAAALCT1wAAAAAAAAAAANjJawAAAAAAAAAAAOzkNQAAAAAAAAAAAHbyGgAAAAAAAAAAADt5DQAAAAAAAAAAgJ28BgAAAAAAAAAAwE5eAwAAAAAAAAAAYCevAQAAAAAAAAAAsJPXAAAAAAAAAAAA2MlrAAAAAAAAAAAA7OQ1AAAAAAAAAAAAdvIaAAAAAAAAAAAAO3kNAAAAAAAAAACAnbwGAAAAAAAAAADATl4DAAAAAAAAAABgJ68BAAAAAAAAAACwk9cAAAAAAAAAAADYyWsAAAAAAAAAAADs5DUAAAAAAAAAAAB28hoAAAAAAAAAAAA7eQ0AAAAAAAAAAICdvAYAAAAAAAAAAMBOXgMAAAAAAAAAAGAnrwEAAAAAAAAAALCT1wAAAAAAAAAAANjJawAAAAAAAAAAAOzkNQAAAAAAAAAAAHbyGgAAAAAAAAAAADt5DQAAAAAAAAAAgJ28BgAAAAAAAAAAwE5eAwAAAAAAAAAAYCevAQAAAAAAAAAAsJPXAAAAAAAAAAAA2MlrAAAAAAAAAAAA7OQ1AAAAAAAAAAAAdvIaAAAAAAAAAAAAO3kNAAAAAAAAAACAnbwGAAAAAAAAAADATl4DAAAAAAAAAABgJ68BAAAAAAAAAACwk9cAAAAAAAAAAADYyWsAAAAAAAAAAADs5DUAAAAAAAAAAAB28hoAAAAAAAAAAAA7eQ0AAAAAAAAAAICdvAYAAAAAAAAAAMBOXgMAAAAAAAAAAGAnrwEAAAAAAAAAALCT1wAAAAAAAAAAANjJawAAAAAAAAAAAOzkNQAAAAAAAAAAAHbyGgAAAAAAAAAAADt5DQAAAAAAAAAAgJ28BgAAAAAAAAAAwE5eAwAAAAAAAAAAYCevAQAAAAAAAAAAsJPXAAAAAAAAAAAA2MlrAAAAAAAAAAAA7OQ1AAAAAAAAAAAAdvIaAAAAAAAAAAAAO3kNAAAAAAAAAACAnbwGAAAAAAAAAADATl4DAAAAAAAAAABgJ68BAAAAAAAAAACwk9cAAAAAAAAAAADYyWsAAAAAAAAAAADs5DUAAAAAAAAAAAB28hoAAAAAAAAAAAA7eQ0AAAAAAAAAAICdvAYAAAAAAAAAAMBOXgMAAAAAAAAAAGAnrwEAAAAAAAAAALCT1wAAAAAAAAAAANjJawAAAAAAAAAAAOzkNQAAAAAAAAAAAHbyGgAAAAAAAAAAADt5DQAAAAAAAAAAgJ28BgAAAAAAAAAAwE5eAwAAAAAAAAAAYCevAQAAAAAAAAAAsJPXAAAAAAAAAAAA2MlrAAAAAAAAAAAA7OQ1AAAAAAAAAAAAdvIaAAAAAAAAAAAAO3kNAAAAAAAAAACAnbwGAAAAAAAAAADATl4DAAAAAAAAAABgJ68BAAAAAAAAAACwk9cAAAAAAAAAAADYyWsAAAAAAAAAAADs5DUAAAAAAAAAAAB28hoAAAAAAAAAAAA7eQ0AAAAAAAAAAICdvAYAAAAAAAAAAMBOXgMAAAAAAAAAAGAnrwEAAAAAAAAAALCT1wAAAAAAAAAAANjJawAAAAAAAAAAAOzkNQAAAAAAAAAAAHbyGgAAAAAAAAAAADt5DQAAAAAAAAAAgJ28BgAAAAAAAAAAwE5eAwAAAAAAAAAAYCevAQAAAAAAAAAAsJPXAAAAAAAAAAAA2MlrAAAAAAAAAAAA7OQ1AAAAAAAAAAAAdvIaAAAAAAAAAAAAO3kNAAAAAAAAAACAnbwGAAAAAAAAAADATl4DAAAAAAAAAABgJ68BAAAAAAAAAACwk9cAAAAAAAAAAADYyWsAAAAAAAAAAADs5DUAAAAAAAAAAAB28hoAAAAAAAAAAAA7eQ0AAAAAAAAAAICdvAYAAAAAAAAAAMBOXgMAAAAAAAAAAGAnrwEAAAAAAAAAALCT1wAAAAAAAAAAANjJawAAAAAAAAAAAOzkNQAAAAAAAAAAAHbyGgAAAAAAAAAAADt5DQAAAAAAAAAAgJ28BgAAAAAAAAAAwE5eAwAAAAAAAAAAYCevAQAAAAAAAAAAsJPXAAAAAAAAAAAA2MlrAAAAAAAAAAAA7OQ1AAAAAAAAAAAAdvIaAAAAAAAAAAAAO3kNAAAAAAAAAACAnbwGAAAAAAAAAADATl4DAAAAAAAAAABgJ68BAAAAAAAAAACwk9cAAAAAAAAAAADYyWsAAAAAAAAAAADs5DUAAAAAAAAAAAB28hoAAAAAAAAAAAA7eQ0AAAAAAAAAAICdvAYAAAAAAAAAAMBOXgMAAAAAAAAAAGAnrwEAAAAAAAAAALCT1wAAAAAAAAAAANjJawAAAAAAAAAAAOzkNQAAAAAAAAAAAHbyGgAAAAAAAAAAADt5DQAAAAAAAAAAgJ28BgAAAAAAAAAAwE5eAwAAAAAAAAAAYCevAQAAAAAAAAAAsJPXAAAAAAAAAAAA2MlrAAAAAAAAAAAA7OQ1AAAAAAAAAAAAdvIaAAAAAAAAAAAAO3kNAAAAAAAAAACAnbwGAAAAAAAAAADATl4DAAAAAAAAAABgJ68BAAAAAAAAAACwk9cAAAAAAAAAAADYyWsAAAAAAAAAAADs5DUAAAAAAAAAAAB28hoAAAAAAAAAAAA7eQ0AAAAAAAAAAICdvAYAAAAAAAAAAMBOXgMAAAAAAAAAAGAnrwEAAAAAAAAAALCT1wAAAAAAAAAAANjJawAAAAAAAAAAAOzkNQAAAAAAAAAAAHbyGgAAAAAAAAAAADt5DQAAAAAAAAAAgJ28BgAAAAAAAAAAwE5eAwAAAAAAAAAAYCevAQAAAAAAAAAAsJPXAAAAAAAAAAAA2MlrAAAAAAAAAAAA7OQ1AAAAAAAAAAAAdvIaAAAAAAAAAAAAO3kNAAAAAAAAAACAnbwGAAAAAAAAAADATl4DAAAAAAAAAABgJ68BAAAAAAAAAACwk9cAAAAAAAAAAADYyWsAAAAAAAAAAADs5DUAAAAAAAAAAAB28hoAAAAAAAAAAAA7eQ0AAAAAAAAAAICdvAYAAAAAAAAAAMBOXgMAAAAAAAAAAGAnrwEAAAAAAAAAALCT1wAAAAAAAAAAANjJawAAAAAAAAAAAOzkNQAAAAAAAAAAAHbyGgAAAAAAAAAAADt5DQAAAAAAAAAAgJ28BgAAAAAAAAAAwE5eAwAAAAAAAAAAYCevAQAAAAAAAAAAsJPXAAAAAAAAAAAA2MlrAAAAAAAAAAAA7OQ1AAAAAAAAAAAAdvIaAAAAAAAAAAAAO3kNAAAAAAAAAACAnbwGAAAAAAAAAADATl4DAAAAAAAAAABgJ68BAAAAAAAAAACwk9cAAAAAAAAAAADYyWsAAAAAAAAAAADs5DUAAAAAAAAAAAB28hoAAAAAAAAAAAA7eQ0AAAAAAAAAAICdvAYAAAAAAAAAAMBOXgMAAAAAAAAAAGAnrwEAAAAAAAAAALCT1wAAAAAAAAAAANjJawAAAAAAAAAAAOzkNQAAAAAAAAAAAHbyGgAAAAAAAAAAADt5DQAAAAAAAAAAgJ28BgAAAAAAAAAAwE5eAwAAAAAAAAAAYCevAQAAAAAAAAAAsJPXAAAAAAAAAAAA2MlrAAAAAAAAAAAA7OQ1AAAAAAAAAAAAdvIaAAAAAAAAAAAAO3kNAAAAAAAAAACAnbwGAAAAAAAAAADATl4DAAAAAAAAAABgJ68BAAAAAAAAAACwk9cAAAAAAAAAAADYyWsAAAAAAAAAAADs5DUAAAAAAAAAAAB28hoAAAAAAAAAAAA7eQ0AAAAAAAAAAICdvAYAAAAAAAAAAMBOXgMAAAAAAAAAAGAnrwEAAAAAAAAAALCT1wAAAAAAAAAAANjJawAAAAAAAAAAAOzkNQAAAAAAAAAAAHbyGgAAAAAAAAAAADt5DQAAAAAAAAAAgJ28BgAAAAAAAAAAwE5eAwAAAAAAAAAAYCevAQAAAAAAAAAAsJPXAAAAAAAAAAAA2MlrAAAAAAAAAAAA7OQ1AAAAAAAAAAAAdvIaAAAAAAAAAAAAO3kNAAAAAAAAAACAnbwGAAAAAAAAAADATl4DAAAAAAAAAABgJ68BAAAAAAAAAACwk9cAAAAAAAAAAADYyWsAAAAAAAAAAADs5DUAAAAAAAAAAAB28hoAAAAAAAAAAAA7eQ0AAAAAAAAAAICdvAYAAAAAAAAAAMBOXgMAAAAAAAAAAGAnrwEAAAAAAAAAALCT1wAAAAAAAAAAANjJawAAAAAAAAAAAOzkNQAAAAAAAAAAAHbyGgAAAAAAAAAAADt5DQAAAAAAAAAAgJ28BgAAAAAAAAAAwE5eAwAAAAAAAAAAYCevAQAAAAAAAAAAsJPXAAAAAAAAAAAA2MlrAAAAAAAAAAAA7OQ1AAAAAAAAAAAAdvIaAAAAAAAAAAAAO3kNAAAAAAAAAACAnbwGAAAAAAAAAADATl4DAAAAAAAAAABgJ68BAAAAAAAAAACwk9cAAAAAAAAAAADYyWsAAAAAAAAAAADs5DUAAAAAAAAAAAB28hoAAAAAAAAAAAA7eQ0AAAAAAAAAAICdvAYAAAAAAAAAAMBOXgMAAAAAAAAAAGAnrwEAAAAAAAAAALCT1wAAAAAAAAAAANjJawAAAAAAAAAAAOzkNQAAAAAAAAAAAHbyGgAAAAAAAAAAADt5DQAAAAAAAAAAgJ28BgAAAAAAAAAAwE5eAwAAAAAAAAAAYCevAQAAAAAAAAAAsJPXAAAAAAAAAAAA2MlrAAAAAAAAAAAA7OQ1AAAAAAAAAAAAdvIaAAAAAAAAAAAAO3kNAAAAAAAAAACAnbwGAAAAAAAAAADATl4DAAAAAAAAAABgJ68BAAAAAAAAAACwk9cAAAAAAAAAAADYyWsAAAAAAAAAAADs5DUAAAAAAAAAAAB28hoAAAAAAAAAAAA7eQ0AAAAAAAAAAICdvAYAAAAAAAAAAMBOXgMAAAAAAAAAAGAnrwEAAAAAAAAAALCT1wAAAAAAAAAAANjJawAAAAAAAAAAAOzkNQAAAAAAAAAAAHbyGgAAAAAAAAAAADt5DQAAAAAAAAAAgJ28BgAAAAAAAAAAwE5eAwAAAAAAAAAAYCevAQAAAAAAAAAAsJPXAAAAAAAAAAAA2MlrAAAAAAAAAAAA7OQ1AAAAAAAAAAAAdvIaAAAAAAAAAAAAO3kNAAAAAAAAAACAnbwGAAAAAAAAAADATl4DAAAAAAAAAABgJ68BAAAAAAAAAACwk9cAAAAAAAAAAADYyWsAAAAAAAAAAADs5DUAAAAAAAAAAAB28hoAAAAAAAAAAAA7eQ0AAAAAAAAAAICdvAYAAAAAAAAAAMBOXgMAAAAAAAAAAGAnrwEAAAAAAAAAALCT1wAAAAAAAAAAANjJawAAAAAAAAAAAOzkNQAAAAAAAAAAAHbyGgAAAAAAAAAAADt5DQAAAAAAAAAAgJ28BgAAAAAAAAAAwE5eAwAAAAAAAAAAYCevAQAAAAAAAAAAsJPXAAAAAAAAAAAA2MlrAAAAAAAAAAAA7OQ1AAAAAAAAAAAAdvIaAAAAAAAAAAAAO3kNAAAAAAAAAACAnbwGAAAAAAAAAADATl4DAAAAAAAAAABgJ68BAAAAAAAAAACwk9cAAAAAAAAAAADYyWsAAAAAAAAAAADs5DUAAAAAAAAAAAB28hoAAAAAAAAAAAA7eQ0AAAAAAAAAAICdvAYAAAAAAAAAAMBOXgMAAAAAAAAAAGAnrwEAAAAAAAAAALCT1wAAAAAAAAAAANjJawAAAAAAAAAAAOzkNQAAAAAAAAAAAHbyGgAAAAAAAAAAADt5DQAAAAAAAAAAgJ28BgAAAAAAAAAAwE5eAwAAAAAAAAAAYCevAQAAAAAAAAAAsJPXAAAAAAAAAAAA2MlrAAAAAAAAAAAA7OQ1AAAAAAAAAAAAdvIaAAAAAAAAAAAAO3kNAAAAAAAAAACAnbwGAAAAAAAAAADATl4DAAAAAAAAAABgJ68BAAAAAAAAAACwk9cAAAAAAAAAAADYyWsAAAAAAAAAAADs5DUAAAAAAAAAAAB28hoAAAAAAAAAAAA7eQ0AAAAAAAAAAICdvAYAAAAAAAAAAMBOXgMAAAAAAAAAAGAnrwEAAAAAAAAAALCT1wAAAAAAAAAAANjJawAAAAAAAAAAAOzkNQAAAAAAAAAAAHbyGgAAAAAAAAAAADt5DQAAAAAAAAAAgJ28BgAAAAAAAAAAwE5eAwAAAAAAAAAAYCevAQAAAAAAAAAAsJPXAAAAAAAAAAAA2MlrAAAAAAAAAAAA7OQ1AAAAAAAAAAAAdvIaAAAAAAAAAAAAO3kNAAAAAAAAAACAnbwGAAAAAAAAAADATl4DAAAAAAAAAABgJ68BAAAAAAAAAACwk9cAAAAAAAAAAADYyWsAAAAAAAAAAADs5DUAAAAAAAAAAAB28hoAAAAAAAAAAAA7eQ0AAAAAAAAAAICdvAYAAAAAAAAAAMBOXgMAAAAAAAAAAGAnrwEAAAAAAAAAALCT1wAAAAAAAAAAANjJawAAAAAAAAAAAOzkNQAAAAAAAAAAAHbyGgAAAAAAAAAAADt5DQAAAAAAAAAAgJ28BgAAAAAAAAAAwE5eAwAAAAAAAAAAYCevAQAAAAAAAAAAsJPXAAAAAAAAAAAA2MlrAAAAAAAAAAAA7OQ1AAAAAAAAAAAAdvIaAAAAAAAAAAAAO3kNAAAAAAAAAACAnbwGAAAAAAAAAADATl4DAAAAAAAAAABgJ68BAAAAAAAAAACwk9cAAAAAAAAAAADYyWsAAAAAAAAAAADs5DUAAAAAAAAAAAB28hoAAAAAAAAAAAA7eQ0AAAAAAAAAAICdvAYAAAAAAAAAAMBOXgMAAAAAAAAAAGAnrwEAAAAAAAAAALCT1wAAAAAAAAAAANjJawAAAAAAAAAAAOzkNQAAAAAAAAAAAHbyGgAAAAAAAAAAADt5DQAAAAAAAAAAgJ28BgAAAAAAAAAAwE5eAwAAAAAAAAAAYCevAQAAAAAAAAAAsJPXAAAAAAAAAAAA2MlrAAAAAAAAAAAA7OQ1AAAAAAAAAAAAdvIaAAAAAAAAAAAAO3kNAAAAAAAAAACAnbwGAAAAAAAAAADATl4DAAAAAAAAAABgJ68BAAAAAAAAAACwk9cAAAAAAAAAAADYyWsAAAAAAAAAAADs5DUAAAAAAAAAAAB28hoAAAAAAAAAAAA7eQ0AAAAAAAAAAICdvAYAAAAAAAAAAMBOXgMAAAAAAAAAAGAnrwEAAAAAAAAAALCT1wAAAAAAAAAAANjJawAAAAAAAAAAAOzkNQAAAAAAAAAAAHbyGgAAAAAAAAAAADt5DQAAAAAAAAAAgJ28BgAAAAAAAAAAwE5eAwAAAAAAAAAAYCevAQAAAAAAAAAAsJPXAAAAAAAAAAAA2MlrAAAAAAAAAAAA7OQ1AAAAAAAAAAAAdvIaAAAAAAAAAAAAO3kNAAAAAAAAAACAnbwGAAAAAAAAAADATl4DAAAAAAAAAABgJ68BAAAAAAAAAACwk9cAAAAAAAAAAADYyWsAAAAAAAAAAADs5DUAAAAAAAAAAAB28hoAAAAAAAAAAAA7eQ0AAAAAAAAAAICdvAYAAAAAAAAAAMBOXgMAAAAAAAAAAGAnrwEAAAAAAAAAALCT1wAAAAAAAAAAANjJawAAAAAAAAAAAOzkNQAAAAAAAAAAAHbyGgAAAAAAAAAAADt5DQAAAAAAAAAAgJ28BgAAAAAAAAAAwE5eAwAAAAAAAAAAYCevAQAAAAAAAAAAsJPXAAAAAAAAAAAA2MlrAAAAAAAAAAAA7OQ1AAAAAAAAAAAAdvIaAAAAAAAAAAAAO3kNAAAAAAAAAACAnbwGAAAAAAAAAADATl4DAAAAAAAAAABgJ68BAAAAAAAAAACwk9cAAAAAAAAAAADYyWsAAAAAAAAAAADs5DUAAAAAAAAAAAB28hoAAAAAAAAAAAA7eQ0AAAAAAAAAAICdvAYAAAAAAAAAAMBOXgMAAAAAAAAAAGAnrwEAAAAAAAAAALCT1wAAAAAAAAAAANjJawAAAAAAAAAAAOzkNQAAAAAAAAAAAHbyGgAAAAAAAAAAADt5DQAAAAAAAAAAgJ28BgAAAAAAAAAAwE5eAwAAAAAAAAAAYCevAQAAAAAAAAAAsJPXAAAAAAAAAAAA2MlrAAAAAAAAAAAA7OQ1AAAAAAAAAAAAdvIaAAAAAAAAAAAAO3kNAAAAAAAAAACAnbwGAAAAAAAAAADATl4DAAAAAAAAAABgJ68BAAAAAAAAAACwk9cAAAAAAAAAAADYyWsAAAAAAAAAAADs5DUAAAAAAAAAAAB28hoAAAAAAAAAAAA7eQ0AAAAAAAAAAICdvAYAAAAAAAAAAMBOXgMAAAAAAAAAAGAnrwEAAAAAAAAAALCT1wAAAAAAAAAAANjJawAAAAAAAAAAAOzkNQAAAAAAAAAAAHbyGgAAAAAAAAAAADt5DQAAAAAAAAAAgJ28BgAAAAAAAAAAwE5eAwAAAAAAAAAAYCevAQAAAAAAAAAAsJPXAAAAAAAAAAAA2MlrAAAAAAAAAAAA7OQ1AAAAAAAAAAAAdvIaAAAAAAAAAAAAO3kNAAAAAAAAAACAnbwGAAAAAAAAAADATl4DAAAAAAAAAABgJ68BAAAAAAAAAACwk9cAAAAAAAAAAADYyWsAAAAAAAAAAADs5DUAAAAAAAAAAAB28hoAAAAAAAAAAAA7eQ0AAAAAAAAAAICdvAYAAAAAAAAAAMBOXgMAAAAAAAAAAGAnrwEAAAAAAAAAALCT1wAAAAAAAAAAANjJawAAAAAAAAAAAOzkNQAAAAAAAAAAAHbyGgAAAAAAAAAAADt5DQAAAAAAAAAAgJ28BgAAAAAAAAAAwE5eAwAAAAAAAAAAYCevAQAAAAAAAAAAsJPXAAAAAAAAAAAA2MlrAAAAAAAAAAAA7OQ1AAAAAAAAAAAAdvIaAAAAAAAAAAAAO3kNAAAAAAAAAACAnbwGAAAAAAAAAADATl4DAAAAAAAAAABgJ68BAAAAAAAAAACwk9cAAAAAAAAAAADYyWsAAAAAAAAAAADs5DUAAAAAAAAAAAB28hoAAAAAAAAAAAA7eQ0AAAAAAAAAAICdvAYAAAAAAAAAAMBOXgMAAAAAAAAAAGAnrwEAAAAAAAAAALCT1wAAAAAAAAAAANjJawAAAAAAAAAAAOzkNQAAAAAAAAAAAHbyGgAAAAAAAAAAADt5DQAAAAAAAAAAgJ28BgAAAAAAAAAAwE5eAwAAAAAAAAAAYCevAQAAAAAAAAAAsJPXAAAAAAAAAAAA2MlrAAAAAAAAAAAA7OQ1AAAAAAAAAAAAdvIaAAAAAAAAAAAAO3kNAAAAAAAAAACAnbwGAAAAAAAAAADATl4DAAAAAAAAAABgJ68BAAAAAAAAAACwk9cAAAAAAAAAAADYyWsAAAAAAAAAAADs5DUAAAAAAAAAAAB28hoAAAAAAAAAAAA7eQ0AAAAAAAAAAICdvAYAAAAAAAAAAMBOXgMAAAAAAAAAAGAnrwEAAAAAAAAAALCT1wAAAAAAAAAAANjJawAAAAAAAAAAAOzkNQAAAAAAAAAAAHbyGgAAAAAAAAAAADt5DQAAAAAAAAAAgJ28BgAAAAAAAAAAwE5eAwAAAAAAAAAAYCevAQAAAAAAAAAAsJPXAAAAAAAAAAAA2MlrAAAAAAAAAAAA7OQ1AAAAAAAAAAAAdvIaAAAAAAAAAAAAO3kNAAAAAAAAAACAnbwGAAAAAAAAAADATl4DAAAAAAAAAABgJ68BAAAAAAAAAACwk9cAAAAAAAAAAADYyWsAAAAAAAAAAADs5DUAAAAAAAAAAAB28hoAAAAAAAAAAAA7eQ0AAAAAAAAAAICdvAYAAAAAAAAAAMBOXgMAAAAAAAAAAGAnrwEAAAAAAAAAALCT1wAAAAAAAAAAANjJawAAAAAAAAAAAOzkNQAAAAAAAAAAAHbyGgAAAAAAAAAAADt5DQAAAAAAAAAAgJ28BgAAAAAAAAAAwE5eAwAAAAAAAAAAYCevAQAAAAAAAAAAsJPXAAAAAAAAAAAA2MlrAAAAAAAAAAAA7OQ1AAAAAAAAAAAAdvIaAAAAAAAAAAAAO3kNAAAAAAAAAACAnbwGAAAAAAAAAADATl4DAAAAAAAAAABgJ68BAAAAAAAAAACwk9cAAAAAAAAAAADYyWsAAAAAAAAAAADs5DUAAAAAAAAAAAB28hoAAAAAAAAAAAA7eQ0AAAAAAAAAAICdvAYAAAAAAAAAAMBOXgMAAAAAAAAAAGAnrwEAAAAAAAAAALCT1wAAAAAAAAAAANjJawAAAAAAAAAAAOzkNQAAAAAAAAAAAHbyGgAAAAAAAAAAADt5DQAAAAAAAAAAgJ28BgAAAAAAAAAAwE5eAwAAAAAAAAAAYCevAQAAAAAAAAAAsJPXAAAAAAAAAAAA2MlrAAAAAAAAAAAA7OQ1AAAAAAAAAAAAdvIaAAAAAAAAAAAAO3kNAAAAAAAAAACAnbwGAAAAAAAAAADATl4DAAAAAAAAAABgJ68BAAAAAAAAAACwk9cAAAAAAAAAAADYyWsAAAAAAAAAAADs5DUAAAAAAAAAAAB28hoAAAAAAAAAAAA7eQ0AAAAAAAAAAICdvAYAAAAAAAAAAMBOXgMAAAAAAAAAAGAnrwEAAAAAAAAAALCT1wAAAAAAAAAAANjJawAAAAAAAAAAAOzkNQAAAAAAAAAAAHbyGgAAAAAAAAAAADt5DQAAAAAAAAAAgJ28BgAAAAAAAAAAwE5eAwAAAAAAAAAAYCevAQAAAAAAAAAAsJPXAAAAAAAAAAAA2MlrAAAAAAAAAAAA7OQ1AAAAAAAAAAAAdvIaAAAAAAAAAAAAO3kNAAAAAAAAAACAnbwGAAAAAAAAAADATl4DAAAAAAAAAABgJ68BAAAAAAAAAACwk9egdu1YAAAAAGCQv/UsdhVHAAAAAAAAAADATl4DAAAAAAAAAABgJ68BAAAAAAAAAACwk9cAAAAAAAAAAADYyWsAAAAAAAAAAADs5DUAAAAAAAAAAAB28hoAAAAAAAAAAAA7eQ0AAAAAAAAAAICdvAYAAAAAAAAAAMBOXgMAAAAAAAAAAGAnrwEAAAAAAAAAALCT1wAAAAAAAAAAANjJawAAAAAAAAAAAOzkNQAAAAAAAAAAAHbyGgAAAAAAAAAAADt5DQAAAAAAAAAAgJ28BgAAAAAAAAAAwE5eAwAAAAAAAAAAYCevAQAAAAAAAAAAsJPXAAAAAAAAAAAA2MlrAAAAAAAAAAAA7OQ1AAAAAAAAAAAAdvIaAAAAAAAAAAAAO3kNAAAAAAAAAACAnbwGAAAAAAAAAADATl4DAAAAAAAAAABgJ68BAAAAAAAAAACwk9cAAAAAAAAAAADYyWsAAAAAAAAAAADs5DUAAAAAAAAAAAB28hoAAAAAAAAAAAA7eQ0AAAAAAAAAAICdvAYAAAAAAAAAAMBOXgMAAAAAAAAAAGAnrwEAAAAAAAAAALCT1wAAAAAAAAAAANjJawAAAAAAAAAAAOzkNQAAAAAAAAAAAHbyGgAAAAAAAAAAADt5DQAAAAAAAAAAgJ28BgAAAAAAAAAAwE5eAwAAAAAAAAAAYCevAQAAAAAAAAAAsJPXAAAAAAAAAAAA2MlrAAAAAAAAAAAA7OQ1AAAAAAAAAAAAdvIaAAAAAAAAAAAAO3kNAAAAAAAAAACAnbwGAAAAAAAAAADATl4DAAAAAAAAAABgJ68BAAAAAAAAAACwk9cAAAAAAAAAAADYyWsAAAAAAAAAAADs5DUAAAAAAAAAAAB28hoAAAAAAAAAAAA7eQ0AAAAAAAAAAICdvAYAAAAAAAAAAMBOXgMAAAAAAAAAAGAnrwEAAAAAAAAAALCT1wAAAAAAAAAAANjJawAAAAAAAAAAAOzkNQAAAAAAAAAAAHbyGgAAAAAAAAAAADt5DQAAAAAAAAAAgJ28BgAAAAAAAAAAwE5eAwAAAAAAAAAAYCevAQAAAAAAAAAAsJPXAAAAAAAAAAAA2MlrAAAAAAAAAAAA7OQ1AAAAAAAAAAAAdvIaAAAAAAAAAAAAO3kNAAAAAAAAAACAnbwGAAAAAAAAAADATl4DAAAAAAAAAABgJ68BAAAAAAAAAACwk9cAAAAAAAAAAADYyWsAAAAAAAAAAADs5DUAAAAAAAAAAAB28hoAAAAAAAAAAAA7eQ0AAAAAAAAAAICdvAYAAAAAAAAAAMBOXgMAAAAAAAAAAGAnrwEAAAAAAAAAALCT1wAAAAAAAAAAANjJawAAAAAAAAAAAOzkNQAAAAAAAAAAAHbyGgAAAAAAAAAAADt5DQAAAAAAAAAAgJ28BgAAAAAAAAAAwE5eAwAAAAAAAAAAYCevAQAAAAAAAAAAsJPXAAAAAAAAAAAA2MlrAAAAAAAAAAAA7OQ1AAAAAAAAAAAAdvIaAAAAAAAAAAAAO3kNAAAAAAAAAACAnbwGAAAAAAAAAADATl4DAAAAAAAAAABgJ68BAAAAAAAAAACwk9cAAAAAAAAAAADYyWsAAAAAAAAAAADs5DUAAAAAAAAAAAB28hoAAAAAAAAAAAA7eQ0AAAAAAAAAAICdvAYAAAAAAAAAAMBOXgMAAAAAAAAAAGAnrwEAAAAAAAAAALCT1wAAAAAAAAAAANjJawAAAAAAAAAAAOzkNQAAAAAAAAAAAHbyGgAAAAAAAAAAADt5DQAAAAAAAAAAgJ28BgAAAAAAAAAAwE5eAwAAAAAAAAAAYCevAQAAAAAAAAAAsJPXAAAAAAAAAAAA2MlrAAAAAAAAAAAA7OQ1AAAAAAAAAAAAdvIaAAAAAAAAAAAAO3kNAAAAAAAAAACAnbwGAAAAAAAAAADATl4DAAAAAAAAAABgJ68BAAAAAAAAAACwk9cAAAAAAAAAAADYyWsAAAAAAAAAAADs5DUAAAAAAAAAAAB28hoAAAAAAAAAAAA7eQ0AAAAAAAAAAICdvAYAAAAAAAAAAMBOXgMAAAAAAAAAAGAnrwEAAAAAAAAAALCT1wAAAAAAAAAAANjJawAAAAAAAAAAAOzkNQAAAAAAAAAAAHbyGgAAAAAAAAAAADt5DQAAAAAAAAAAgJ28BgAAAAAAAAAAwE5eAwAAAAAAAAAAYCevAQAAAAAAAAAAsJPXAAAAAAAAAAAA2MlrAAAAAAAAAAAA7OQ1AAAAAAAAAAAAdvIaAAAAAAAAAAAAO3kNAAAAAAAAAACAnbwGAAAAAAAAAADATl4DAAAAAAAAAABgJ68BAAAAAAAAAACwk9cAAAAAAAAAAADYyWsAAAAAAAAAAADs5DUAAAAAAAAAAAB28hoAAAAAAAAAAAA7eQ0AAAAAAAAAAICdvAYAAAAAAAAAAMBOXgMAAAAAAAAAAGAnrwEAAAAAAAAAALCT1wAAAAAAAAAAANjJawAAAAAAAAAAAOzkNQAAAAAAAAAAAHbyGgAAAAAAAAAAADt5DQAAAAAAAAAAgJ28BgAAAAAAAAAAwE5eAwAAAAAAAAAAYCevAQAAAAAAAAAAsJPXAAAAAAAAAAAA2MlrAAAAAAAAAAAA7OQ1AAAAAAAAAAAAdvIaAAAAAAAAAAAAO3kNAAAAAAAAAACAnbwGAAAAAAAAAADATl4DAAAAAAAAAABgJ68BAAAAAAAAAACwk9cAAAAAAAAAAADYyWsAAAAAAAAAAADs5DUAAAAAAAAAAAB28hoAAAAAAAAAAAA7eQ0AAAAAAAAAAICdvAYAAAAAAAAAAMBOXgMAAAAAAAAAAGAnrwEAAAAAAAAAALCT1wAAAAAAAAAAANjJawAAAAAAAAAAAOzkNQAAAAAAAAAAAHbyGgAAAAAAAAAAADt5DQAAAAAAAAAAgJ28BgAAAAAAAAAAwE5eAwAAAAAAAAAAYCevAQAAAAAAAAAAsJPXAAAAAAAAAAAA2MlrAAAAAAAAAAAA7OQ1AAAAAAAAAAAAdvIaAAAAAAAAAAAAO3kNAAAAAAAAAACAnbwGAAAAAAAAAADATl4DAAAAAAAAAABgJ68BAAAAAAAAAACwk9cAAAAAAAAAAADYyWsAAAAAAAAAAADs5DUAAAAAAAAAAAB28hoAAAAAAAAAAAA7eQ0AAAAAAAAAAICdvAYAAAAAAAAAAMBOXgMAAAAAAAAAAGAnrwEAAAAAAAAAALCT1wAAAAAAAAAAANjJawAAAAAAAAAAAOzkNQAAAAAAAAAAAHbyGgAAAAAAAAAAADt5DQAAAAAAAAAAgJ28BgAAAAAAAAAAwE5eAwAAAAAAAAAAYCevAQAAAAAAAAAAsJPXAAAAAAAAAAAA2MlrAAAAAAAAAAAA7OQ1AAAAAAAAAAAAdvIaAAAAAAAAAAAAO3kNAAAAAAAAAACAnbwGAAAAAAAAAADATl4DAAAAAAAAAABgJ68BAAAAAAAAAACwk9cAAAAAAAAAAADYyWsAAAAAAAAAAADs5DUAAAAAAAAAAAB28hoAAAAAAAAAAAA7eQ0AAAAAAAAAAICdvAYAAAAAAAAAAMBOXgMAAAAAAAAAAGAnrwEAAAAAAAAAALCT1wAAAAAAAAAAANjJawAAAAAAAAAAAOzkNQAAAAAAAAAAAHbyGgAAAAAAAAAAADt5DQAAAAAAAAAAgJ28BgAAAAAAAAAAwE5eAwAAAAAAAAAAYCevAQAAAAAAAAAAsJPXAAAAAAAAAAAA2MlrAAAAAAAAAAAA7OQ1AAAAAAAAAAAAdvIaAAAAAAAAAAAAO3kNAAAAAAAAAACAnbwGAAAAAAAAAADATl4DAAAAAAAAAABgJ68BAAAAAAAAAACwk9cAAAAAAAAAAADYyWsAAAAAAAAAAADs5DUAAAAAAAAAAAB28hoAAAAAAAAAAAA7eQ0AAAAAAAAAAICdvAYAAAAAAAAAAMBOXgMAAAAAAAAAAGAnrwEAAAAAAAAAALCT1wAAAAAAAAAAANjJawAAAAAAAAAAAOzkNQAAAAAAAAAAAHbyGgAAAAAAAAAAADt5DQAAAAAAAAAAgJ28BgAAAAAAAAAAwE5eAwAAAAAAAAAAYCevAQAAAAAAAAAAsJPXAAAAAAAAAAAA2MlrAAAAAAAAAAAA7OQ1AAAAAAAAAAAAdvIaAAAAAAAAAAAAO3kNAAAAAAAAAACAnbwGAAAAAAAAAADATl4DAAAAAAAAAABgJ68BAAAAAAAAAACwk9cAAAAAAAAAAADYyWsAAAAAAAAAAADs5DUAAAAAAAAAAAB28hoAAAAAAAAAAAA7eQ0AAAAAAAAAAICdvAYAAAAAAAAAAMBOXgMAAAAAAAAAAGAnrwEAAAAAAAAAALCT1wAAAAAAAAAAANjJawAAAAAAAAAAAOzkNQAAAAAAAAAAAHbyGgAAAAAAAAAAADt5DQAAAAAAAAAAgJ28BgAAAAAAAAAAwE5eAwAAAAAAAAAAYCevAQAAAAAAAAAAsJPXAAAAAAAAAAAA2MlrAAAAAAAAAAAA7OQ1AAAAAAAAAAAAdvIaAAAAAAAAAAAAO3kNAAAAAAAAAACAnbwGAAAAAAAAAADATl4DAAAAAAAAAABgJ68BAAAAAAAAAACwk9cAAAAAAAAAAADYyWsAAAAAAAAAAADs5DUAAAAAAAAAAAB28hoAAAAAAAAAAAA7eQ0AAAAAAAAAAICdvAYAAAAAAAAAAMBOXgMAAAAAAAAAAGAnrwEAAAAAAAAAALCT1wAAAAAAAAAAANjJawAAAAAAAAAAAOzkNQAAAAAAAAAAAHbyGgAAAAAAAAAAADt5DQAAAAAAAAAAgJ28BgAAAAAAAAAAwE5eAwAAAAAAAAAAYCevAQAAAAAAAAAAsJPXAAAAAAAAAAAA2MlrAAAAAAAAAAAA7OQ1AAAAAAAAAAAAdvIaAAAAAAAAAAAAO3kNAAAAAAAAAACAnbwGAAAAAAAAAADATl4DAAAAAAAAAABgJ68BAAAAAAAAAACwk9cAAAAAAAAAAADYyWsAAAAAAAAAAADs5DUAAAAAAAAAAAB28hoAAAAAAAAAAAA7eQ0AAAAAAAAAAICdvAYAAAAAAAAAAMBOXgMAAAAAAAAAAGAnrwEAAAAAAAAAALCT1wAAAAAAAAAAANjJawAAAAAAAAAAAOzkNQAAAAAAAAAAAHbyGgAAAAAAAAAAADt5DQAAAAAAAAAAgJ28BgAAAAAAAAAAwE5eAwAAAAAAAAAAYCevAQAAAAAAAAAAsJPXAAAAAAAAAAAA2MlrAAAAAAAAAAAA7OQ1AAAAAAAAAAAAdvIaAAAAAAAAAAAAO3kNAAAAAAAAAACAnbwGAAAAAAAAAADATl4DAAAAAAAAAABgJ68BAAAAAAAAAACwk9cAAAAAAAAAAADYyWsAAAAAAAAAAADs5DUAAAAAAAAAAAB28hoAAAAAAAAAAAA7eQ0AAAAAAAAAAICdvAYAAAAAAAAAAMBOXgMAAAAAAAAAAGAnrwEAAAAAAAAAALCT1wAAAAAAAAAAANjJawAAAAAAAAAAAOzkNQAAAAAAAAAAAHbyGgAAAAAAAAAAADt5DQAAAAAAAAAAgJ28BgAAAAAAAAAAwE5eAwAAAAAAAAAAYCevAQAAAAAAAAAAsJPXAAAAAAAAAAAA2MlrAAAAAAAAAAAA7OQ1AAAAAAAAAAAAdvIaAAAAAAAAAAAAO3kNAAAAAAAAAACAnbwGAAAAAAAAAADATl4DAAAAAAAAAABgJ68BAAAAAAAAAACwk9cAAAAAAAAAAADYyWsAAAAAAAAAAADs5DUAAAAAAAAAAAB28hoAAAAAAAAAAAA7eQ0AAAAAAAAAAICdvAYAAAAAAAAAAMBOXgMAAAAAAAAAAGAnrwEAAAAAAAAAALCT1wAAAAAAAAAAANjJawAAAAAAAAAAAOzkNQAAAAAAAAAAAHbyGgAAAAAAAAAAADt5DQAAAAAAAAAAgJ28BgAAAAAAAAAAwE5eAwAAAAAAAAAAYCevAQAAAAAAAAAAsJPXAAAAAAAAAAAA2MlrAAAAAAAAAAAA7OQ1AAAAAAAAAAAAdvIaAAAAAAAAAAAAO3kNAAAAAAAAAACAnbwGAAAAAAAAAADATl4DAAAAAAAAAABgJ68BAAAAAAAAAACwk9cAAAAAAAAAAADYyWsAAAAAAAAAAADs5DUAAAAAAAAAAAB28hoAAAAAAAAAAAA7eQ0AAAAAAAAAAICdvAYAAAAAAAAAAMBOXgMAAAAAAAAAAGAnrwEAAAAAAAAAALCT1wAAAAAAAAAAANjJawAAAAAAAAAAAOzkNQAAAAAAAAAAAHbyGgAAAAAAAAAAADt5DQAAAAAAAAAAgJ28BgAAAAAAAAAAwE5eAwAAAAAAAAAAYCevAQAAAAAAAAAAsJPXAAAAAAAAAAAA2MlrAAAAAAAAAAAA7OQ1AAAAAAAAAAAAdvIaAAAAAAAAAAAAO3kNAAAAAAAAAACAnbwGAAAAAAAAAADATl4DAAAAAAAAAABgJ68BAAAAAAAAAACwk9cAAAAAAAAAAADYyWsAAAAAAAAAAADs5DUAAAAAAAAAAAB28hoAAAAAAAAAAAA7eQ0AAAAAAAAAAICdvAYAAAAAAAAAAMBOXgMAAAAAAAAAAGAnrwEAAAAAAAAAALCT1wAAAAAAAAAAANjJawAAAAAAAAAAAOzkNQAAAAAAAAAAAHbyGgAAAAAAAAAAADt5DQAAAAAAAAAAgJ28BgAAAAAAAAAAwE5eAwAAAAAAAAAAYCevAQAAAAAAAAAAsJPXAAAAAAAAAAAA2MlrAAAAAAAAAAAA7OQ1AAAAAAAAAAAAdvIaAAAAAAAAAAAAO3kNAAAAAAAAAACAnbwGAAAAAAAAAADATl4DAAAAAAAAAABgJ68BAAAAAAAAAACwk9cAAAAAAAAAAADYyWsAAAAAAAAAAADs5DUAAAAAAAAAAAB28hoAAAAAAAAAAAA7eQ0AAAAAAAAAAICdvAYAAAAAAAAAAMBOXgMAAAAAAAAAAGAnrwEAAAAAAAAAALCT1wAAAAAAAAAAANjJawAAAAAAAAAAAOzkNQAAAAAAAAAAAHbyGgAAAAAAAAAAADt5DQAAAAAAAAAAgJ28BgAAAAAAAAAAwE5eAwAAAAAAAAAAYCevAQAAAAAAAAAAsJPXAAAAAAAAAAAA2MlrAAAAAAAAAAAA7OQ1AAAAAAAAAAAAdvIaAAAAAAAAAAAAO3kNAAAAAAAAAACAnbwGAAAAAAAAAADATl4DAAAAAAAAAABgJ68BAAAAAAAAAACwk9cAAAAAAAAAAADYyWsAAAAAAAAAAADs5DUAAAAAAAAAAAB28hoAAAAAAAAAAAA7eQ0AAAAAAAAAAICdvAYAAAAAAAAAAMBOXgMAAAAAAAAAAGAnrwEAAAAAAAAAALCT1wAAAAAAAAAAANjJawAAAAAAAAAAAOzkNQAAAAAAAAAAAHbyGgAAAAAAAAAAADt5DQAAAAAAAAAAgJ28BgAAAAAAAAAAwE5eAwAAAAAAAAAAYCevAQAAAAAAAAAAsJPXAAAAAAAAAAAA2MlrAAAAAAAAAAAA7OQ1AAAAAAAAAAAAdvIaAAAAAAAAAAAAO3kNAAAAAAAAAACAnbwGAAAAAAAAAADATl4DAAAAAAAAAABgJ68BAAAAAAAAAACwk9cAAAAAAAAAAADYyWsAAAAAAAAAAADs5DUAAAAAAAAAAAB28hoAAAAAAAAAAAA7eQ0AAAAAAAAAAICdvAYAAAAAAAAAAMBOXgMAAAAAAAAAAGAnrwEAAAAAAAAAALCT1wAAAAAAAAAAANjJawAAAAAAAAAAAOzkNQAAAAAAAAAAAHbyGgAAAAAAAAAAADt5DQAAAAAAAAAAgJ28BgAAAAAAAAAAwE5eAwAAAAAAAAAAYCevAQAAAAAAAAAAsJPXAAAAAAAAAAAA2MlrAAAAAAAAAAAA7OQ1AAAAAAAAAAAAdvIaAAAAAAAAAAAAuwDDNsXGU7pycwAAAABJRU5ErkJggg==;" parent="1" vertex="1">
          <mxGeometry x="60" y="1800" width="809" height="1144.15" as="geometry" />
        </mxCell>
        <mxCell id="bNAyXEdg1maSBF0XDLA2-4" value="data" style="text;html=1;align=center;verticalAlign=middle;whiteSpace=wrap;rounded=0;fontStyle=1;fontColor=#000000;" parent="1" vertex="1">
          <mxGeometry x="330" y="2000" width="60" height="30" as="geometry" />
        </mxCell>
        <mxCell id="bNAyXEdg1maSBF0XDLA2-5" value="next" style="text;html=1;align=center;verticalAlign=middle;whiteSpace=wrap;rounded=0;fontStyle=1;fontColor=#000000;" parent="1" vertex="1">
          <mxGeometry x="330" y="2030" width="60" height="30" as="geometry" />
        </mxCell>
        <mxCell id="bNAyXEdg1maSBF0XDLA2-7" value="prev" style="text;html=1;align=center;verticalAlign=middle;whiteSpace=wrap;rounded=0;fontStyle=1;fontColor=#000000;" parent="1" vertex="1">
          <mxGeometry x="330" y="2060" width="60" height="30" as="geometry" />
        </mxCell>
        <mxCell id="bNAyXEdg1maSBF0XDLA2-8" value="set" style="text;html=1;align=center;verticalAlign=middle;whiteSpace=wrap;rounded=0;fontStyle=1;fontColor=#000000;" parent="1" vertex="1">
          <mxGeometry x="330" y="2090" width="60" height="30" as="geometry" />
        </mxCell>
        <mxCell id="bNAyXEdg1maSBF0XDLA2-9" value="" style="rounded=0;whiteSpace=wrap;html=1;fontColor=#333333;fillColor=#FFFFFF;strokeColor=#666666;" parent="1" vertex="1">
          <mxGeometry x="400" y="2005" width="90" height="25" as="geometry" />
        </mxCell>
        <mxCell id="DK_LcRrmNnQ8EOja7_YR-1" value="" style="rounded=0;whiteSpace=wrap;html=1;fillColor=none;fontColor=#333333;strokeColor=#666666;movable=1;resizable=1;rotatable=1;deletable=1;editable=1;locked=0;connectable=1;" parent="1" vertex="1">
          <mxGeometry x="330" y="1990" width="170" height="142.5" as="geometry" />
        </mxCell>
        <mxCell id="bNAyXEdg1maSBF0XDLA2-10" value="" style="rounded=0;whiteSpace=wrap;html=1;fontColor=#333333;fillColor=#FFFFFF;strokeColor=#666666;" parent="1" vertex="1">
          <mxGeometry x="400" y="2035" width="30" height="25" as="geometry" />
        </mxCell>
        <mxCell id="bNAyXEdg1maSBF0XDLA2-11" value="" style="rounded=0;whiteSpace=wrap;html=1;fontColor=#333333;fillColor=#FFFFFF;strokeColor=#666666;" parent="1" vertex="1">
          <mxGeometry x="400" y="2062.5" width="30" height="25" as="geometry" />
        </mxCell>
        <mxCell id="bNAyXEdg1maSBF0XDLA2-12" value="" style="rounded=0;whiteSpace=wrap;html=1;fontColor=#333333;fillColor=#FFFFFF;strokeColor=#666666;" parent="1" vertex="1">
          <mxGeometry x="400" y="2092.5" width="30" height="25" as="geometry" />
        </mxCell>
        <mxCell id="DK_LcRrmNnQ8EOja7_YR-2" value="pony" style="text;html=1;strokeColor=none;fillColor=none;align=center;verticalAlign=middle;whiteSpace=wrap;rounded=0;fontColor=#000000;" parent="1" vertex="1">
          <mxGeometry x="414" y="2002.5" width="60" height="30" as="geometry" />
        </mxCell>
        <mxCell id="DK_LcRrmNnQ8EOja7_YR-4" value="" style="endArrow=classic;html=1;rounded=0;fontColor=#000000;entryX=-0.012;entryY=0.074;entryDx=0;entryDy=0;entryPerimeter=0;strokeColor=#000000;" parent="1" target="DK_LcRrmNnQ8EOja7_YR-1" edge="1">
          <mxGeometry width="50" height="50" relative="1" as="geometry">
            <mxPoint x="200" y="2020" as="sourcePoint" />
            <mxPoint x="250" y="1970" as="targetPoint" />
            <Array as="points">
              <mxPoint x="270" y="2010" />
            </Array>
          </mxGeometry>
        </mxCell>
        <mxCell id="DK_LcRrmNnQ8EOja7_YR-6" value="" style="endArrow=classic;html=1;rounded=0;strokeColor=#000000;fontColor=#000000;entryX=0;entryY=0.75;entryDx=0;entryDy=0;" parent="1" target="DK_LcRrmNnQ8EOja7_YR-1" edge="1">
          <mxGeometry width="50" height="50" relative="1" as="geometry">
            <mxPoint x="200" y="2062.5" as="sourcePoint" />
            <mxPoint x="240" y="2012.5" as="targetPoint" />
          </mxGeometry>
        </mxCell>
        <mxCell id="DK_LcRrmNnQ8EOja7_YR-8" value="" style="whiteSpace=wrap;html=1;aspect=fixed;fontColor=#000000;fillColor=none;strokeColor=none;" parent="1" vertex="1">
          <mxGeometry x="130" y="1990" width="100" height="100" as="geometry" />
        </mxCell>
        <mxCell id="DK_LcRrmNnQ8EOja7_YR-11" value="" style="shape=sumEllipse;perimeter=ellipsePerimeter;whiteSpace=wrap;html=1;backgroundOutline=1;fontColor=#000000;fillColor=none;strokeColor=#000000;" parent="1" vertex="1">
          <mxGeometry x="410" y="2040" width="14" height="14" as="geometry" />
        </mxCell>
        <mxCell id="DK_LcRrmNnQ8EOja7_YR-14" value="" style="shape=sumEllipse;perimeter=ellipsePerimeter;whiteSpace=wrap;html=1;backgroundOutline=1;fontColor=#000000;fillColor=none;strokeColor=#000000;" parent="1" vertex="1">
          <mxGeometry x="410" y="2070" width="14" height="14" as="geometry" />
        </mxCell>
        <mxCell id="dPw_SP6e2AOoX0T9ceou-1" value="" style="curved=1;endArrow=classic;html=1;rounded=0;strokeColor=default;" parent="1" source="bNAyXEdg1maSBF0XDLA2-12" target="DK_LcRrmNnQ8EOja7_YR-8" edge="1">
          <mxGeometry width="50" height="50" relative="1" as="geometry">
            <mxPoint x="510" y="2150" as="sourcePoint" />
            <mxPoint x="560" y="2100" as="targetPoint" />
            <Array as="points">
              <mxPoint x="415" y="2160" />
              <mxPoint x="210" y="2280" />
            </Array>
          </mxGeometry>
        </mxCell>
      </root>
    </mxGraphModel>
  </diagram>
</mxfile>
